%TF.GenerationSoftware,KiCad,Pcbnew,8.0.1*%
%TF.CreationDate,2024-04-26T22:18:18+02:00*%
%TF.ProjectId,Practica1,50726163-7469-4636-9131-2e6b69636164,rev?*%
%TF.SameCoordinates,Original*%
%TF.FileFunction,Copper,L1,Top*%
%TF.FilePolarity,Positive*%
%FSLAX46Y46*%
G04 Gerber Fmt 4.6, Leading zero omitted, Abs format (unit mm)*
G04 Created by KiCad (PCBNEW 8.0.1) date 2024-04-26 22:18:18*
%MOMM*%
%LPD*%
G01*
G04 APERTURE LIST*
%TA.AperFunction,ComponentPad*%
%ADD10R,1.600000X1.600000*%
%TD*%
%TA.AperFunction,ComponentPad*%
%ADD11C,1.600000*%
%TD*%
%TA.AperFunction,ComponentPad*%
%ADD12R,2.600000X2.600000*%
%TD*%
%TA.AperFunction,ComponentPad*%
%ADD13C,2.600000*%
%TD*%
%TA.AperFunction,ComponentPad*%
%ADD14O,2.000000X1.200000*%
%TD*%
%TA.AperFunction,ComponentPad*%
%ADD15R,1.530000X1.530000*%
%TD*%
%TA.AperFunction,ComponentPad*%
%ADD16C,1.530000*%
%TD*%
%TA.AperFunction,ComponentPad*%
%ADD17R,1.905000X2.000000*%
%TD*%
%TA.AperFunction,ComponentPad*%
%ADD18O,1.905000X2.000000*%
%TD*%
%TA.AperFunction,ViaPad*%
%ADD19C,0.600000*%
%TD*%
%TA.AperFunction,Conductor*%
%ADD20C,0.200000*%
%TD*%
%TA.AperFunction,Conductor*%
%ADD21C,0.300000*%
%TD*%
%TA.AperFunction,Conductor*%
%ADD22C,1.500000*%
%TD*%
%TA.AperFunction,Conductor*%
%ADD23C,0.500000*%
%TD*%
%ADD24C,0.300000*%
%ADD25C,0.350000*%
G04 APERTURE END LIST*
D10*
%TO.P,C4,1*%
%TO.N,+5V*%
X127044900Y-96500000D03*
D11*
%TO.P,C4,2*%
%TO.N,GND*%
X129044900Y-96500000D03*
%TD*%
D12*
%TO.P,J3,1,Pin_1*%
%TO.N,DirB MotorB*%
X122500000Y-75500000D03*
D13*
%TO.P,J3,2,Pin_2*%
%TO.N,DirA MotorB*%
X122500000Y-70500000D03*
%TD*%
D14*
%TO.P,IC1,1,VM1*%
%TO.N,+9V*%
X96760000Y-61840000D03*
%TO.P,IC1,2,VCC*%
%TO.N,+3.3V*%
X96760000Y-64380000D03*
%TO.P,IC1,3,GND*%
%TO.N,GND*%
X96760000Y-66920000D03*
%TO.P,IC1,4,AO1*%
%TO.N,DirA MotorA*%
X96760000Y-69460000D03*
%TO.P,IC1,5,AO2*%
%TO.N,DirB MotorA*%
X96760000Y-72000000D03*
%TO.P,IC1,6,BO1*%
%TO.N,DirA MotorB*%
X96760000Y-74540000D03*
%TO.P,IC1,7,BO2*%
%TO.N,DirB MotorB*%
X96760000Y-77080000D03*
%TO.P,IC1,8,GND*%
%TO.N,GND*%
X96760000Y-79620000D03*
%TO.P,IC1,9,GND*%
X112000000Y-79620000D03*
%TO.P,IC1,10,PWMB*%
%TO.N,Enable B*%
X112000000Y-77080000D03*
%TO.P,IC1,11,BIN2*%
%TO.N,Derecha B*%
X112000000Y-74540000D03*
%TO.P,IC1,12,BIN1*%
%TO.N,Izquierda B*%
X112000000Y-72000000D03*
%TO.P,IC1,13,STBY*%
%TO.N,unconnected-(IC1-STBY-Pad13)*%
X112000000Y-69460000D03*
%TO.P,IC1,14,AIN2*%
%TO.N,Izquierda A*%
X112000000Y-66920000D03*
%TO.P,IC1,15,AIN1*%
%TO.N,Derecha A*%
X112000000Y-64380000D03*
%TO.P,IC1,16,PWMA*%
%TO.N,Enable A*%
X112000000Y-61840000D03*
%TD*%
D12*
%TO.P,J1,1,Pin_1*%
%TO.N,GND*%
X121500000Y-108805000D03*
D13*
%TO.P,J1,2,Pin_2*%
%TO.N,+9V*%
X126500000Y-108805000D03*
%TD*%
D15*
%TO.P,U2,1,3V3*%
%TO.N,+3.3V*%
X65100000Y-63880000D03*
D16*
%TO.P,U2,2,EN*%
%TO.N,unconnected-(U2-EN-Pad2)*%
X65100000Y-66420000D03*
%TO.P,U2,3,SENSOR_VP*%
%TO.N,unconnected-(U2-SENSOR_VP-Pad3)*%
X65100000Y-68960000D03*
%TO.P,U2,4,SENSOR_VN*%
%TO.N,unconnected-(U2-SENSOR_VN-Pad4)*%
X65100000Y-71500000D03*
%TO.P,U2,5,IO34*%
%TO.N,unconnected-(U2-IO34-Pad5)*%
X65100000Y-74040000D03*
%TO.P,U2,6,IO35*%
%TO.N,unconnected-(U2-IO35-Pad6)*%
X65100000Y-76580000D03*
%TO.P,U2,7,IO32*%
%TO.N,Izquierda B*%
X65100000Y-79120000D03*
%TO.P,U2,8,IO33*%
%TO.N,Derecha B*%
X65100000Y-81660000D03*
%TO.P,U2,9,IO25*%
%TO.N,Izquierda A*%
X65100000Y-84200000D03*
%TO.P,U2,10,IO26*%
%TO.N,Derecha A*%
X65100000Y-86740000D03*
%TO.P,U2,11,IO27*%
%TO.N,Enable A*%
X65100000Y-89280000D03*
%TO.P,U2,12,IO14*%
%TO.N,Enable B*%
X65100000Y-91820000D03*
%TO.P,U2,13,IO12*%
%TO.N,unconnected-(U2-IO12-Pad13)*%
X65100000Y-94360000D03*
%TO.P,U2,14,GND1*%
%TO.N,GND*%
X65100000Y-96900000D03*
%TO.P,U2,15,IO13*%
%TO.N,unconnected-(U2-IO13-Pad15)*%
X65100000Y-99440000D03*
%TO.P,U2,16,SD2*%
%TO.N,unconnected-(U2-SD2-Pad16)*%
X65100000Y-101980000D03*
%TO.P,U2,17,SD3*%
%TO.N,unconnected-(U2-SD3-Pad17)*%
X65100000Y-104520000D03*
%TO.P,U2,18,CMD*%
%TO.N,unconnected-(U2-CMD-Pad18)*%
X65100000Y-107060000D03*
%TO.P,U2,19,EXT_5V*%
%TO.N,+5V*%
X65100000Y-109600000D03*
%TO.P,U2,20,CLK*%
%TO.N,unconnected-(U2-CLK-Pad20)*%
X90500000Y-109600000D03*
%TO.P,U2,21,SD0*%
%TO.N,unconnected-(U2-SD0-Pad21)*%
X90500000Y-107060000D03*
%TO.P,U2,22,SD1*%
%TO.N,unconnected-(U2-SD1-Pad22)*%
X90500000Y-104520000D03*
%TO.P,U2,23,IO15*%
%TO.N,unconnected-(U2-IO15-Pad23)*%
X90500000Y-101980000D03*
%TO.P,U2,24,IO2*%
%TO.N,unconnected-(U2-IO2-Pad24)*%
X90500000Y-99440000D03*
%TO.P,U2,25,IO0*%
%TO.N,unconnected-(U2-IO0-Pad25)*%
X90500000Y-96900000D03*
%TO.P,U2,26,IO4*%
%TO.N,unconnected-(U2-IO4-Pad26)*%
X90500000Y-94360000D03*
%TO.P,U2,27,IO16*%
%TO.N,unconnected-(U2-IO16-Pad27)*%
X90500000Y-91820000D03*
%TO.P,U2,28,IO17*%
%TO.N,unconnected-(U2-IO17-Pad28)*%
X90500000Y-89280000D03*
%TO.P,U2,29,IO5*%
%TO.N,unconnected-(U2-IO5-Pad29)*%
X90500000Y-86740000D03*
%TO.P,U2,30,IO18*%
%TO.N,unconnected-(U2-IO18-Pad30)*%
X90500000Y-84200000D03*
%TO.P,U2,31,IO19*%
%TO.N,unconnected-(U2-IO19-Pad31)*%
X90500000Y-81660000D03*
%TO.P,U2,32,GND2*%
%TO.N,GND*%
X90500000Y-79120000D03*
%TO.P,U2,33,IO21*%
%TO.N,SDA*%
X90500000Y-76580000D03*
%TO.P,U2,34,RXD0*%
%TO.N,unconnected-(U2-RXD0-Pad34)*%
X90500000Y-74040000D03*
%TO.P,U2,35,TXD0*%
%TO.N,unconnected-(U2-TXD0-Pad35)*%
X90500000Y-71500000D03*
%TO.P,U2,36,IO22*%
%TO.N,SCL*%
X90500000Y-68960000D03*
%TO.P,U2,37,IO23*%
%TO.N,D4*%
X90500000Y-66420000D03*
%TO.P,U2,38,GND3*%
%TO.N,GND*%
X90500000Y-63880000D03*
%TD*%
%TO.P,U5,1,VDD*%
%TO.N,+3.3V*%
X98713500Y-91000000D03*
%TO.P,U5,2,GND*%
%TO.N,GND*%
X98713500Y-93540000D03*
%TO.P,U5,3,SCL*%
%TO.N,SCL*%
X98713500Y-96080000D03*
%TO.P,U5,4,SDA*%
%TO.N,SDA*%
X98713500Y-98620000D03*
%TO.P,U5,5,AUX_DA*%
%TO.N,unconnected-(U5-AUX_DA-Pad5)*%
X98713500Y-101160000D03*
%TO.P,U5,6,AUX_CL*%
%TO.N,unconnected-(U5-AUX_CL-Pad6)*%
X98713500Y-103700000D03*
%TO.P,U5,7,AD0*%
%TO.N,unconnected-(U5-AD0-Pad7)*%
X98713500Y-106240000D03*
%TO.P,U5,8,INT*%
%TO.N,D4*%
X98713500Y-108780000D03*
%TD*%
D17*
%TO.P,U4,1,IN*%
%TO.N,+9V*%
X121420000Y-88195000D03*
D18*
%TO.P,U4,2,GND*%
%TO.N,GND*%
X123960000Y-88195000D03*
%TO.P,U4,3,OUT*%
%TO.N,+5V*%
X126500000Y-88195000D03*
%TD*%
D10*
%TO.P,C3,1*%
%TO.N,+9V*%
X117847300Y-96500000D03*
D11*
%TO.P,C3,2*%
%TO.N,GND*%
X121347300Y-96500000D03*
%TD*%
D12*
%TO.P,J2,1,Pin_1*%
%TO.N,DirB MotorA*%
X122500000Y-63500000D03*
D13*
%TO.P,J2,2,Pin_2*%
%TO.N,DirA MotorA*%
X122500000Y-58500000D03*
%TD*%
D19*
%TO.N,GND*%
X76000000Y-80500000D03*
%TD*%
D20*
%TO.N,+5V*%
X126494900Y-96505100D02*
X126494900Y-96500000D01*
D21*
X92500000Y-112000000D02*
X111000000Y-112000000D01*
X111000000Y-112000000D02*
X126494900Y-96505100D01*
X126494900Y-96500000D02*
X126494900Y-89500200D01*
X90000000Y-114500000D02*
X92500000Y-112000000D01*
D20*
X127044900Y-96500000D02*
X126494900Y-96500000D01*
X126494900Y-89500200D02*
X126500000Y-89495100D01*
D21*
X65100000Y-109600000D02*
X70000000Y-114500000D01*
D20*
X126500000Y-88195000D02*
X126500000Y-89495100D01*
D21*
X70000000Y-114500000D02*
X90000000Y-114500000D01*
D22*
%TO.N,DirB MotorA*%
X105000000Y-68000000D02*
X105000000Y-58500000D01*
X105000000Y-58500000D02*
X107500000Y-56000000D01*
X112000000Y-56000000D02*
X119500000Y-63500000D01*
X96760000Y-72000000D02*
X101000000Y-72000000D01*
X107500000Y-56000000D02*
X112000000Y-56000000D01*
X119500000Y-63500000D02*
X122500000Y-63500000D01*
X101000000Y-72000000D02*
X105000000Y-68000000D01*
D20*
%TO.N,Derecha A*%
X96137208Y-73050000D02*
X103330000Y-73050000D01*
X90941138Y-65355000D02*
X95000000Y-69413862D01*
X103330000Y-73050000D02*
X112000000Y-64380000D01*
X86485000Y-65355000D02*
X90941138Y-65355000D01*
X95000000Y-69413862D02*
X95000000Y-71912792D01*
X95000000Y-71912792D02*
X96137208Y-73050000D01*
X65100000Y-86740000D02*
X86485000Y-65355000D01*
D23*
%TO.N,+3.3V*%
X95420000Y-64420000D02*
X83500000Y-52500000D01*
X83500000Y-52500000D02*
X77545100Y-52500000D01*
X66165100Y-63880000D02*
X65100000Y-63880000D01*
X96760000Y-64420000D02*
X95420000Y-64420000D01*
X77545100Y-52500000D02*
X66165100Y-63880000D01*
D22*
%TO.N,DirA MotorA*%
X96760000Y-69460000D02*
X99040000Y-69460000D01*
X99040000Y-69460000D02*
X103000000Y-65500000D01*
X116500000Y-52500000D02*
X122500000Y-58500000D01*
X103000000Y-65500000D02*
X103000000Y-55500000D01*
X106000000Y-52500000D02*
X116500000Y-52500000D01*
X103000000Y-55500000D02*
X106000000Y-52500000D01*
%TO.N,DirA MotorB*%
X108000000Y-82500000D02*
X114500000Y-82500000D01*
X96760000Y-74540000D02*
X100040000Y-74540000D01*
X114500000Y-82500000D02*
X116000000Y-81000000D01*
X100040000Y-74540000D02*
X108000000Y-82500000D01*
X118000000Y-70500000D02*
X122500000Y-70500000D01*
X116000000Y-81000000D02*
X116000000Y-72500000D01*
X116000000Y-72500000D02*
X118000000Y-70500000D01*
%TO.N,DirB MotorB*%
X122500000Y-78000000D02*
X122500000Y-75500000D01*
X114000000Y-86500000D02*
X122500000Y-78000000D01*
X107500000Y-86500000D02*
X114000000Y-86500000D01*
X96760000Y-77080000D02*
X98080000Y-77080000D01*
X98080000Y-77080000D02*
X107500000Y-86500000D01*
%TD*%
%TA.AperFunction,Conductor*%
%TO.N,GND*%
G36*
X136942539Y-48520185D02*
G01*
X136988294Y-48572989D01*
X136999500Y-48624500D01*
X136999500Y-120375500D01*
X136979815Y-120442539D01*
X136927011Y-120488294D01*
X136875500Y-120499500D01*
X57124500Y-120499500D01*
X57057461Y-120479815D01*
X57011706Y-120427011D01*
X57000500Y-120375500D01*
X57000500Y-115621288D01*
X59649500Y-115621288D01*
X59681161Y-115861785D01*
X59743947Y-116096104D01*
X59761390Y-116138214D01*
X59836776Y-116320212D01*
X59958064Y-116530289D01*
X59958066Y-116530292D01*
X59958067Y-116530293D01*
X60105733Y-116722736D01*
X60105739Y-116722743D01*
X60277256Y-116894260D01*
X60277262Y-116894265D01*
X60469711Y-117041936D01*
X60679788Y-117163224D01*
X60903900Y-117256054D01*
X61138211Y-117318838D01*
X61318586Y-117342584D01*
X61378711Y-117350500D01*
X61378712Y-117350500D01*
X61621289Y-117350500D01*
X61669388Y-117344167D01*
X61861789Y-117318838D01*
X62096100Y-117256054D01*
X62320212Y-117163224D01*
X62530289Y-117041936D01*
X62722738Y-116894265D01*
X62894265Y-116722738D01*
X62972110Y-116621288D01*
X131149500Y-116621288D01*
X131181161Y-116861785D01*
X131243947Y-117096104D01*
X131271750Y-117163226D01*
X131336776Y-117320212D01*
X131458064Y-117530289D01*
X131458066Y-117530292D01*
X131458067Y-117530293D01*
X131605733Y-117722736D01*
X131605739Y-117722743D01*
X131777256Y-117894260D01*
X131777262Y-117894265D01*
X131969711Y-118041936D01*
X132179788Y-118163224D01*
X132403900Y-118256054D01*
X132638211Y-118318838D01*
X132818586Y-118342584D01*
X132878711Y-118350500D01*
X132878712Y-118350500D01*
X133121289Y-118350500D01*
X133169388Y-118344167D01*
X133361789Y-118318838D01*
X133596100Y-118256054D01*
X133820212Y-118163224D01*
X134030289Y-118041936D01*
X134222738Y-117894265D01*
X134394265Y-117722738D01*
X134541936Y-117530289D01*
X134663224Y-117320212D01*
X134756054Y-117096100D01*
X134818838Y-116861789D01*
X134850500Y-116621288D01*
X134850500Y-116378712D01*
X134818838Y-116138211D01*
X134756054Y-115903900D01*
X134663224Y-115679788D01*
X134541936Y-115469711D01*
X134394265Y-115277262D01*
X134394260Y-115277256D01*
X134222743Y-115105739D01*
X134222736Y-115105733D01*
X134030293Y-114958067D01*
X134030292Y-114958066D01*
X134030289Y-114958064D01*
X133820212Y-114836776D01*
X133820205Y-114836773D01*
X133596104Y-114743947D01*
X133361785Y-114681161D01*
X133121289Y-114649500D01*
X133121288Y-114649500D01*
X132878712Y-114649500D01*
X132878711Y-114649500D01*
X132638214Y-114681161D01*
X132403895Y-114743947D01*
X132179794Y-114836773D01*
X132179785Y-114836777D01*
X131969706Y-114958067D01*
X131777263Y-115105733D01*
X131777256Y-115105739D01*
X131605739Y-115277256D01*
X131605733Y-115277263D01*
X131458067Y-115469706D01*
X131336777Y-115679785D01*
X131336773Y-115679794D01*
X131243947Y-115903895D01*
X131181161Y-116138214D01*
X131149500Y-116378711D01*
X131149500Y-116621288D01*
X62972110Y-116621288D01*
X63041936Y-116530289D01*
X63163224Y-116320212D01*
X63256054Y-116096100D01*
X63318838Y-115861789D01*
X63350500Y-115621288D01*
X63350500Y-115378712D01*
X63318838Y-115138211D01*
X63256054Y-114903900D01*
X63163224Y-114679788D01*
X63041936Y-114469711D01*
X62894265Y-114277262D01*
X62894260Y-114277256D01*
X62722743Y-114105739D01*
X62722736Y-114105733D01*
X62530293Y-113958067D01*
X62530292Y-113958066D01*
X62530289Y-113958064D01*
X62320212Y-113836776D01*
X62303407Y-113829815D01*
X62096104Y-113743947D01*
X61861785Y-113681161D01*
X61621289Y-113649500D01*
X61621288Y-113649500D01*
X61378712Y-113649500D01*
X61378711Y-113649500D01*
X61138214Y-113681161D01*
X60903895Y-113743947D01*
X60679794Y-113836773D01*
X60679785Y-113836777D01*
X60469706Y-113958067D01*
X60277263Y-114105733D01*
X60277256Y-114105739D01*
X60105739Y-114277256D01*
X60105733Y-114277263D01*
X59958067Y-114469706D01*
X59836777Y-114679785D01*
X59836773Y-114679794D01*
X59743947Y-114903895D01*
X59681161Y-115138214D01*
X59649500Y-115378711D01*
X59649500Y-115621288D01*
X57000500Y-115621288D01*
X57000500Y-109600001D01*
X63829666Y-109600001D01*
X63848964Y-109820585D01*
X63848965Y-109820592D01*
X63906275Y-110034475D01*
X63906279Y-110034486D01*
X63989232Y-110212379D01*
X63999858Y-110235167D01*
X64126868Y-110416555D01*
X64283445Y-110573132D01*
X64464833Y-110700142D01*
X64585572Y-110756443D01*
X64665513Y-110793720D01*
X64665515Y-110793720D01*
X64665520Y-110793723D01*
X64879409Y-110851035D01*
X65036974Y-110864820D01*
X65099998Y-110870334D01*
X65100000Y-110870334D01*
X65100002Y-110870334D01*
X65130575Y-110867659D01*
X65320591Y-110851035D01*
X65338581Y-110846214D01*
X65408429Y-110847873D01*
X65458360Y-110878306D01*
X69585324Y-115005271D01*
X69585331Y-115005277D01*
X69691871Y-115076464D01*
X69691870Y-115076464D01*
X69726544Y-115090826D01*
X69810256Y-115125501D01*
X69810260Y-115125501D01*
X69810261Y-115125502D01*
X69935928Y-115150500D01*
X69935931Y-115150500D01*
X90064071Y-115150500D01*
X90148615Y-115133682D01*
X90189744Y-115125501D01*
X90308127Y-115076465D01*
X90414669Y-115005277D01*
X92733127Y-112686819D01*
X92794450Y-112653334D01*
X92820808Y-112650500D01*
X111064071Y-112650500D01*
X111148615Y-112633682D01*
X111189744Y-112625501D01*
X111308127Y-112576465D01*
X111414669Y-112505277D01*
X113767102Y-110152844D01*
X119700000Y-110152844D01*
X119706401Y-110212372D01*
X119706403Y-110212379D01*
X119756645Y-110347086D01*
X119756649Y-110347093D01*
X119842809Y-110462187D01*
X119842812Y-110462190D01*
X119957906Y-110548350D01*
X119957913Y-110548354D01*
X120092620Y-110598596D01*
X120092627Y-110598598D01*
X120152155Y-110604999D01*
X120152172Y-110605000D01*
X121250000Y-110605000D01*
X121250000Y-109405001D01*
X121310402Y-109430021D01*
X121435981Y-109455000D01*
X121564019Y-109455000D01*
X121689598Y-109430021D01*
X121750000Y-109405001D01*
X121750000Y-110605000D01*
X122847828Y-110605000D01*
X122847844Y-110604999D01*
X122907372Y-110598598D01*
X122907379Y-110598596D01*
X123042086Y-110548354D01*
X123042093Y-110548350D01*
X123157187Y-110462190D01*
X123157190Y-110462187D01*
X123243350Y-110347093D01*
X123243354Y-110347086D01*
X123293596Y-110212379D01*
X123293598Y-110212372D01*
X123299999Y-110152844D01*
X123300000Y-110152827D01*
X123300000Y-109055000D01*
X122100001Y-109055000D01*
X122125021Y-108994598D01*
X122150000Y-108869019D01*
X122150000Y-108805004D01*
X124694451Y-108805004D01*
X124714616Y-109074101D01*
X124774664Y-109337188D01*
X124774666Y-109337195D01*
X124820901Y-109455000D01*
X124873257Y-109588398D01*
X125008185Y-109822102D01*
X125067944Y-109897037D01*
X125176442Y-110033089D01*
X125363183Y-110206358D01*
X125374259Y-110216635D01*
X125597226Y-110368651D01*
X125840359Y-110485738D01*
X126098228Y-110565280D01*
X126098229Y-110565280D01*
X126098232Y-110565281D01*
X126365063Y-110605499D01*
X126365068Y-110605499D01*
X126365071Y-110605500D01*
X126365072Y-110605500D01*
X126634928Y-110605500D01*
X126634929Y-110605500D01*
X126634936Y-110605499D01*
X126901767Y-110565281D01*
X126901768Y-110565280D01*
X126901772Y-110565280D01*
X127159641Y-110485738D01*
X127402775Y-110368651D01*
X127625741Y-110216635D01*
X127823561Y-110033085D01*
X127991815Y-109822102D01*
X128126743Y-109588398D01*
X128225334Y-109337195D01*
X128285383Y-109074103D01*
X128305549Y-108805000D01*
X128303675Y-108779998D01*
X128287145Y-108559407D01*
X128285383Y-108535897D01*
X128225334Y-108272805D01*
X128126743Y-108021602D01*
X127991815Y-107787898D01*
X127823561Y-107576915D01*
X127823560Y-107576914D01*
X127823557Y-107576910D01*
X127625741Y-107393365D01*
X127402775Y-107241349D01*
X127402769Y-107241346D01*
X127402768Y-107241345D01*
X127402767Y-107241344D01*
X127159643Y-107124263D01*
X127159645Y-107124263D01*
X126901773Y-107044720D01*
X126901767Y-107044718D01*
X126634936Y-107004500D01*
X126634929Y-107004500D01*
X126365071Y-107004500D01*
X126365063Y-107004500D01*
X126098232Y-107044718D01*
X126098226Y-107044720D01*
X125840358Y-107124262D01*
X125597230Y-107241346D01*
X125374258Y-107393365D01*
X125176442Y-107576910D01*
X125008185Y-107787898D01*
X124873258Y-108021599D01*
X124873256Y-108021603D01*
X124774666Y-108272804D01*
X124774664Y-108272811D01*
X124714616Y-108535898D01*
X124694451Y-108804995D01*
X124694451Y-108805004D01*
X122150000Y-108805004D01*
X122150000Y-108740981D01*
X122125021Y-108615402D01*
X122100001Y-108555000D01*
X123300000Y-108555000D01*
X123300000Y-107457172D01*
X123299999Y-107457155D01*
X123293598Y-107397627D01*
X123293596Y-107397618D01*
X123243354Y-107262913D01*
X123243350Y-107262906D01*
X123157190Y-107147812D01*
X123157187Y-107147809D01*
X123042093Y-107061649D01*
X123042086Y-107061645D01*
X122907379Y-107011403D01*
X122907372Y-107011401D01*
X122847844Y-107005000D01*
X121750000Y-107005000D01*
X121750000Y-108204998D01*
X121689598Y-108179979D01*
X121564019Y-108155000D01*
X121435981Y-108155000D01*
X121310402Y-108179979D01*
X121250000Y-108204998D01*
X121250000Y-107005000D01*
X120152155Y-107005000D01*
X120092627Y-107011401D01*
X120092620Y-107011403D01*
X119957913Y-107061645D01*
X119957906Y-107061649D01*
X119842812Y-107147809D01*
X119842809Y-107147812D01*
X119756649Y-107262906D01*
X119756645Y-107262913D01*
X119706404Y-107397618D01*
X119706401Y-107397627D01*
X119700000Y-107457155D01*
X119700000Y-108555000D01*
X120899999Y-108555000D01*
X120874979Y-108615402D01*
X120850000Y-108740981D01*
X120850000Y-108869019D01*
X120874979Y-108994598D01*
X120899999Y-109055000D01*
X119700000Y-109055000D01*
X119700000Y-110152844D01*
X113767102Y-110152844D01*
X126085028Y-97834916D01*
X126146349Y-97801433D01*
X126185961Y-97799310D01*
X126197027Y-97800500D01*
X127892772Y-97800499D01*
X127952383Y-97794091D01*
X128087231Y-97743796D01*
X128202446Y-97657546D01*
X128209250Y-97648455D01*
X128265180Y-97606584D01*
X128334871Y-97601597D01*
X128379640Y-97621188D01*
X128392412Y-97630130D01*
X128392418Y-97630134D01*
X128598573Y-97726265D01*
X128598582Y-97726269D01*
X128818289Y-97785139D01*
X128818300Y-97785141D01*
X129044898Y-97804966D01*
X129044902Y-97804966D01*
X129271499Y-97785141D01*
X129271510Y-97785139D01*
X129491217Y-97726269D01*
X129491231Y-97726264D01*
X129697378Y-97630136D01*
X129770371Y-97579024D01*
X129091347Y-96900000D01*
X129097561Y-96900000D01*
X129199294Y-96872741D01*
X129290506Y-96820080D01*
X129364980Y-96745606D01*
X129417641Y-96654394D01*
X129444900Y-96552661D01*
X129444900Y-96546447D01*
X130123924Y-97225471D01*
X130175036Y-97152478D01*
X130271164Y-96946331D01*
X130271169Y-96946317D01*
X130330039Y-96726610D01*
X130330041Y-96726599D01*
X130349866Y-96500002D01*
X130349866Y-96499997D01*
X130330041Y-96273400D01*
X130330039Y-96273389D01*
X130271169Y-96053682D01*
X130271164Y-96053668D01*
X130175036Y-95847521D01*
X130175032Y-95847513D01*
X130123925Y-95774526D01*
X129444900Y-96453551D01*
X129444900Y-96447339D01*
X129417641Y-96345606D01*
X129364980Y-96254394D01*
X129290506Y-96179920D01*
X129199294Y-96127259D01*
X129097561Y-96100000D01*
X129091347Y-96100000D01*
X129770372Y-95420974D01*
X129697378Y-95369863D01*
X129491231Y-95273735D01*
X129491217Y-95273730D01*
X129271510Y-95214860D01*
X129271499Y-95214858D01*
X129044902Y-95195034D01*
X129044898Y-95195034D01*
X128818300Y-95214858D01*
X128818289Y-95214860D01*
X128598582Y-95273730D01*
X128598573Y-95273734D01*
X128392412Y-95369868D01*
X128392407Y-95369871D01*
X128379636Y-95378813D01*
X128313429Y-95401138D01*
X128245663Y-95384124D01*
X128209252Y-95351546D01*
X128202446Y-95342454D01*
X128202444Y-95342453D01*
X128202444Y-95342452D01*
X128087235Y-95256206D01*
X128087228Y-95256202D01*
X127952382Y-95205908D01*
X127952383Y-95205908D01*
X127892783Y-95199501D01*
X127892781Y-95199500D01*
X127892773Y-95199500D01*
X127892765Y-95199500D01*
X127269400Y-95199500D01*
X127202361Y-95179815D01*
X127156606Y-95127011D01*
X127145400Y-95075500D01*
X127145400Y-89620379D01*
X127165085Y-89553340D01*
X127213106Y-89509894D01*
X127231363Y-89500592D01*
X127261538Y-89485217D01*
X127446566Y-89350786D01*
X127608286Y-89189066D01*
X127742717Y-89004038D01*
X127846548Y-88800258D01*
X127887208Y-88675119D01*
X127917221Y-88582749D01*
X127917221Y-88582748D01*
X127917222Y-88582745D01*
X127953000Y-88356854D01*
X127953000Y-88033146D01*
X127917222Y-87807255D01*
X127917221Y-87807251D01*
X127917221Y-87807250D01*
X127846549Y-87589744D01*
X127742716Y-87385961D01*
X127734874Y-87375167D01*
X127608286Y-87200934D01*
X127446566Y-87039214D01*
X127261538Y-86904783D01*
X127057755Y-86800950D01*
X126840248Y-86730278D01*
X126654812Y-86700908D01*
X126614354Y-86694500D01*
X126385646Y-86694500D01*
X126345188Y-86700908D01*
X126159753Y-86730278D01*
X126159750Y-86730278D01*
X125942244Y-86800950D01*
X125738461Y-86904783D01*
X125633525Y-86981024D01*
X125553434Y-87039214D01*
X125553432Y-87039216D01*
X125553431Y-87039216D01*
X125391716Y-87200931D01*
X125391709Y-87200940D01*
X125330007Y-87285864D01*
X125274677Y-87328530D01*
X125205063Y-87334508D01*
X125143269Y-87301901D01*
X125129372Y-87285863D01*
X125067907Y-87201263D01*
X125067902Y-87201257D01*
X124906242Y-87039597D01*
X124721276Y-86905211D01*
X124517568Y-86801417D01*
X124300124Y-86730765D01*
X124210000Y-86716490D01*
X124210000Y-87646517D01*
X124191591Y-87635889D01*
X124038991Y-87595000D01*
X123881009Y-87595000D01*
X123728409Y-87635889D01*
X123710000Y-87646517D01*
X123710000Y-86716490D01*
X123709999Y-86716490D01*
X123619875Y-86730765D01*
X123402431Y-86801417D01*
X123198719Y-86905213D01*
X123015939Y-87038010D01*
X122950132Y-87061490D01*
X122882079Y-87045664D01*
X122833384Y-86995558D01*
X122826875Y-86981033D01*
X122816296Y-86952669D01*
X122816295Y-86952667D01*
X122816293Y-86952664D01*
X122730047Y-86837455D01*
X122730044Y-86837452D01*
X122614835Y-86751206D01*
X122614828Y-86751202D01*
X122479982Y-86700908D01*
X122479983Y-86700908D01*
X122420383Y-86694501D01*
X122420381Y-86694500D01*
X122420373Y-86694500D01*
X122420364Y-86694500D01*
X120419629Y-86694500D01*
X120419623Y-86694501D01*
X120360016Y-86700908D01*
X120225171Y-86751202D01*
X120225164Y-86751206D01*
X120109955Y-86837452D01*
X120109952Y-86837455D01*
X120023706Y-86952664D01*
X120023702Y-86952671D01*
X119973408Y-87087517D01*
X119967001Y-87147116D01*
X119967000Y-87147135D01*
X119967000Y-89242870D01*
X119967001Y-89242876D01*
X119973408Y-89302483D01*
X120023702Y-89437328D01*
X120023706Y-89437335D01*
X120109952Y-89552544D01*
X120109955Y-89552547D01*
X120225164Y-89638793D01*
X120225171Y-89638797D01*
X120360017Y-89689091D01*
X120360016Y-89689091D01*
X120366944Y-89689835D01*
X120419627Y-89695500D01*
X122420372Y-89695499D01*
X122479983Y-89689091D01*
X122614831Y-89638796D01*
X122730046Y-89552546D01*
X122816296Y-89437331D01*
X122826872Y-89408974D01*
X122868740Y-89353041D01*
X122934204Y-89328622D01*
X123002477Y-89343472D01*
X123015940Y-89351988D01*
X123198723Y-89484788D01*
X123402429Y-89588582D01*
X123619871Y-89659234D01*
X123710000Y-89673509D01*
X123710000Y-88743482D01*
X123728409Y-88754111D01*
X123881009Y-88795000D01*
X124038991Y-88795000D01*
X124191591Y-88754111D01*
X124210000Y-88743482D01*
X124210000Y-89673508D01*
X124300128Y-89659234D01*
X124517570Y-89588582D01*
X124721276Y-89484788D01*
X124906242Y-89350402D01*
X125067905Y-89188739D01*
X125129371Y-89104137D01*
X125184701Y-89061470D01*
X125254314Y-89055491D01*
X125316109Y-89088096D01*
X125330007Y-89104134D01*
X125391714Y-89189066D01*
X125553434Y-89350786D01*
X125672549Y-89437328D01*
X125738463Y-89485218D01*
X125776694Y-89504697D01*
X125827490Y-89552670D01*
X125844400Y-89615182D01*
X125844400Y-95358561D01*
X125824715Y-95425600D01*
X125819667Y-95432872D01*
X125801104Y-95457668D01*
X125801102Y-95457671D01*
X125750808Y-95592517D01*
X125745111Y-95645513D01*
X125744401Y-95652123D01*
X125744400Y-95652135D01*
X125744400Y-96284291D01*
X125724715Y-96351330D01*
X125708081Y-96371972D01*
X110766873Y-111313181D01*
X110705550Y-111346666D01*
X110679192Y-111349500D01*
X92435929Y-111349500D01*
X92310261Y-111374497D01*
X92310255Y-111374499D01*
X92191874Y-111423534D01*
X92085326Y-111494726D01*
X92085325Y-111494727D01*
X89766873Y-113813181D01*
X89705550Y-113846666D01*
X89679192Y-113849500D01*
X70320808Y-113849500D01*
X70253769Y-113829815D01*
X70233127Y-113813181D01*
X66378306Y-109958360D01*
X66344821Y-109897037D01*
X66346213Y-109838582D01*
X66351035Y-109820591D01*
X66370334Y-109600000D01*
X66351035Y-109379409D01*
X66293723Y-109165520D01*
X66269181Y-109112890D01*
X66242187Y-109055000D01*
X66200142Y-108964833D01*
X66073132Y-108783445D01*
X65916555Y-108626868D01*
X65735167Y-108499858D01*
X65611907Y-108442381D01*
X65559468Y-108396210D01*
X65540316Y-108329017D01*
X65560531Y-108262136D01*
X65611908Y-108217618D01*
X65735167Y-108160142D01*
X65916555Y-108033132D01*
X66073132Y-107876555D01*
X66200142Y-107695167D01*
X66293723Y-107494480D01*
X66351035Y-107280591D01*
X66370334Y-107060000D01*
X66351035Y-106839409D01*
X66293723Y-106625520D01*
X66200142Y-106424833D01*
X66073132Y-106243445D01*
X65916555Y-106086868D01*
X65735167Y-105959858D01*
X65611907Y-105902381D01*
X65559468Y-105856210D01*
X65540316Y-105789017D01*
X65560531Y-105722136D01*
X65611908Y-105677618D01*
X65735167Y-105620142D01*
X65916555Y-105493132D01*
X66073132Y-105336555D01*
X66200142Y-105155167D01*
X66293723Y-104954480D01*
X66351035Y-104740591D01*
X66370334Y-104520000D01*
X66351035Y-104299409D01*
X66293723Y-104085520D01*
X66200142Y-103884833D01*
X66073132Y-103703445D01*
X65916555Y-103546868D01*
X65735167Y-103419858D01*
X65611907Y-103362381D01*
X65559468Y-103316210D01*
X65540316Y-103249017D01*
X65560531Y-103182136D01*
X65611908Y-103137618D01*
X65735167Y-103080142D01*
X65916555Y-102953132D01*
X66073132Y-102796555D01*
X66200142Y-102615167D01*
X66293723Y-102414480D01*
X66351035Y-102200591D01*
X66370334Y-101980000D01*
X66351035Y-101759409D01*
X66293723Y-101545520D01*
X66200142Y-101344833D01*
X66073132Y-101163445D01*
X65916555Y-101006868D01*
X65735167Y-100879858D01*
X65611907Y-100822381D01*
X65559468Y-100776210D01*
X65540316Y-100709017D01*
X65560531Y-100642136D01*
X65611908Y-100597618D01*
X65735167Y-100540142D01*
X65916555Y-100413132D01*
X66073132Y-100256555D01*
X66200142Y-100075167D01*
X66293723Y-99874480D01*
X66351035Y-99660591D01*
X66370334Y-99440000D01*
X66351035Y-99219409D01*
X66293723Y-99005520D01*
X66200142Y-98804833D01*
X66073132Y-98623445D01*
X65916555Y-98466868D01*
X65735167Y-98339858D01*
X65735163Y-98339856D01*
X65611317Y-98282106D01*
X65558877Y-98235934D01*
X65539725Y-98168741D01*
X65559941Y-98101859D01*
X65611317Y-98057342D01*
X65734912Y-97999708D01*
X65734914Y-97999707D01*
X65800342Y-97953894D01*
X65237575Y-97391127D01*
X65296853Y-97375245D01*
X65413147Y-97308102D01*
X65508102Y-97213147D01*
X65575245Y-97096853D01*
X65591128Y-97037575D01*
X66153894Y-97600342D01*
X66199706Y-97534915D01*
X66293250Y-97334309D01*
X66293254Y-97334300D01*
X66350538Y-97120509D01*
X66350540Y-97120499D01*
X66369832Y-96900000D01*
X66369832Y-96899999D01*
X66350540Y-96679500D01*
X66350538Y-96679490D01*
X66293254Y-96465699D01*
X66293250Y-96465690D01*
X66199707Y-96265085D01*
X66199706Y-96265083D01*
X66153894Y-96199657D01*
X66153894Y-96199656D01*
X65591127Y-96762423D01*
X65575245Y-96703147D01*
X65508102Y-96586853D01*
X65413147Y-96491898D01*
X65296853Y-96424755D01*
X65237575Y-96408872D01*
X65800342Y-95846105D01*
X65800341Y-95846103D01*
X65734919Y-95800295D01*
X65611316Y-95742657D01*
X65558877Y-95696484D01*
X65539725Y-95629291D01*
X65559941Y-95562410D01*
X65611312Y-95517895D01*
X65735167Y-95460142D01*
X65916555Y-95333132D01*
X66073132Y-95176555D01*
X66200142Y-94995167D01*
X66293723Y-94794480D01*
X66351035Y-94580591D01*
X66370334Y-94360000D01*
X66351035Y-94139409D01*
X66293723Y-93925520D01*
X66200142Y-93724833D01*
X66073132Y-93543445D01*
X65916555Y-93386868D01*
X65735167Y-93259858D01*
X65611907Y-93202381D01*
X65559468Y-93156210D01*
X65540316Y-93089017D01*
X65560531Y-93022136D01*
X65611908Y-92977618D01*
X65735167Y-92920142D01*
X65916555Y-92793132D01*
X66073132Y-92636555D01*
X66200142Y-92455167D01*
X66293723Y-92254480D01*
X66351035Y-92040591D01*
X66370334Y-91820000D01*
X66351035Y-91599409D01*
X66293723Y-91385520D01*
X66200142Y-91184833D01*
X66073132Y-91003445D01*
X65916555Y-90846868D01*
X65735167Y-90719858D01*
X65611907Y-90662381D01*
X65559468Y-90616210D01*
X65540316Y-90549017D01*
X65560531Y-90482136D01*
X65611908Y-90437618D01*
X65735167Y-90380142D01*
X65916555Y-90253132D01*
X66073132Y-90096555D01*
X66200142Y-89915167D01*
X66293723Y-89714480D01*
X66351035Y-89500591D01*
X66370334Y-89280000D01*
X66351035Y-89059409D01*
X66293723Y-88845520D01*
X66200142Y-88644833D01*
X66073132Y-88463445D01*
X65916555Y-88306868D01*
X65735167Y-88179858D01*
X65611907Y-88122381D01*
X65559468Y-88076210D01*
X65540316Y-88009017D01*
X65560531Y-87942136D01*
X65611908Y-87897618D01*
X65735167Y-87840142D01*
X65916555Y-87713132D01*
X66073132Y-87556555D01*
X66200142Y-87375167D01*
X66293723Y-87174480D01*
X66351035Y-86960591D01*
X66370334Y-86740000D01*
X66369483Y-86730278D01*
X66366353Y-86694500D01*
X66351035Y-86519409D01*
X66331270Y-86445646D01*
X66332932Y-86375796D01*
X66363361Y-86325872D01*
X86697416Y-65991819D01*
X86758739Y-65958334D01*
X86785097Y-65955500D01*
X89152720Y-65955500D01*
X89219759Y-65975185D01*
X89265514Y-66027989D01*
X89275458Y-66097147D01*
X89272495Y-66111593D01*
X89248966Y-66199403D01*
X89248964Y-66199414D01*
X89229666Y-66419998D01*
X89229666Y-66420001D01*
X89248964Y-66640585D01*
X89248965Y-66640592D01*
X89306275Y-66854475D01*
X89306279Y-66854486D01*
X89395945Y-67046776D01*
X89399858Y-67055167D01*
X89526868Y-67236555D01*
X89683445Y-67393132D01*
X89864833Y-67520142D01*
X89926828Y-67549050D01*
X89988091Y-67577618D01*
X90040531Y-67623790D01*
X90059683Y-67690983D01*
X90039467Y-67757865D01*
X89988091Y-67802382D01*
X89864836Y-67859856D01*
X89864834Y-67859857D01*
X89683444Y-67986868D01*
X89526868Y-68143444D01*
X89399857Y-68324834D01*
X89399856Y-68324836D01*
X89306279Y-68525513D01*
X89306275Y-68525524D01*
X89248965Y-68739407D01*
X89248964Y-68739414D01*
X89229666Y-68959998D01*
X89229666Y-68960001D01*
X89248964Y-69180585D01*
X89248965Y-69180592D01*
X89306275Y-69394475D01*
X89306279Y-69394486D01*
X89377216Y-69546611D01*
X89399858Y-69595167D01*
X89526868Y-69776555D01*
X89683445Y-69933132D01*
X89864833Y-70060142D01*
X89926828Y-70089050D01*
X89988091Y-70117618D01*
X90040531Y-70163790D01*
X90059683Y-70230983D01*
X90039467Y-70297865D01*
X89988091Y-70342382D01*
X89864836Y-70399856D01*
X89864834Y-70399857D01*
X89683444Y-70526868D01*
X89526868Y-70683444D01*
X89399857Y-70864834D01*
X89399856Y-70864836D01*
X89306279Y-71065513D01*
X89306275Y-71065524D01*
X89248965Y-71279407D01*
X89248964Y-71279414D01*
X89229666Y-71499998D01*
X89229666Y-71500001D01*
X89248964Y-71720585D01*
X89248965Y-71720592D01*
X89306275Y-71934475D01*
X89306279Y-71934486D01*
X89377216Y-72086611D01*
X89399858Y-72135167D01*
X89526868Y-72316555D01*
X89683445Y-72473132D01*
X89864833Y-72600142D01*
X89926828Y-72629050D01*
X89988091Y-72657618D01*
X90040531Y-72703790D01*
X90059683Y-72770983D01*
X90039467Y-72837865D01*
X89988091Y-72882382D01*
X89864836Y-72939856D01*
X89864834Y-72939857D01*
X89683444Y-73066868D01*
X89526868Y-73223444D01*
X89399857Y-73404834D01*
X89399856Y-73404836D01*
X89306279Y-73605513D01*
X89306275Y-73605524D01*
X89248965Y-73819407D01*
X89248964Y-73819414D01*
X89229666Y-74039998D01*
X89229666Y-74040001D01*
X89248964Y-74260585D01*
X89248965Y-74260592D01*
X89306275Y-74474475D01*
X89306279Y-74474486D01*
X89377216Y-74626611D01*
X89399858Y-74675167D01*
X89526868Y-74856555D01*
X89683445Y-75013132D01*
X89864833Y-75140142D01*
X89926828Y-75169050D01*
X89988091Y-75197618D01*
X90040531Y-75243790D01*
X90059683Y-75310983D01*
X90039467Y-75377865D01*
X89988091Y-75422382D01*
X89864836Y-75479856D01*
X89864834Y-75479857D01*
X89683444Y-75606868D01*
X89526868Y-75763444D01*
X89399857Y-75944834D01*
X89399856Y-75944836D01*
X89306279Y-76145513D01*
X89306275Y-76145524D01*
X89248965Y-76359407D01*
X89248964Y-76359414D01*
X89229666Y-76579998D01*
X89229666Y-76580001D01*
X89248964Y-76800585D01*
X89248965Y-76800592D01*
X89306275Y-77014475D01*
X89306279Y-77014486D01*
X89377216Y-77166611D01*
X89399858Y-77215167D01*
X89526868Y-77396555D01*
X89683445Y-77553132D01*
X89864833Y-77680142D01*
X89988682Y-77737893D01*
X90041122Y-77784065D01*
X90060274Y-77851258D01*
X90040059Y-77918139D01*
X89988683Y-77962657D01*
X89865084Y-78020293D01*
X89799657Y-78066104D01*
X90362424Y-78628871D01*
X90303147Y-78644755D01*
X90186853Y-78711898D01*
X90091898Y-78806853D01*
X90024755Y-78923147D01*
X90008871Y-78982424D01*
X89446104Y-78419657D01*
X89400293Y-78485084D01*
X89306749Y-78685690D01*
X89306745Y-78685699D01*
X89249461Y-78899490D01*
X89249459Y-78899500D01*
X89230168Y-79119999D01*
X89230168Y-79120000D01*
X89249459Y-79340499D01*
X89249461Y-79340509D01*
X89306745Y-79554300D01*
X89306749Y-79554309D01*
X89400295Y-79754919D01*
X89446103Y-79820341D01*
X89446105Y-79820342D01*
X90008871Y-79257575D01*
X90024755Y-79316853D01*
X90091898Y-79433147D01*
X90186853Y-79528102D01*
X90303147Y-79595245D01*
X90362424Y-79611128D01*
X89799656Y-80173894D01*
X89865083Y-80219706D01*
X89865085Y-80219707D01*
X89988683Y-80277342D01*
X90041122Y-80323514D01*
X90060274Y-80390708D01*
X90040058Y-80457589D01*
X89988683Y-80502106D01*
X89864833Y-80559857D01*
X89683444Y-80686868D01*
X89526868Y-80843444D01*
X89399857Y-81024834D01*
X89399856Y-81024836D01*
X89306279Y-81225513D01*
X89306275Y-81225524D01*
X89248965Y-81439407D01*
X89248964Y-81439414D01*
X89229666Y-81659998D01*
X89229666Y-81660001D01*
X89248964Y-81880585D01*
X89248965Y-81880592D01*
X89306275Y-82094475D01*
X89306279Y-82094486D01*
X89399856Y-82295163D01*
X89399858Y-82295167D01*
X89526868Y-82476555D01*
X89683445Y-82633132D01*
X89864833Y-82760142D01*
X89926828Y-82789050D01*
X89988091Y-82817618D01*
X90040531Y-82863790D01*
X90059683Y-82930983D01*
X90039467Y-82997865D01*
X89988091Y-83042382D01*
X89864836Y-83099856D01*
X89864834Y-83099857D01*
X89683444Y-83226868D01*
X89526868Y-83383444D01*
X89399857Y-83564834D01*
X89399856Y-83564836D01*
X89306279Y-83765513D01*
X89306275Y-83765524D01*
X89248965Y-83979407D01*
X89248964Y-83979414D01*
X89229666Y-84199998D01*
X89229666Y-84200001D01*
X89248964Y-84420585D01*
X89248965Y-84420592D01*
X89306275Y-84634475D01*
X89306279Y-84634486D01*
X89360938Y-84751703D01*
X89399858Y-84835167D01*
X89526868Y-85016555D01*
X89683445Y-85173132D01*
X89864833Y-85300142D01*
X89926828Y-85329050D01*
X89988091Y-85357618D01*
X90040531Y-85403790D01*
X90059683Y-85470983D01*
X90039467Y-85537865D01*
X89988091Y-85582382D01*
X89864836Y-85639856D01*
X89864834Y-85639857D01*
X89683444Y-85766868D01*
X89526868Y-85923444D01*
X89399857Y-86104834D01*
X89399856Y-86104836D01*
X89306279Y-86305513D01*
X89306275Y-86305524D01*
X89248965Y-86519407D01*
X89248964Y-86519414D01*
X89229666Y-86739998D01*
X89229666Y-86740001D01*
X89248964Y-86960585D01*
X89248965Y-86960592D01*
X89306275Y-87174475D01*
X89306279Y-87174486D01*
X89399856Y-87375163D01*
X89399858Y-87375167D01*
X89526868Y-87556555D01*
X89683445Y-87713132D01*
X89864833Y-87840142D01*
X89926828Y-87869050D01*
X89988091Y-87897618D01*
X90040531Y-87943790D01*
X90059683Y-88010983D01*
X90039467Y-88077865D01*
X89988091Y-88122382D01*
X89864836Y-88179856D01*
X89864834Y-88179857D01*
X89683444Y-88306868D01*
X89526868Y-88463444D01*
X89399857Y-88644834D01*
X89399856Y-88644836D01*
X89306279Y-88845513D01*
X89306275Y-88845524D01*
X89248965Y-89059407D01*
X89248964Y-89059414D01*
X89229666Y-89279998D01*
X89229666Y-89280001D01*
X89248964Y-89500585D01*
X89248965Y-89500592D01*
X89306275Y-89714475D01*
X89306279Y-89714486D01*
X89322357Y-89748965D01*
X89399858Y-89915167D01*
X89526868Y-90096555D01*
X89683445Y-90253132D01*
X89864833Y-90380142D01*
X89926828Y-90409050D01*
X89988091Y-90437618D01*
X90040531Y-90483790D01*
X90059683Y-90550983D01*
X90039467Y-90617865D01*
X89988091Y-90662382D01*
X89864836Y-90719856D01*
X89864834Y-90719857D01*
X89683444Y-90846868D01*
X89526868Y-91003444D01*
X89399857Y-91184834D01*
X89399856Y-91184836D01*
X89306279Y-91385513D01*
X89306275Y-91385524D01*
X89248965Y-91599407D01*
X89248964Y-91599414D01*
X89229666Y-91819998D01*
X89229666Y-91820001D01*
X89248964Y-92040585D01*
X89248965Y-92040592D01*
X89306275Y-92254475D01*
X89306279Y-92254486D01*
X89345287Y-92338139D01*
X89399858Y-92455167D01*
X89526868Y-92636555D01*
X89683445Y-92793132D01*
X89864833Y-92920142D01*
X89926828Y-92949050D01*
X89988091Y-92977618D01*
X90040531Y-93023790D01*
X90059683Y-93090983D01*
X90039467Y-93157865D01*
X89988091Y-93202382D01*
X89864836Y-93259856D01*
X89864834Y-93259857D01*
X89683444Y-93386868D01*
X89526868Y-93543444D01*
X89399857Y-93724834D01*
X89399856Y-93724836D01*
X89306279Y-93925513D01*
X89306275Y-93925524D01*
X89248965Y-94139407D01*
X89248964Y-94139414D01*
X89229666Y-94359998D01*
X89229666Y-94360001D01*
X89248964Y-94580585D01*
X89248965Y-94580592D01*
X89306275Y-94794475D01*
X89306279Y-94794486D01*
X89349082Y-94886277D01*
X89399858Y-94995167D01*
X89526868Y-95176555D01*
X89683445Y-95333132D01*
X89864833Y-95460142D01*
X89926828Y-95489050D01*
X89988091Y-95517618D01*
X90040531Y-95563790D01*
X90059683Y-95630983D01*
X90039467Y-95697865D01*
X89988091Y-95742382D01*
X89864836Y-95799856D01*
X89864834Y-95799857D01*
X89683444Y-95926868D01*
X89526868Y-96083444D01*
X89399857Y-96264834D01*
X89399856Y-96264836D01*
X89306279Y-96465513D01*
X89306275Y-96465524D01*
X89248965Y-96679407D01*
X89248964Y-96679414D01*
X89229666Y-96899998D01*
X89229666Y-96900001D01*
X89248964Y-97120585D01*
X89248965Y-97120592D01*
X89306275Y-97334475D01*
X89306279Y-97334486D01*
X89349082Y-97426277D01*
X89399858Y-97535167D01*
X89526868Y-97716555D01*
X89683445Y-97873132D01*
X89864833Y-98000142D01*
X89926828Y-98029050D01*
X89988091Y-98057618D01*
X90040531Y-98103790D01*
X90059683Y-98170983D01*
X90039467Y-98237865D01*
X89988091Y-98282382D01*
X89864836Y-98339856D01*
X89864834Y-98339857D01*
X89683444Y-98466868D01*
X89526868Y-98623444D01*
X89399857Y-98804834D01*
X89399856Y-98804836D01*
X89306279Y-99005513D01*
X89306275Y-99005524D01*
X89248965Y-99219407D01*
X89248964Y-99219414D01*
X89229666Y-99439998D01*
X89229666Y-99440001D01*
X89248964Y-99660585D01*
X89248965Y-99660592D01*
X89306275Y-99874475D01*
X89306279Y-99874486D01*
X89349082Y-99966277D01*
X89399858Y-100075167D01*
X89526868Y-100256555D01*
X89683445Y-100413132D01*
X89864833Y-100540142D01*
X89926828Y-100569050D01*
X89988091Y-100597618D01*
X90040531Y-100643790D01*
X90059683Y-100710983D01*
X90039467Y-100777865D01*
X89988091Y-100822382D01*
X89864836Y-100879856D01*
X89864834Y-100879857D01*
X89683444Y-101006868D01*
X89526868Y-101163444D01*
X89399857Y-101344834D01*
X89399856Y-101344836D01*
X89306279Y-101545513D01*
X89306275Y-101545524D01*
X89248965Y-101759407D01*
X89248964Y-101759414D01*
X89229666Y-101979998D01*
X89229666Y-101980001D01*
X89248964Y-102200585D01*
X89248965Y-102200592D01*
X89306275Y-102414475D01*
X89306279Y-102414486D01*
X89349082Y-102506277D01*
X89399858Y-102615167D01*
X89526868Y-102796555D01*
X89683445Y-102953132D01*
X89864833Y-103080142D01*
X89926828Y-103109050D01*
X89988091Y-103137618D01*
X90040531Y-103183790D01*
X90059683Y-103250983D01*
X90039467Y-103317865D01*
X89988091Y-103362382D01*
X89864836Y-103419856D01*
X89864834Y-103419857D01*
X89683444Y-103546868D01*
X89526868Y-103703444D01*
X89399857Y-103884834D01*
X89399856Y-103884836D01*
X89306279Y-104085513D01*
X89306275Y-104085524D01*
X89248965Y-104299407D01*
X89248964Y-104299414D01*
X89229666Y-104519998D01*
X89229666Y-104520001D01*
X89248964Y-104740585D01*
X89248965Y-104740592D01*
X89306275Y-104954475D01*
X89306279Y-104954486D01*
X89349082Y-105046277D01*
X89399858Y-105155167D01*
X89526868Y-105336555D01*
X89683445Y-105493132D01*
X89864833Y-105620142D01*
X89926828Y-105649050D01*
X89988091Y-105677618D01*
X90040531Y-105723790D01*
X90059683Y-105790983D01*
X90039467Y-105857865D01*
X89988091Y-105902382D01*
X89864836Y-105959856D01*
X89864834Y-105959857D01*
X89683444Y-106086868D01*
X89526868Y-106243444D01*
X89399857Y-106424834D01*
X89399856Y-106424836D01*
X89306279Y-106625513D01*
X89306275Y-106625524D01*
X89248965Y-106839407D01*
X89248964Y-106839414D01*
X89229666Y-107059998D01*
X89229666Y-107060001D01*
X89248964Y-107280585D01*
X89248965Y-107280592D01*
X89306275Y-107494475D01*
X89306279Y-107494486D01*
X89349082Y-107586277D01*
X89399858Y-107695167D01*
X89526868Y-107876555D01*
X89683445Y-108033132D01*
X89864833Y-108160142D01*
X89907374Y-108179979D01*
X89988091Y-108217618D01*
X90040531Y-108263790D01*
X90059683Y-108330983D01*
X90039467Y-108397865D01*
X89988091Y-108442382D01*
X89864836Y-108499856D01*
X89864834Y-108499857D01*
X89683444Y-108626868D01*
X89526868Y-108783444D01*
X89399857Y-108964834D01*
X89399856Y-108964836D01*
X89306279Y-109165513D01*
X89306275Y-109165524D01*
X89248965Y-109379407D01*
X89248964Y-109379414D01*
X89229666Y-109599998D01*
X89229666Y-109600001D01*
X89248964Y-109820585D01*
X89248965Y-109820592D01*
X89306275Y-110034475D01*
X89306279Y-110034486D01*
X89389232Y-110212379D01*
X89399858Y-110235167D01*
X89526868Y-110416555D01*
X89683445Y-110573132D01*
X89864833Y-110700142D01*
X89985572Y-110756443D01*
X90065513Y-110793720D01*
X90065515Y-110793720D01*
X90065520Y-110793723D01*
X90279409Y-110851035D01*
X90436974Y-110864820D01*
X90499998Y-110870334D01*
X90500000Y-110870334D01*
X90500002Y-110870334D01*
X90555147Y-110865509D01*
X90720591Y-110851035D01*
X90934480Y-110793723D01*
X91135167Y-110700142D01*
X91316555Y-110573132D01*
X91473132Y-110416555D01*
X91600142Y-110235167D01*
X91693723Y-110034480D01*
X91751035Y-109820591D01*
X91770334Y-109600000D01*
X91751035Y-109379409D01*
X91693723Y-109165520D01*
X91669181Y-109112890D01*
X91642187Y-109055000D01*
X91600142Y-108964833D01*
X91473132Y-108783445D01*
X91469688Y-108780001D01*
X97443166Y-108780001D01*
X97462464Y-109000585D01*
X97462465Y-109000592D01*
X97519775Y-109214475D01*
X97519779Y-109214486D01*
X97522048Y-109219351D01*
X97613358Y-109415167D01*
X97740368Y-109596555D01*
X97896945Y-109753132D01*
X98078333Y-109880142D01*
X98199072Y-109936443D01*
X98279013Y-109973720D01*
X98279015Y-109973720D01*
X98279020Y-109973723D01*
X98492909Y-110031035D01*
X98650474Y-110044820D01*
X98713498Y-110050334D01*
X98713500Y-110050334D01*
X98713502Y-110050334D01*
X98768647Y-110045509D01*
X98934091Y-110031035D01*
X99147980Y-109973723D01*
X99348667Y-109880142D01*
X99530055Y-109753132D01*
X99686632Y-109596555D01*
X99813642Y-109415167D01*
X99907223Y-109214480D01*
X99964535Y-109000591D01*
X99983834Y-108780000D01*
X99964535Y-108559409D01*
X99907223Y-108345520D01*
X99900444Y-108330983D01*
X99847582Y-108217618D01*
X99813642Y-108144833D01*
X99686632Y-107963445D01*
X99530055Y-107806868D01*
X99348667Y-107679858D01*
X99225407Y-107622381D01*
X99172968Y-107576210D01*
X99153816Y-107509017D01*
X99174031Y-107442136D01*
X99225408Y-107397618D01*
X99234529Y-107393365D01*
X99348667Y-107340142D01*
X99530055Y-107213132D01*
X99686632Y-107056555D01*
X99813642Y-106875167D01*
X99907223Y-106674480D01*
X99964535Y-106460591D01*
X99983834Y-106240000D01*
X99964535Y-106019409D01*
X99907223Y-105805520D01*
X99900444Y-105790983D01*
X99820781Y-105620143D01*
X99813642Y-105604833D01*
X99686632Y-105423445D01*
X99530055Y-105266868D01*
X99348667Y-105139858D01*
X99225407Y-105082381D01*
X99172968Y-105036210D01*
X99153816Y-104969017D01*
X99174031Y-104902136D01*
X99225408Y-104857618D01*
X99348667Y-104800142D01*
X99530055Y-104673132D01*
X99686632Y-104516555D01*
X99813642Y-104335167D01*
X99907223Y-104134480D01*
X99964535Y-103920591D01*
X99983834Y-103700000D01*
X99964535Y-103479409D01*
X99907223Y-103265520D01*
X99900444Y-103250983D01*
X99820781Y-103080143D01*
X99813642Y-103064833D01*
X99686632Y-102883445D01*
X99530055Y-102726868D01*
X99348667Y-102599858D01*
X99225407Y-102542381D01*
X99172968Y-102496210D01*
X99153816Y-102429017D01*
X99174031Y-102362136D01*
X99225408Y-102317618D01*
X99348667Y-102260142D01*
X99530055Y-102133132D01*
X99686632Y-101976555D01*
X99813642Y-101795167D01*
X99907223Y-101594480D01*
X99964535Y-101380591D01*
X99983834Y-101160000D01*
X99964535Y-100939409D01*
X99907223Y-100725520D01*
X99900444Y-100710983D01*
X99820781Y-100540143D01*
X99813642Y-100524833D01*
X99686632Y-100343445D01*
X99530055Y-100186868D01*
X99348667Y-100059858D01*
X99225407Y-100002381D01*
X99172968Y-99956210D01*
X99153816Y-99889017D01*
X99174031Y-99822136D01*
X99225408Y-99777618D01*
X99348667Y-99720142D01*
X99530055Y-99593132D01*
X99686632Y-99436555D01*
X99813642Y-99255167D01*
X99907223Y-99054480D01*
X99964535Y-98840591D01*
X99983834Y-98620000D01*
X99964535Y-98399409D01*
X99907223Y-98185520D01*
X99900444Y-98170983D01*
X99820781Y-98000143D01*
X99813642Y-97984833D01*
X99686632Y-97803445D01*
X99530055Y-97646868D01*
X99348667Y-97519858D01*
X99225407Y-97462381D01*
X99172968Y-97416210D01*
X99153816Y-97349017D01*
X99154163Y-97347870D01*
X116546800Y-97347870D01*
X116546801Y-97347876D01*
X116553208Y-97407483D01*
X116603502Y-97542328D01*
X116603506Y-97542335D01*
X116689752Y-97657544D01*
X116689755Y-97657547D01*
X116804964Y-97743793D01*
X116804971Y-97743797D01*
X116939817Y-97794091D01*
X116939816Y-97794091D01*
X116946744Y-97794835D01*
X116999427Y-97800500D01*
X118695172Y-97800499D01*
X118754783Y-97794091D01*
X118889631Y-97743796D01*
X119004846Y-97657546D01*
X119091096Y-97542331D01*
X119141391Y-97407483D01*
X119147800Y-97347873D01*
X119147800Y-96500002D01*
X120042334Y-96500002D01*
X120062158Y-96726599D01*
X120062160Y-96726610D01*
X120121030Y-96946317D01*
X120121035Y-96946331D01*
X120217163Y-97152478D01*
X120268274Y-97225472D01*
X120947300Y-96546446D01*
X120947300Y-96552661D01*
X120974559Y-96654394D01*
X121027220Y-96745606D01*
X121101694Y-96820080D01*
X121192906Y-96872741D01*
X121294639Y-96900000D01*
X121300853Y-96900000D01*
X120621826Y-97579025D01*
X120694813Y-97630132D01*
X120694821Y-97630136D01*
X120900968Y-97726264D01*
X120900982Y-97726269D01*
X121120689Y-97785139D01*
X121120700Y-97785141D01*
X121347298Y-97804966D01*
X121347302Y-97804966D01*
X121573899Y-97785141D01*
X121573910Y-97785139D01*
X121793617Y-97726269D01*
X121793631Y-97726264D01*
X121999778Y-97630136D01*
X122072771Y-97579024D01*
X121393747Y-96900000D01*
X121399961Y-96900000D01*
X121501694Y-96872741D01*
X121592906Y-96820080D01*
X121667380Y-96745606D01*
X121720041Y-96654394D01*
X121747300Y-96552661D01*
X121747300Y-96546447D01*
X122426324Y-97225471D01*
X122477436Y-97152478D01*
X122573564Y-96946331D01*
X122573569Y-96946317D01*
X122632439Y-96726610D01*
X122632441Y-96726599D01*
X122652266Y-96500002D01*
X122652266Y-96499997D01*
X122632441Y-96273400D01*
X122632439Y-96273389D01*
X122573569Y-96053682D01*
X122573564Y-96053668D01*
X122477436Y-95847521D01*
X122477432Y-95847513D01*
X122426325Y-95774526D01*
X121747300Y-96453551D01*
X121747300Y-96447339D01*
X121720041Y-96345606D01*
X121667380Y-96254394D01*
X121592906Y-96179920D01*
X121501694Y-96127259D01*
X121399961Y-96100000D01*
X121393748Y-96100000D01*
X122072772Y-95420974D01*
X121999778Y-95369863D01*
X121793631Y-95273735D01*
X121793617Y-95273730D01*
X121573910Y-95214860D01*
X121573899Y-95214858D01*
X121347302Y-95195034D01*
X121347298Y-95195034D01*
X121120700Y-95214858D01*
X121120689Y-95214860D01*
X120900982Y-95273730D01*
X120900973Y-95273734D01*
X120694816Y-95369866D01*
X120694812Y-95369868D01*
X120621826Y-95420973D01*
X120621826Y-95420974D01*
X121300853Y-96100000D01*
X121294639Y-96100000D01*
X121192906Y-96127259D01*
X121101694Y-96179920D01*
X121027220Y-96254394D01*
X120974559Y-96345606D01*
X120947300Y-96447339D01*
X120947300Y-96453552D01*
X120268274Y-95774526D01*
X120268273Y-95774526D01*
X120217168Y-95847512D01*
X120217166Y-95847516D01*
X120121034Y-96053673D01*
X120121030Y-96053682D01*
X120062160Y-96273389D01*
X120062158Y-96273400D01*
X120042334Y-96499997D01*
X120042334Y-96500002D01*
X119147800Y-96500002D01*
X119147799Y-95652128D01*
X119141391Y-95592517D01*
X119092018Y-95460142D01*
X119091097Y-95457671D01*
X119091093Y-95457664D01*
X119004847Y-95342455D01*
X119004844Y-95342452D01*
X118889635Y-95256206D01*
X118889628Y-95256202D01*
X118754782Y-95205908D01*
X118754783Y-95205908D01*
X118695183Y-95199501D01*
X118695181Y-95199500D01*
X118695173Y-95199500D01*
X118695164Y-95199500D01*
X116999429Y-95199500D01*
X116999423Y-95199501D01*
X116939816Y-95205908D01*
X116804971Y-95256202D01*
X116804964Y-95256206D01*
X116689755Y-95342452D01*
X116689752Y-95342455D01*
X116603506Y-95457664D01*
X116603502Y-95457671D01*
X116553208Y-95592517D01*
X116547511Y-95645513D01*
X116546801Y-95652123D01*
X116546800Y-95652135D01*
X116546800Y-97347870D01*
X99154163Y-97347870D01*
X99174031Y-97282136D01*
X99225408Y-97237618D01*
X99348667Y-97180142D01*
X99530055Y-97053132D01*
X99686632Y-96896555D01*
X99813642Y-96715167D01*
X99907223Y-96514480D01*
X99964535Y-96300591D01*
X99983834Y-96080000D01*
X99981531Y-96053682D01*
X99964535Y-95859414D01*
X99964535Y-95859409D01*
X99907223Y-95645520D01*
X99900444Y-95630983D01*
X99847710Y-95517893D01*
X99813642Y-95444833D01*
X99686632Y-95263445D01*
X99530055Y-95106868D01*
X99348667Y-94979858D01*
X99348663Y-94979856D01*
X99224817Y-94922106D01*
X99172377Y-94875934D01*
X99153225Y-94808741D01*
X99173441Y-94741859D01*
X99224817Y-94697342D01*
X99348412Y-94639708D01*
X99348414Y-94639707D01*
X99413842Y-94593894D01*
X98851075Y-94031127D01*
X98910353Y-94015245D01*
X99026647Y-93948102D01*
X99121602Y-93853147D01*
X99188745Y-93736853D01*
X99204628Y-93677575D01*
X99767394Y-94240342D01*
X99813206Y-94174915D01*
X99906750Y-93974309D01*
X99906754Y-93974300D01*
X99964038Y-93760509D01*
X99964040Y-93760499D01*
X99983332Y-93540000D01*
X99983332Y-93539999D01*
X99964040Y-93319500D01*
X99964038Y-93319490D01*
X99906754Y-93105699D01*
X99906750Y-93105690D01*
X99813207Y-92905085D01*
X99813206Y-92905083D01*
X99767394Y-92839657D01*
X99767394Y-92839656D01*
X99204627Y-93402423D01*
X99188745Y-93343147D01*
X99121602Y-93226853D01*
X99026647Y-93131898D01*
X98910353Y-93064755D01*
X98851075Y-93048872D01*
X99413842Y-92486105D01*
X99413841Y-92486103D01*
X99348419Y-92440295D01*
X99224816Y-92382657D01*
X99172377Y-92336484D01*
X99153225Y-92269291D01*
X99173441Y-92202410D01*
X99224812Y-92157895D01*
X99348667Y-92100142D01*
X99530055Y-91973132D01*
X99686632Y-91816555D01*
X99813642Y-91635167D01*
X99907223Y-91434480D01*
X99964535Y-91220591D01*
X99983834Y-91000000D01*
X99964535Y-90779409D01*
X99907223Y-90565520D01*
X99900444Y-90550983D01*
X99820781Y-90380143D01*
X99813642Y-90364833D01*
X99686632Y-90183445D01*
X99530055Y-90026868D01*
X99348667Y-89899858D01*
X99348663Y-89899856D01*
X99147986Y-89806279D01*
X99147975Y-89806275D01*
X98934092Y-89748965D01*
X98934085Y-89748964D01*
X98713502Y-89729666D01*
X98713498Y-89729666D01*
X98492914Y-89748964D01*
X98492907Y-89748965D01*
X98279024Y-89806275D01*
X98279013Y-89806279D01*
X98078336Y-89899856D01*
X98078334Y-89899857D01*
X97896944Y-90026868D01*
X97740368Y-90183444D01*
X97613357Y-90364834D01*
X97613356Y-90364836D01*
X97519779Y-90565513D01*
X97519775Y-90565524D01*
X97462465Y-90779407D01*
X97462464Y-90779414D01*
X97443166Y-90999998D01*
X97443166Y-91000001D01*
X97462464Y-91220585D01*
X97462465Y-91220592D01*
X97519775Y-91434475D01*
X97519779Y-91434486D01*
X97596683Y-91599407D01*
X97613358Y-91635167D01*
X97740368Y-91816555D01*
X97896945Y-91973132D01*
X98078333Y-92100142D01*
X98202182Y-92157893D01*
X98254622Y-92204065D01*
X98273774Y-92271258D01*
X98253559Y-92338139D01*
X98202183Y-92382657D01*
X98078584Y-92440293D01*
X98013157Y-92486104D01*
X98575924Y-93048871D01*
X98516647Y-93064755D01*
X98400353Y-93131898D01*
X98305398Y-93226853D01*
X98238255Y-93343147D01*
X98222371Y-93402424D01*
X97659604Y-92839657D01*
X97613793Y-92905084D01*
X97520249Y-93105690D01*
X97520245Y-93105699D01*
X97462961Y-93319490D01*
X97462959Y-93319500D01*
X97443668Y-93539999D01*
X97443668Y-93540000D01*
X97462959Y-93760499D01*
X97462961Y-93760509D01*
X97520245Y-93974300D01*
X97520249Y-93974309D01*
X97613795Y-94174919D01*
X97659603Y-94240341D01*
X97659605Y-94240342D01*
X98222371Y-93677575D01*
X98238255Y-93736853D01*
X98305398Y-93853147D01*
X98400353Y-93948102D01*
X98516647Y-94015245D01*
X98575924Y-94031128D01*
X98013156Y-94593894D01*
X98078583Y-94639706D01*
X98078585Y-94639707D01*
X98202183Y-94697342D01*
X98254622Y-94743514D01*
X98273774Y-94810708D01*
X98253558Y-94877589D01*
X98202183Y-94922106D01*
X98078333Y-94979857D01*
X97896944Y-95106868D01*
X97740368Y-95263444D01*
X97613357Y-95444834D01*
X97613356Y-95444836D01*
X97519779Y-95645513D01*
X97519775Y-95645524D01*
X97462465Y-95859407D01*
X97462464Y-95859414D01*
X97443166Y-96079998D01*
X97443166Y-96080001D01*
X97462464Y-96300585D01*
X97462465Y-96300592D01*
X97519775Y-96514475D01*
X97519779Y-96514486D01*
X97596726Y-96679500D01*
X97613358Y-96715167D01*
X97740368Y-96896555D01*
X97896945Y-97053132D01*
X98078333Y-97180142D01*
X98140328Y-97209050D01*
X98201591Y-97237618D01*
X98254031Y-97283790D01*
X98273183Y-97350983D01*
X98252967Y-97417865D01*
X98201591Y-97462382D01*
X98078336Y-97519856D01*
X98078334Y-97519857D01*
X97896944Y-97646868D01*
X97740368Y-97803444D01*
X97613357Y-97984834D01*
X97613356Y-97984836D01*
X97519779Y-98185513D01*
X97519775Y-98185524D01*
X97462465Y-98399407D01*
X97462464Y-98399414D01*
X97443166Y-98619998D01*
X97443166Y-98620001D01*
X97462464Y-98840585D01*
X97462465Y-98840592D01*
X97519775Y-99054475D01*
X97519779Y-99054486D01*
X97596683Y-99219407D01*
X97613358Y-99255167D01*
X97740368Y-99436555D01*
X97896945Y-99593132D01*
X98078333Y-99720142D01*
X98140328Y-99749050D01*
X98201591Y-99777618D01*
X98254031Y-99823790D01*
X98273183Y-99890983D01*
X98252967Y-99957865D01*
X98201591Y-100002382D01*
X98078336Y-100059856D01*
X98078334Y-100059857D01*
X97896944Y-100186868D01*
X97740368Y-100343444D01*
X97613357Y-100524834D01*
X97613356Y-100524836D01*
X97519779Y-100725513D01*
X97519775Y-100725524D01*
X97462465Y-100939407D01*
X97462464Y-100939414D01*
X97443166Y-101159998D01*
X97443166Y-101160001D01*
X97462464Y-101380585D01*
X97462465Y-101380592D01*
X97519775Y-101594475D01*
X97519779Y-101594486D01*
X97596683Y-101759407D01*
X97613358Y-101795167D01*
X97740368Y-101976555D01*
X97896945Y-102133132D01*
X98078333Y-102260142D01*
X98140328Y-102289050D01*
X98201591Y-102317618D01*
X98254031Y-102363790D01*
X98273183Y-102430983D01*
X98252967Y-102497865D01*
X98201591Y-102542382D01*
X98078336Y-102599856D01*
X98078334Y-102599857D01*
X97896944Y-102726868D01*
X97740368Y-102883444D01*
X97613357Y-103064834D01*
X97613356Y-103064836D01*
X97519779Y-103265513D01*
X97519775Y-103265524D01*
X97462465Y-103479407D01*
X97462464Y-103479414D01*
X97443166Y-103699998D01*
X97443166Y-103700001D01*
X97462464Y-103920585D01*
X97462465Y-103920592D01*
X97519775Y-104134475D01*
X97519779Y-104134486D01*
X97596683Y-104299407D01*
X97613358Y-104335167D01*
X97740368Y-104516555D01*
X97896945Y-104673132D01*
X98078333Y-104800142D01*
X98140328Y-104829050D01*
X98201591Y-104857618D01*
X98254031Y-104903790D01*
X98273183Y-104970983D01*
X98252967Y-105037865D01*
X98201591Y-105082382D01*
X98078336Y-105139856D01*
X98078334Y-105139857D01*
X97896944Y-105266868D01*
X97740368Y-105423444D01*
X97613357Y-105604834D01*
X97613356Y-105604836D01*
X97519779Y-105805513D01*
X97519775Y-105805524D01*
X97462465Y-106019407D01*
X97462464Y-106019414D01*
X97443166Y-106239998D01*
X97443166Y-106240001D01*
X97462464Y-106460585D01*
X97462465Y-106460592D01*
X97519775Y-106674475D01*
X97519779Y-106674486D01*
X97596683Y-106839407D01*
X97613358Y-106875167D01*
X97740368Y-107056555D01*
X97896945Y-107213132D01*
X98078333Y-107340142D01*
X98140328Y-107369050D01*
X98201591Y-107397618D01*
X98254031Y-107443790D01*
X98273183Y-107510983D01*
X98252967Y-107577865D01*
X98201591Y-107622382D01*
X98078336Y-107679856D01*
X98078334Y-107679857D01*
X97896944Y-107806868D01*
X97740368Y-107963444D01*
X97613357Y-108144834D01*
X97613356Y-108144836D01*
X97519779Y-108345513D01*
X97519775Y-108345524D01*
X97462465Y-108559407D01*
X97462464Y-108559414D01*
X97443166Y-108779998D01*
X97443166Y-108780001D01*
X91469688Y-108780001D01*
X91316555Y-108626868D01*
X91135167Y-108499858D01*
X91011907Y-108442381D01*
X90959468Y-108396210D01*
X90940316Y-108329017D01*
X90960531Y-108262136D01*
X91011908Y-108217618D01*
X91135167Y-108160142D01*
X91316555Y-108033132D01*
X91473132Y-107876555D01*
X91600142Y-107695167D01*
X91693723Y-107494480D01*
X91751035Y-107280591D01*
X91770334Y-107060000D01*
X91751035Y-106839409D01*
X91693723Y-106625520D01*
X91600142Y-106424833D01*
X91473132Y-106243445D01*
X91316555Y-106086868D01*
X91135167Y-105959858D01*
X91011907Y-105902381D01*
X90959468Y-105856210D01*
X90940316Y-105789017D01*
X90960531Y-105722136D01*
X91011908Y-105677618D01*
X91135167Y-105620142D01*
X91316555Y-105493132D01*
X91473132Y-105336555D01*
X91600142Y-105155167D01*
X91693723Y-104954480D01*
X91751035Y-104740591D01*
X91770334Y-104520000D01*
X91751035Y-104299409D01*
X91693723Y-104085520D01*
X91600142Y-103884833D01*
X91473132Y-103703445D01*
X91316555Y-103546868D01*
X91135167Y-103419858D01*
X91011907Y-103362381D01*
X90959468Y-103316210D01*
X90940316Y-103249017D01*
X90960531Y-103182136D01*
X91011908Y-103137618D01*
X91135167Y-103080142D01*
X91316555Y-102953132D01*
X91473132Y-102796555D01*
X91600142Y-102615167D01*
X91693723Y-102414480D01*
X91751035Y-102200591D01*
X91770334Y-101980000D01*
X91751035Y-101759409D01*
X91693723Y-101545520D01*
X91600142Y-101344833D01*
X91473132Y-101163445D01*
X91316555Y-101006868D01*
X91135167Y-100879858D01*
X91011907Y-100822381D01*
X90959468Y-100776210D01*
X90940316Y-100709017D01*
X90960531Y-100642136D01*
X91011908Y-100597618D01*
X91135167Y-100540142D01*
X91316555Y-100413132D01*
X91473132Y-100256555D01*
X91600142Y-100075167D01*
X91693723Y-99874480D01*
X91751035Y-99660591D01*
X91770334Y-99440000D01*
X91751035Y-99219409D01*
X91693723Y-99005520D01*
X91600142Y-98804833D01*
X91473132Y-98623445D01*
X91316555Y-98466868D01*
X91135167Y-98339858D01*
X91011907Y-98282381D01*
X90959468Y-98236210D01*
X90940316Y-98169017D01*
X90960531Y-98102136D01*
X91011908Y-98057618D01*
X91012500Y-98057342D01*
X91135167Y-98000142D01*
X91316555Y-97873132D01*
X91473132Y-97716555D01*
X91600142Y-97535167D01*
X91693723Y-97334480D01*
X91751035Y-97120591D01*
X91770334Y-96900000D01*
X91766270Y-96853553D01*
X91756826Y-96745606D01*
X91751035Y-96679409D01*
X91693723Y-96465520D01*
X91689594Y-96456666D01*
X91637807Y-96345606D01*
X91600142Y-96264833D01*
X91473132Y-96083445D01*
X91316555Y-95926868D01*
X91135167Y-95799858D01*
X91011907Y-95742381D01*
X90959468Y-95696210D01*
X90940316Y-95629017D01*
X90960531Y-95562136D01*
X91011908Y-95517618D01*
X91135167Y-95460142D01*
X91316555Y-95333132D01*
X91473132Y-95176555D01*
X91600142Y-94995167D01*
X91693723Y-94794480D01*
X91751035Y-94580591D01*
X91770334Y-94360000D01*
X91751035Y-94139409D01*
X91693723Y-93925520D01*
X91600142Y-93724833D01*
X91473132Y-93543445D01*
X91316555Y-93386868D01*
X91135167Y-93259858D01*
X91011907Y-93202381D01*
X90959468Y-93156210D01*
X90940316Y-93089017D01*
X90960531Y-93022136D01*
X91011908Y-92977618D01*
X91135167Y-92920142D01*
X91316555Y-92793132D01*
X91473132Y-92636555D01*
X91600142Y-92455167D01*
X91693723Y-92254480D01*
X91751035Y-92040591D01*
X91770334Y-91820000D01*
X91751035Y-91599409D01*
X91693723Y-91385520D01*
X91600142Y-91184833D01*
X91473132Y-91003445D01*
X91316555Y-90846868D01*
X91135167Y-90719858D01*
X91011907Y-90662381D01*
X90959468Y-90616210D01*
X90940316Y-90549017D01*
X90960531Y-90482136D01*
X91011908Y-90437618D01*
X91135167Y-90380142D01*
X91316555Y-90253132D01*
X91473132Y-90096555D01*
X91600142Y-89915167D01*
X91693723Y-89714480D01*
X91751035Y-89500591D01*
X91770334Y-89280000D01*
X91751035Y-89059409D01*
X91693723Y-88845520D01*
X91600142Y-88644833D01*
X91473132Y-88463445D01*
X91316555Y-88306868D01*
X91135167Y-88179858D01*
X91011907Y-88122381D01*
X90959468Y-88076210D01*
X90940316Y-88009017D01*
X90960531Y-87942136D01*
X91011908Y-87897618D01*
X91135167Y-87840142D01*
X91316555Y-87713132D01*
X91473132Y-87556555D01*
X91600142Y-87375167D01*
X91693723Y-87174480D01*
X91751035Y-86960591D01*
X91770334Y-86740000D01*
X91769483Y-86730278D01*
X91751035Y-86519414D01*
X91751035Y-86519409D01*
X91693723Y-86305520D01*
X91600142Y-86104833D01*
X91473132Y-85923445D01*
X91316555Y-85766868D01*
X91135167Y-85639858D01*
X91011907Y-85582381D01*
X90959468Y-85536210D01*
X90940316Y-85469017D01*
X90960531Y-85402136D01*
X91011908Y-85357618D01*
X91135167Y-85300142D01*
X91316555Y-85173132D01*
X91473132Y-85016555D01*
X91600142Y-84835167D01*
X91693723Y-84634480D01*
X91751035Y-84420591D01*
X91770334Y-84200000D01*
X91751035Y-83979409D01*
X91693723Y-83765520D01*
X91685157Y-83747151D01*
X91600143Y-83564836D01*
X91600142Y-83564834D01*
X91600142Y-83564833D01*
X91473132Y-83383445D01*
X91316555Y-83226868D01*
X91135167Y-83099858D01*
X91011907Y-83042381D01*
X90959468Y-82996210D01*
X90940316Y-82929017D01*
X90960531Y-82862136D01*
X91011908Y-82817618D01*
X91135167Y-82760142D01*
X91316555Y-82633132D01*
X91473132Y-82476555D01*
X91600142Y-82295167D01*
X91693723Y-82094480D01*
X91751035Y-81880591D01*
X91770334Y-81660000D01*
X91751035Y-81439409D01*
X91693723Y-81225520D01*
X91687969Y-81213181D01*
X91600143Y-81024836D01*
X91600142Y-81024834D01*
X91600142Y-81024833D01*
X91473132Y-80843445D01*
X91316555Y-80686868D01*
X91135167Y-80559858D01*
X91135163Y-80559856D01*
X91011317Y-80502106D01*
X90958877Y-80455934D01*
X90939725Y-80388741D01*
X90959941Y-80321859D01*
X91011317Y-80277342D01*
X91134912Y-80219708D01*
X91134914Y-80219707D01*
X91200342Y-80173894D01*
X90637575Y-79611127D01*
X90696853Y-79595245D01*
X90813147Y-79528102D01*
X90908102Y-79433147D01*
X90975245Y-79316853D01*
X90991128Y-79257575D01*
X91553894Y-79820342D01*
X91599706Y-79754915D01*
X91693250Y-79554309D01*
X91693254Y-79554300D01*
X91750538Y-79340509D01*
X91750540Y-79340499D01*
X91769832Y-79120000D01*
X91769832Y-79119999D01*
X91750540Y-78899500D01*
X91750538Y-78899490D01*
X91693254Y-78685699D01*
X91693250Y-78685690D01*
X91599707Y-78485085D01*
X91599706Y-78485083D01*
X91553894Y-78419657D01*
X91553894Y-78419656D01*
X90991127Y-78982423D01*
X90975245Y-78923147D01*
X90908102Y-78806853D01*
X90813147Y-78711898D01*
X90696853Y-78644755D01*
X90637575Y-78628872D01*
X91200342Y-78066105D01*
X91200341Y-78066103D01*
X91134919Y-78020295D01*
X91011316Y-77962657D01*
X90958877Y-77916484D01*
X90939725Y-77849291D01*
X90959941Y-77782410D01*
X91011312Y-77737895D01*
X91135167Y-77680142D01*
X91316555Y-77553132D01*
X91473132Y-77396555D01*
X91600142Y-77215167D01*
X91693723Y-77014480D01*
X91751035Y-76800591D01*
X91770334Y-76580000D01*
X91751035Y-76359409D01*
X91693723Y-76145520D01*
X91600142Y-75944833D01*
X91473132Y-75763445D01*
X91316555Y-75606868D01*
X91135167Y-75479858D01*
X91011907Y-75422381D01*
X90959468Y-75376210D01*
X90940316Y-75309017D01*
X90960531Y-75242136D01*
X91011908Y-75197618D01*
X91135167Y-75140142D01*
X91316555Y-75013132D01*
X91473132Y-74856555D01*
X91600142Y-74675167D01*
X91693723Y-74474480D01*
X91751035Y-74260591D01*
X91770334Y-74040000D01*
X91751035Y-73819409D01*
X91693723Y-73605520D01*
X91600142Y-73404833D01*
X91473132Y-73223445D01*
X91316555Y-73066868D01*
X91135167Y-72939858D01*
X91011907Y-72882381D01*
X90959468Y-72836210D01*
X90940316Y-72769017D01*
X90960531Y-72702136D01*
X91011908Y-72657618D01*
X91135167Y-72600142D01*
X91316555Y-72473132D01*
X91473132Y-72316555D01*
X91600142Y-72135167D01*
X91693723Y-71934480D01*
X91751035Y-71720591D01*
X91770334Y-71500000D01*
X91751035Y-71279409D01*
X91693723Y-71065520D01*
X91678183Y-71032195D01*
X91600143Y-70864836D01*
X91600142Y-70864834D01*
X91600142Y-70864833D01*
X91473132Y-70683445D01*
X91316555Y-70526868D01*
X91135167Y-70399858D01*
X91011907Y-70342381D01*
X90959468Y-70296210D01*
X90940316Y-70229017D01*
X90960531Y-70162136D01*
X91011908Y-70117618D01*
X91135167Y-70060142D01*
X91316555Y-69933132D01*
X91473132Y-69776555D01*
X91600142Y-69595167D01*
X91693723Y-69394480D01*
X91751035Y-69180591D01*
X91770334Y-68960000D01*
X91768264Y-68936345D01*
X91762149Y-68866445D01*
X91751035Y-68739409D01*
X91693723Y-68525520D01*
X91672509Y-68480027D01*
X91600143Y-68324836D01*
X91600142Y-68324834D01*
X91600142Y-68324833D01*
X91473132Y-68143445D01*
X91316555Y-67986868D01*
X91135167Y-67859858D01*
X91011907Y-67802381D01*
X90959468Y-67756210D01*
X90940316Y-67689017D01*
X90960531Y-67622136D01*
X91011908Y-67577618D01*
X91135167Y-67520142D01*
X91316555Y-67393132D01*
X91473132Y-67236555D01*
X91594425Y-67063331D01*
X91649000Y-67019709D01*
X91718499Y-67012516D01*
X91780853Y-67044038D01*
X91783679Y-67046776D01*
X94363181Y-69626278D01*
X94396666Y-69687601D01*
X94399500Y-69713959D01*
X94399500Y-71826122D01*
X94399499Y-71826140D01*
X94399499Y-71991846D01*
X94399498Y-71991846D01*
X94437901Y-72135167D01*
X94440423Y-72144577D01*
X94461301Y-72180738D01*
X94505733Y-72257697D01*
X94519479Y-72281506D01*
X94519481Y-72281509D01*
X94638349Y-72400377D01*
X94638355Y-72400382D01*
X95652347Y-73414374D01*
X95652357Y-73414385D01*
X95656687Y-73418715D01*
X95656688Y-73418716D01*
X95711554Y-73473582D01*
X95745038Y-73534903D01*
X95740054Y-73604595D01*
X95698183Y-73660528D01*
X95696759Y-73661579D01*
X95643072Y-73700585D01*
X95520588Y-73823069D01*
X95520588Y-73823070D01*
X95520586Y-73823072D01*
X95492172Y-73862181D01*
X95418768Y-73963211D01*
X95340128Y-74117552D01*
X95286597Y-74282302D01*
X95259500Y-74453389D01*
X95259500Y-74626611D01*
X95286598Y-74797701D01*
X95340127Y-74962445D01*
X95418768Y-75116788D01*
X95520586Y-75256928D01*
X95643072Y-75379414D01*
X95783212Y-75481232D01*
X95937555Y-75559873D01*
X96102299Y-75613402D01*
X96102309Y-75613403D01*
X96106746Y-75614468D01*
X96134104Y-75624559D01*
X96242167Y-75679620D01*
X96281213Y-75699515D01*
X96332009Y-75747490D01*
X96348804Y-75815311D01*
X96326266Y-75881446D01*
X96281212Y-75920485D01*
X96134108Y-75995437D01*
X96106777Y-76005522D01*
X96102306Y-76006595D01*
X95937552Y-76060128D01*
X95783211Y-76138768D01*
X95703256Y-76196859D01*
X95643072Y-76240586D01*
X95643070Y-76240588D01*
X95643069Y-76240588D01*
X95520588Y-76363069D01*
X95520588Y-76363070D01*
X95520586Y-76363072D01*
X95476859Y-76423256D01*
X95418768Y-76503211D01*
X95340128Y-76657552D01*
X95286597Y-76822302D01*
X95273106Y-76907482D01*
X95259500Y-76993389D01*
X95259500Y-77166611D01*
X95286598Y-77337701D01*
X95340127Y-77502445D01*
X95418768Y-77656788D01*
X95520586Y-77796928D01*
X95643072Y-77919414D01*
X95783212Y-78021232D01*
X95937555Y-78099873D01*
X96102299Y-78153402D01*
X96102309Y-78153403D01*
X96106746Y-78154468D01*
X96134104Y-78164559D01*
X96208790Y-78202613D01*
X96279970Y-78238882D01*
X96279972Y-78238882D01*
X96279975Y-78238884D01*
X96374413Y-78269568D01*
X96400573Y-78278069D01*
X96458248Y-78317507D01*
X96485446Y-78381866D01*
X96473531Y-78450712D01*
X96426287Y-78502188D01*
X96362254Y-78520000D01*
X96273429Y-78520000D01*
X96102415Y-78547085D01*
X95937742Y-78600591D01*
X95783475Y-78679195D01*
X95643397Y-78780967D01*
X95520967Y-78903397D01*
X95419195Y-79043475D01*
X95340591Y-79197744D01*
X95287085Y-79362415D01*
X95285884Y-79369999D01*
X95285885Y-79370000D01*
X96444314Y-79370000D01*
X96439920Y-79374394D01*
X96387259Y-79465606D01*
X96360000Y-79567339D01*
X96360000Y-79672661D01*
X96387259Y-79774394D01*
X96439920Y-79865606D01*
X96444314Y-79870000D01*
X95285885Y-79870000D01*
X95287085Y-79877584D01*
X95340591Y-80042255D01*
X95419195Y-80196524D01*
X95520967Y-80336602D01*
X95643397Y-80459032D01*
X95783475Y-80560804D01*
X95937742Y-80639408D01*
X96102415Y-80692914D01*
X96273429Y-80720000D01*
X96510000Y-80720000D01*
X96510000Y-79935686D01*
X96514394Y-79940080D01*
X96605606Y-79992741D01*
X96707339Y-80020000D01*
X96812661Y-80020000D01*
X96914394Y-79992741D01*
X97005606Y-79940080D01*
X97010000Y-79935686D01*
X97010000Y-80720000D01*
X97246571Y-80720000D01*
X97417584Y-80692914D01*
X97582257Y-80639408D01*
X97736524Y-80560804D01*
X97876602Y-80459032D01*
X97999032Y-80336602D01*
X98100804Y-80196524D01*
X98179408Y-80042255D01*
X98232914Y-79877584D01*
X98234115Y-79870000D01*
X97075686Y-79870000D01*
X97080080Y-79865606D01*
X97132741Y-79774394D01*
X97160000Y-79672661D01*
X97160000Y-79567339D01*
X97132741Y-79465606D01*
X97080080Y-79374394D01*
X97075686Y-79370000D01*
X98234115Y-79370000D01*
X98234115Y-79369999D01*
X98232914Y-79362417D01*
X98218755Y-79318841D01*
X98216759Y-79249000D01*
X98252839Y-79189167D01*
X98315540Y-79158338D01*
X98384954Y-79166302D01*
X98424366Y-79192840D01*
X102614969Y-83383444D01*
X106685355Y-87453830D01*
X106685360Y-87453834D01*
X106824250Y-87554742D01*
X106844595Y-87569524D01*
X107019974Y-87658884D01*
X107182423Y-87711667D01*
X107207174Y-87719709D01*
X107239575Y-87724840D01*
X107401578Y-87750500D01*
X107401583Y-87750500D01*
X114098422Y-87750500D01*
X114292826Y-87719709D01*
X114313071Y-87713131D01*
X114480026Y-87658884D01*
X114655405Y-87569524D01*
X114814646Y-87453828D01*
X123453828Y-78814646D01*
X123569524Y-78655405D01*
X123656678Y-78484353D01*
X123658582Y-78480952D01*
X123658883Y-78480026D01*
X123658884Y-78480025D01*
X123719709Y-78292826D01*
X123728253Y-78238884D01*
X123737500Y-78180500D01*
X123750500Y-78098421D01*
X123750500Y-77422351D01*
X123770185Y-77355312D01*
X123822989Y-77309557D01*
X123861247Y-77299061D01*
X123907483Y-77294091D01*
X124042331Y-77243796D01*
X124157546Y-77157546D01*
X124243796Y-77042331D01*
X124294091Y-76907483D01*
X124300500Y-76847873D01*
X124300499Y-74152128D01*
X124294091Y-74092517D01*
X124274503Y-74040000D01*
X124243797Y-73957671D01*
X124243793Y-73957664D01*
X124157547Y-73842455D01*
X124157544Y-73842452D01*
X124042335Y-73756206D01*
X124042328Y-73756202D01*
X123907482Y-73705908D01*
X123907483Y-73705908D01*
X123847883Y-73699501D01*
X123847881Y-73699500D01*
X123847873Y-73699500D01*
X123847864Y-73699500D01*
X121152129Y-73699500D01*
X121152123Y-73699501D01*
X121092516Y-73705908D01*
X120957671Y-73756202D01*
X120957664Y-73756206D01*
X120842455Y-73842452D01*
X120842452Y-73842455D01*
X120756206Y-73957664D01*
X120756202Y-73957671D01*
X120705908Y-74092517D01*
X120699501Y-74152116D01*
X120699501Y-74152123D01*
X120699500Y-74152135D01*
X120699500Y-76847870D01*
X120699501Y-76847876D01*
X120705908Y-76907483D01*
X120756202Y-77042328D01*
X120756206Y-77042335D01*
X120842452Y-77157544D01*
X120842455Y-77157547D01*
X120957664Y-77243793D01*
X120957671Y-77243797D01*
X121092516Y-77294091D01*
X121138757Y-77299063D01*
X121203307Y-77325801D01*
X121243155Y-77383194D01*
X121249500Y-77422352D01*
X121249500Y-77430663D01*
X121229815Y-77497702D01*
X121213181Y-77518344D01*
X117448351Y-81283173D01*
X117387028Y-81316658D01*
X117317336Y-81311674D01*
X117261403Y-81269802D01*
X117236986Y-81204338D01*
X117238197Y-81176093D01*
X117250500Y-81098421D01*
X117250500Y-73069336D01*
X117270185Y-73002297D01*
X117286819Y-72981655D01*
X118481655Y-71786819D01*
X118542978Y-71753334D01*
X118569336Y-71750500D01*
X121151931Y-71750500D01*
X121218970Y-71770185D01*
X121236272Y-71783602D01*
X121374254Y-71911631D01*
X121374256Y-71911632D01*
X121374259Y-71911635D01*
X121597226Y-72063651D01*
X121840359Y-72180738D01*
X122098228Y-72260280D01*
X122098229Y-72260280D01*
X122098232Y-72260281D01*
X122365063Y-72300499D01*
X122365068Y-72300499D01*
X122365071Y-72300500D01*
X122365072Y-72300500D01*
X122634928Y-72300500D01*
X122634929Y-72300500D01*
X122634936Y-72300499D01*
X122901767Y-72260281D01*
X122901768Y-72260280D01*
X122901772Y-72260280D01*
X123159641Y-72180738D01*
X123402775Y-72063651D01*
X123625741Y-71911635D01*
X123823561Y-71728085D01*
X123991815Y-71517102D01*
X124126743Y-71283398D01*
X124225334Y-71032195D01*
X124285383Y-70769103D01*
X124302210Y-70544561D01*
X124305549Y-70500004D01*
X124305549Y-70499995D01*
X124285383Y-70230898D01*
X124284954Y-70229017D01*
X124225334Y-69967805D01*
X124126743Y-69716602D01*
X123991815Y-69482898D01*
X123823561Y-69271915D01*
X123823560Y-69271914D01*
X123823557Y-69271910D01*
X123625741Y-69088365D01*
X123402775Y-68936349D01*
X123402769Y-68936346D01*
X123402768Y-68936345D01*
X123402767Y-68936344D01*
X123159643Y-68819263D01*
X123159645Y-68819263D01*
X122901773Y-68739720D01*
X122901767Y-68739718D01*
X122634936Y-68699500D01*
X122634929Y-68699500D01*
X122365071Y-68699500D01*
X122365063Y-68699500D01*
X122098232Y-68739718D01*
X122098226Y-68739720D01*
X121840358Y-68819262D01*
X121597230Y-68936346D01*
X121374254Y-69088368D01*
X121236272Y-69216398D01*
X121173740Y-69247567D01*
X121151931Y-69249500D01*
X117901578Y-69249500D01*
X117707173Y-69280290D01*
X117519969Y-69341117D01*
X117344594Y-69430476D01*
X117272443Y-69482898D01*
X117185354Y-69546172D01*
X117185352Y-69546174D01*
X117185351Y-69546174D01*
X115046174Y-71685351D01*
X115046174Y-71685352D01*
X115046172Y-71685354D01*
X115020575Y-71720585D01*
X114930476Y-71844594D01*
X114841117Y-72019969D01*
X114826924Y-72063651D01*
X114819465Y-72086610D01*
X114815628Y-72098418D01*
X114780291Y-72207172D01*
X114749500Y-72401577D01*
X114749500Y-80430664D01*
X114729815Y-80497703D01*
X114713181Y-80518345D01*
X114018345Y-81213181D01*
X113957022Y-81246666D01*
X113930664Y-81249500D01*
X108569336Y-81249500D01*
X108502297Y-81229815D01*
X108481655Y-81213181D01*
X106638473Y-79369999D01*
X110525884Y-79369999D01*
X110525885Y-79370000D01*
X111684314Y-79370000D01*
X111679920Y-79374394D01*
X111627259Y-79465606D01*
X111600000Y-79567339D01*
X111600000Y-79672661D01*
X111627259Y-79774394D01*
X111679920Y-79865606D01*
X111684314Y-79870000D01*
X110525885Y-79870000D01*
X110527085Y-79877584D01*
X110580591Y-80042255D01*
X110659195Y-80196524D01*
X110760967Y-80336602D01*
X110883397Y-80459032D01*
X111023475Y-80560804D01*
X111177742Y-80639408D01*
X111342415Y-80692914D01*
X111513429Y-80720000D01*
X111750000Y-80720000D01*
X111750000Y-79935686D01*
X111754394Y-79940080D01*
X111845606Y-79992741D01*
X111947339Y-80020000D01*
X112052661Y-80020000D01*
X112154394Y-79992741D01*
X112245606Y-79940080D01*
X112250000Y-79935686D01*
X112250000Y-80720000D01*
X112486571Y-80720000D01*
X112657584Y-80692914D01*
X112822257Y-80639408D01*
X112976524Y-80560804D01*
X113116602Y-80459032D01*
X113239032Y-80336602D01*
X113340804Y-80196524D01*
X113419408Y-80042255D01*
X113472914Y-79877584D01*
X113474115Y-79870000D01*
X112315686Y-79870000D01*
X112320080Y-79865606D01*
X112372741Y-79774394D01*
X112400000Y-79672661D01*
X112400000Y-79567339D01*
X112372741Y-79465606D01*
X112320080Y-79374394D01*
X112315686Y-79370000D01*
X113474115Y-79370000D01*
X113474115Y-79369999D01*
X113472914Y-79362415D01*
X113419408Y-79197744D01*
X113340804Y-79043475D01*
X113239032Y-78903397D01*
X113116602Y-78780967D01*
X112976524Y-78679195D01*
X112822257Y-78600591D01*
X112657584Y-78547085D01*
X112486571Y-78520000D01*
X112250000Y-78520000D01*
X112250000Y-79304314D01*
X112245606Y-79299920D01*
X112154394Y-79247259D01*
X112052661Y-79220000D01*
X111947339Y-79220000D01*
X111845606Y-79247259D01*
X111754394Y-79299920D01*
X111750000Y-79304314D01*
X111750000Y-78520000D01*
X111513429Y-78520000D01*
X111342415Y-78547085D01*
X111177742Y-78600591D01*
X111023475Y-78679195D01*
X110883397Y-78780967D01*
X110760967Y-78903397D01*
X110659195Y-79043475D01*
X110580591Y-79197744D01*
X110527085Y-79362415D01*
X110525884Y-79369999D01*
X106638473Y-79369999D01*
X104435085Y-77166611D01*
X110499500Y-77166611D01*
X110526598Y-77337701D01*
X110580127Y-77502445D01*
X110658768Y-77656788D01*
X110760586Y-77796928D01*
X110883072Y-77919414D01*
X111023212Y-78021232D01*
X111177555Y-78099873D01*
X111342299Y-78153402D01*
X111513389Y-78180500D01*
X111513390Y-78180500D01*
X112486610Y-78180500D01*
X112486611Y-78180500D01*
X112657701Y-78153402D01*
X112822445Y-78099873D01*
X112976788Y-78021232D01*
X113116928Y-77919414D01*
X113239414Y-77796928D01*
X113341232Y-77656788D01*
X113419873Y-77502445D01*
X113473402Y-77337701D01*
X113500500Y-77166611D01*
X113500500Y-76993389D01*
X113473402Y-76822299D01*
X113419873Y-76657555D01*
X113341232Y-76503212D01*
X113239414Y-76363072D01*
X113116928Y-76240586D01*
X112976788Y-76138768D01*
X112822445Y-76060127D01*
X112657701Y-76006598D01*
X112657699Y-76006597D01*
X112657698Y-76006597D01*
X112526271Y-75985781D01*
X112486611Y-75979500D01*
X111513389Y-75979500D01*
X111473728Y-75985781D01*
X111342302Y-76006597D01*
X111177552Y-76060128D01*
X111023211Y-76138768D01*
X110943256Y-76196859D01*
X110883072Y-76240586D01*
X110883070Y-76240588D01*
X110883069Y-76240588D01*
X110760588Y-76363069D01*
X110760588Y-76363070D01*
X110760586Y-76363072D01*
X110716859Y-76423256D01*
X110658768Y-76503211D01*
X110580128Y-76657552D01*
X110526597Y-76822302D01*
X110513106Y-76907482D01*
X110499500Y-76993389D01*
X110499500Y-77166611D01*
X104435085Y-77166611D01*
X101895085Y-74626611D01*
X110499500Y-74626611D01*
X110526598Y-74797701D01*
X110580127Y-74962445D01*
X110658768Y-75116788D01*
X110760586Y-75256928D01*
X110883072Y-75379414D01*
X111023212Y-75481232D01*
X111177555Y-75559873D01*
X111342299Y-75613402D01*
X111513389Y-75640500D01*
X111513390Y-75640500D01*
X112486610Y-75640500D01*
X112486611Y-75640500D01*
X112657701Y-75613402D01*
X112822445Y-75559873D01*
X112976788Y-75481232D01*
X113116928Y-75379414D01*
X113239414Y-75256928D01*
X113341232Y-75116788D01*
X113419873Y-74962445D01*
X113473402Y-74797701D01*
X113500500Y-74626611D01*
X113500500Y-74453389D01*
X113473402Y-74282299D01*
X113419873Y-74117555D01*
X113341232Y-73963212D01*
X113239414Y-73823072D01*
X113116928Y-73700586D01*
X112976788Y-73598768D01*
X112822445Y-73520127D01*
X112657701Y-73466598D01*
X112657699Y-73466597D01*
X112657698Y-73466597D01*
X112526271Y-73445781D01*
X112486611Y-73439500D01*
X111513389Y-73439500D01*
X111473728Y-73445781D01*
X111342302Y-73466597D01*
X111177552Y-73520128D01*
X111023211Y-73598768D01*
X110952009Y-73650500D01*
X110883072Y-73700586D01*
X110883070Y-73700588D01*
X110883069Y-73700588D01*
X110760588Y-73823069D01*
X110760588Y-73823070D01*
X110760586Y-73823072D01*
X110732172Y-73862181D01*
X110658768Y-73963211D01*
X110580128Y-74117552D01*
X110526597Y-74282302D01*
X110499500Y-74453389D01*
X110499500Y-74626611D01*
X101895085Y-74626611D01*
X101130655Y-73862181D01*
X101097170Y-73800858D01*
X101102154Y-73731166D01*
X101144026Y-73675233D01*
X101209490Y-73650816D01*
X101218336Y-73650500D01*
X103243331Y-73650500D01*
X103243347Y-73650501D01*
X103250943Y-73650501D01*
X103409054Y-73650501D01*
X103409057Y-73650501D01*
X103561785Y-73609577D01*
X103631158Y-73569524D01*
X103698716Y-73530520D01*
X103810520Y-73418716D01*
X103810520Y-73418714D01*
X103820724Y-73408511D01*
X103820727Y-73408506D01*
X105142622Y-72086611D01*
X110499500Y-72086611D01*
X110526598Y-72257701D01*
X110580127Y-72422445D01*
X110658768Y-72576788D01*
X110760586Y-72716928D01*
X110883072Y-72839414D01*
X111023212Y-72941232D01*
X111177555Y-73019873D01*
X111342299Y-73073402D01*
X111513389Y-73100500D01*
X111513390Y-73100500D01*
X112486610Y-73100500D01*
X112486611Y-73100500D01*
X112657701Y-73073402D01*
X112822445Y-73019873D01*
X112976788Y-72941232D01*
X113116928Y-72839414D01*
X113239414Y-72716928D01*
X113341232Y-72576788D01*
X113419873Y-72422445D01*
X113473402Y-72257701D01*
X113500500Y-72086611D01*
X113500500Y-71913389D01*
X113473402Y-71742299D01*
X113419873Y-71577555D01*
X113341232Y-71423212D01*
X113239414Y-71283072D01*
X113116928Y-71160586D01*
X112976788Y-71058768D01*
X112822445Y-70980127D01*
X112657701Y-70926598D01*
X112657699Y-70926597D01*
X112657698Y-70926597D01*
X112526271Y-70905781D01*
X112486611Y-70899500D01*
X111513389Y-70899500D01*
X111473728Y-70905781D01*
X111342302Y-70926597D01*
X111177552Y-70980128D01*
X111023211Y-71058768D01*
X110943256Y-71116859D01*
X110883072Y-71160586D01*
X110883070Y-71160588D01*
X110883069Y-71160588D01*
X110760588Y-71283069D01*
X110760588Y-71283070D01*
X110760586Y-71283072D01*
X110760348Y-71283400D01*
X110658768Y-71423211D01*
X110580128Y-71577552D01*
X110526597Y-71742302D01*
X110512116Y-71833735D01*
X110499500Y-71913389D01*
X110499500Y-72086611D01*
X105142622Y-72086611D01*
X107682624Y-69546610D01*
X110499500Y-69546610D01*
X110521830Y-69687601D01*
X110526598Y-69717701D01*
X110580127Y-69882445D01*
X110658768Y-70036788D01*
X110760586Y-70176928D01*
X110883072Y-70299414D01*
X111023212Y-70401232D01*
X111177555Y-70479873D01*
X111342299Y-70533402D01*
X111513389Y-70560500D01*
X111513390Y-70560500D01*
X112486610Y-70560500D01*
X112486611Y-70560500D01*
X112657701Y-70533402D01*
X112822445Y-70479873D01*
X112976788Y-70401232D01*
X113116928Y-70299414D01*
X113239414Y-70176928D01*
X113341232Y-70036788D01*
X113419873Y-69882445D01*
X113473402Y-69717701D01*
X113500500Y-69546611D01*
X113500500Y-69373389D01*
X113473402Y-69202299D01*
X113419873Y-69037555D01*
X113341232Y-68883212D01*
X113239414Y-68743072D01*
X113116928Y-68620586D01*
X112976788Y-68518768D01*
X112822445Y-68440127D01*
X112657701Y-68386598D01*
X112657699Y-68386597D01*
X112657698Y-68386597D01*
X112526271Y-68365781D01*
X112486611Y-68359500D01*
X111513389Y-68359500D01*
X111473728Y-68365781D01*
X111342302Y-68386597D01*
X111177552Y-68440128D01*
X111023211Y-68518768D01*
X110943256Y-68576859D01*
X110883072Y-68620586D01*
X110883070Y-68620588D01*
X110883069Y-68620588D01*
X110760588Y-68743069D01*
X110760588Y-68743070D01*
X110760586Y-68743072D01*
X110716859Y-68803256D01*
X110658768Y-68883211D01*
X110580128Y-69037552D01*
X110526597Y-69202302D01*
X110499500Y-69373389D01*
X110499500Y-69546610D01*
X107682624Y-69546610D01*
X110289561Y-66939673D01*
X110350882Y-66906190D01*
X110420574Y-66911174D01*
X110476507Y-66953046D01*
X110499713Y-67007958D01*
X110510235Y-67074394D01*
X110526598Y-67177701D01*
X110580127Y-67342445D01*
X110658768Y-67496788D01*
X110760586Y-67636928D01*
X110883072Y-67759414D01*
X111023212Y-67861232D01*
X111177555Y-67939873D01*
X111342299Y-67993402D01*
X111513389Y-68020500D01*
X111513390Y-68020500D01*
X112486610Y-68020500D01*
X112486611Y-68020500D01*
X112657701Y-67993402D01*
X112822445Y-67939873D01*
X112976788Y-67861232D01*
X113116928Y-67759414D01*
X113239414Y-67636928D01*
X113341232Y-67496788D01*
X113419873Y-67342445D01*
X113473402Y-67177701D01*
X113500500Y-67006611D01*
X113500500Y-66833389D01*
X113473402Y-66662299D01*
X113419873Y-66497555D01*
X113341232Y-66343212D01*
X113239414Y-66203072D01*
X113116928Y-66080586D01*
X112976788Y-65978768D01*
X112822445Y-65900127D01*
X112657701Y-65846598D01*
X112657699Y-65846597D01*
X112657698Y-65846597D01*
X112526271Y-65825781D01*
X112486611Y-65819500D01*
X111709098Y-65819500D01*
X111642059Y-65799815D01*
X111596304Y-65747011D01*
X111586360Y-65677853D01*
X111615385Y-65614297D01*
X111621417Y-65607819D01*
X111712417Y-65516819D01*
X111773740Y-65483334D01*
X111800098Y-65480500D01*
X112486610Y-65480500D01*
X112486611Y-65480500D01*
X112657701Y-65453402D01*
X112822445Y-65399873D01*
X112976788Y-65321232D01*
X113116928Y-65219414D01*
X113239414Y-65096928D01*
X113341232Y-64956788D01*
X113419873Y-64802445D01*
X113473402Y-64637701D01*
X113500500Y-64466611D01*
X113500500Y-64293389D01*
X113473402Y-64122299D01*
X113419873Y-63957555D01*
X113341232Y-63803212D01*
X113239414Y-63663072D01*
X113116928Y-63540586D01*
X112976788Y-63438768D01*
X112822445Y-63360127D01*
X112657701Y-63306598D01*
X112657699Y-63306597D01*
X112657698Y-63306597D01*
X112519209Y-63284663D01*
X112486611Y-63279500D01*
X111513389Y-63279500D01*
X111480791Y-63284663D01*
X111342302Y-63306597D01*
X111177552Y-63360128D01*
X111023211Y-63438768D01*
X110962329Y-63483002D01*
X110883072Y-63540586D01*
X110883070Y-63540588D01*
X110883069Y-63540588D01*
X110760588Y-63663069D01*
X110760588Y-63663070D01*
X110760586Y-63663072D01*
X110746001Y-63683147D01*
X110658768Y-63803211D01*
X110580128Y-63957552D01*
X110526597Y-64122302D01*
X110499500Y-64293389D01*
X110499500Y-64466610D01*
X110526597Y-64637697D01*
X110580126Y-64802442D01*
X110580132Y-64802457D01*
X110589246Y-64820343D01*
X110602143Y-64889012D01*
X110575867Y-64953752D01*
X110566443Y-64964319D01*
X103117584Y-72413181D01*
X103056261Y-72446666D01*
X103029903Y-72449500D01*
X102618336Y-72449500D01*
X102551297Y-72429815D01*
X102505542Y-72377011D01*
X102495598Y-72307853D01*
X102524623Y-72244297D01*
X102530655Y-72237819D01*
X104241606Y-70526868D01*
X105953828Y-68814646D01*
X106069524Y-68655405D01*
X106100757Y-68594106D01*
X106158884Y-68480025D01*
X106212230Y-68315844D01*
X106212230Y-68315842D01*
X106212232Y-68315840D01*
X106215902Y-68304540D01*
X106219709Y-68292827D01*
X106240486Y-68161647D01*
X106250500Y-68098422D01*
X106250500Y-61926610D01*
X110499500Y-61926610D01*
X110525776Y-62092516D01*
X110526598Y-62097701D01*
X110580127Y-62262445D01*
X110658768Y-62416788D01*
X110760586Y-62556928D01*
X110883072Y-62679414D01*
X111023212Y-62781232D01*
X111177555Y-62859873D01*
X111342299Y-62913402D01*
X111513389Y-62940500D01*
X111513390Y-62940500D01*
X112486610Y-62940500D01*
X112486611Y-62940500D01*
X112657701Y-62913402D01*
X112822445Y-62859873D01*
X112976788Y-62781232D01*
X113116928Y-62679414D01*
X113239414Y-62556928D01*
X113341232Y-62416788D01*
X113419873Y-62262445D01*
X113473402Y-62097701D01*
X113500500Y-61926611D01*
X113500500Y-61753389D01*
X113473402Y-61582299D01*
X113419873Y-61417555D01*
X113341232Y-61263212D01*
X113239414Y-61123072D01*
X113116928Y-61000586D01*
X112976788Y-60898768D01*
X112822445Y-60820127D01*
X112657701Y-60766598D01*
X112657699Y-60766597D01*
X112657698Y-60766597D01*
X112526271Y-60745781D01*
X112486611Y-60739500D01*
X111513389Y-60739500D01*
X111473728Y-60745781D01*
X111342302Y-60766597D01*
X111177552Y-60820128D01*
X111023211Y-60898768D01*
X110976964Y-60932369D01*
X110883072Y-61000586D01*
X110883070Y-61000588D01*
X110883069Y-61000588D01*
X110760588Y-61123069D01*
X110760588Y-61123070D01*
X110760586Y-61123072D01*
X110716859Y-61183256D01*
X110658768Y-61263211D01*
X110580128Y-61417552D01*
X110526597Y-61582302D01*
X110499500Y-61753389D01*
X110499500Y-61926610D01*
X106250500Y-61926610D01*
X106250500Y-59069336D01*
X106270185Y-59002297D01*
X106286819Y-58981655D01*
X107981655Y-57286819D01*
X108042978Y-57253334D01*
X108069336Y-57250500D01*
X111430664Y-57250500D01*
X111497703Y-57270185D01*
X111518345Y-57286819D01*
X118685355Y-64453830D01*
X118685360Y-64453834D01*
X118769432Y-64514915D01*
X118844595Y-64569524D01*
X118953801Y-64625167D01*
X119019969Y-64658882D01*
X119019971Y-64658882D01*
X119019974Y-64658884D01*
X119114413Y-64689569D01*
X119207173Y-64719709D01*
X119401578Y-64750500D01*
X119401583Y-64750500D01*
X119401584Y-64750500D01*
X119598417Y-64750500D01*
X120577649Y-64750500D01*
X120644688Y-64770185D01*
X120690443Y-64822989D01*
X120700939Y-64861248D01*
X120705908Y-64907483D01*
X120756202Y-65042328D01*
X120756206Y-65042335D01*
X120842452Y-65157544D01*
X120842455Y-65157547D01*
X120957664Y-65243793D01*
X120957671Y-65243797D01*
X121092517Y-65294091D01*
X121092516Y-65294091D01*
X121099444Y-65294835D01*
X121152127Y-65300500D01*
X123847872Y-65300499D01*
X123907483Y-65294091D01*
X124042331Y-65243796D01*
X124157546Y-65157546D01*
X124243796Y-65042331D01*
X124294091Y-64907483D01*
X124300500Y-64847873D01*
X124300499Y-62152128D01*
X124294091Y-62092517D01*
X124243796Y-61957669D01*
X124243795Y-61957668D01*
X124243793Y-61957664D01*
X124157547Y-61842455D01*
X124157544Y-61842452D01*
X124042335Y-61756206D01*
X124042328Y-61756202D01*
X123907482Y-61705908D01*
X123907483Y-61705908D01*
X123847883Y-61699501D01*
X123847881Y-61699500D01*
X123847873Y-61699500D01*
X123847864Y-61699500D01*
X121152129Y-61699500D01*
X121152123Y-61699501D01*
X121092516Y-61705908D01*
X120957671Y-61756202D01*
X120957664Y-61756206D01*
X120842455Y-61842452D01*
X120842452Y-61842455D01*
X120756206Y-61957664D01*
X120756202Y-61957671D01*
X120705910Y-62092513D01*
X120705909Y-62092517D01*
X120700937Y-62138757D01*
X120674201Y-62203306D01*
X120616809Y-62243154D01*
X120577649Y-62249500D01*
X120069337Y-62249500D01*
X120002298Y-62229815D01*
X119981656Y-62213181D01*
X112814648Y-55046174D01*
X112814646Y-55046172D01*
X112655405Y-54930476D01*
X112480030Y-54841117D01*
X112292826Y-54780290D01*
X112098422Y-54749500D01*
X112098417Y-54749500D01*
X107401583Y-54749500D01*
X107401578Y-54749500D01*
X107207173Y-54780290D01*
X107019969Y-54841117D01*
X106844594Y-54930476D01*
X106753741Y-54996485D01*
X106685354Y-55046172D01*
X106685352Y-55046174D01*
X106685351Y-55046174D01*
X104462181Y-57269345D01*
X104400858Y-57302830D01*
X104331166Y-57297846D01*
X104275233Y-57255974D01*
X104250816Y-57190510D01*
X104250500Y-57181664D01*
X104250500Y-56069336D01*
X104270185Y-56002297D01*
X104286819Y-55981655D01*
X106481655Y-53786819D01*
X106542978Y-53753334D01*
X106569336Y-53750500D01*
X115930664Y-53750500D01*
X115997703Y-53770185D01*
X116018345Y-53786819D01*
X120658913Y-58427387D01*
X120692398Y-58488710D01*
X120694885Y-58505802D01*
X120714616Y-58769100D01*
X120763130Y-58981655D01*
X120774666Y-59032195D01*
X120873257Y-59283398D01*
X121008185Y-59517102D01*
X121144080Y-59687509D01*
X121176442Y-59728089D01*
X121363183Y-59901358D01*
X121374259Y-59911635D01*
X121597226Y-60063651D01*
X121840359Y-60180738D01*
X122098228Y-60260280D01*
X122098229Y-60260280D01*
X122098232Y-60260281D01*
X122365063Y-60300499D01*
X122365068Y-60300499D01*
X122365071Y-60300500D01*
X122365072Y-60300500D01*
X122634928Y-60300500D01*
X122634929Y-60300500D01*
X122634936Y-60300499D01*
X122901767Y-60260281D01*
X122901768Y-60260280D01*
X122901772Y-60260280D01*
X123159641Y-60180738D01*
X123402775Y-60063651D01*
X123625741Y-59911635D01*
X123823561Y-59728085D01*
X123991815Y-59517102D01*
X124126743Y-59283398D01*
X124225334Y-59032195D01*
X124285383Y-58769103D01*
X124292105Y-58679402D01*
X124305549Y-58500004D01*
X124305549Y-58499995D01*
X124285383Y-58230898D01*
X124225335Y-57967811D01*
X124225334Y-57967805D01*
X124126743Y-57716602D01*
X123991815Y-57482898D01*
X123823561Y-57271915D01*
X123823560Y-57271914D01*
X123823557Y-57271910D01*
X123625741Y-57088365D01*
X123402775Y-56936349D01*
X123402771Y-56936347D01*
X123402768Y-56936345D01*
X123402767Y-56936344D01*
X123159643Y-56819263D01*
X123159645Y-56819263D01*
X122901773Y-56739720D01*
X122901767Y-56739718D01*
X122634936Y-56699500D01*
X122634929Y-56699500D01*
X122519336Y-56699500D01*
X122452297Y-56679815D01*
X122431655Y-56663181D01*
X118889762Y-53121288D01*
X131149500Y-53121288D01*
X131181161Y-53361785D01*
X131243947Y-53596104D01*
X131254379Y-53621288D01*
X131336776Y-53820212D01*
X131458064Y-54030289D01*
X131458066Y-54030292D01*
X131458067Y-54030293D01*
X131605733Y-54222736D01*
X131605739Y-54222743D01*
X131777256Y-54394260D01*
X131777262Y-54394265D01*
X131969711Y-54541936D01*
X132179788Y-54663224D01*
X132403900Y-54756054D01*
X132638211Y-54818838D01*
X132807432Y-54841116D01*
X132878711Y-54850500D01*
X132878712Y-54850500D01*
X133121289Y-54850500D01*
X133192560Y-54841117D01*
X133361789Y-54818838D01*
X133596100Y-54756054D01*
X133820212Y-54663224D01*
X134030289Y-54541936D01*
X134222738Y-54394265D01*
X134394265Y-54222738D01*
X134541936Y-54030289D01*
X134663224Y-53820212D01*
X134756054Y-53596100D01*
X134818838Y-53361789D01*
X134850500Y-53121288D01*
X134850500Y-52878712D01*
X134818838Y-52638211D01*
X134756054Y-52403900D01*
X134663224Y-52179788D01*
X134541936Y-51969711D01*
X134438501Y-51834912D01*
X134394266Y-51777263D01*
X134394260Y-51777256D01*
X134222743Y-51605739D01*
X134222736Y-51605733D01*
X134030293Y-51458067D01*
X134030292Y-51458066D01*
X134030289Y-51458064D01*
X133820212Y-51336776D01*
X133820205Y-51336773D01*
X133596104Y-51243947D01*
X133361785Y-51181161D01*
X133121289Y-51149500D01*
X133121288Y-51149500D01*
X132878712Y-51149500D01*
X132878711Y-51149500D01*
X132638214Y-51181161D01*
X132403895Y-51243947D01*
X132179794Y-51336773D01*
X132179785Y-51336777D01*
X131969706Y-51458067D01*
X131777263Y-51605733D01*
X131777256Y-51605739D01*
X131605739Y-51777256D01*
X131605733Y-51777263D01*
X131458067Y-51969706D01*
X131336777Y-52179785D01*
X131336773Y-52179794D01*
X131243947Y-52403895D01*
X131181161Y-52638214D01*
X131149500Y-52878711D01*
X131149500Y-53121288D01*
X118889762Y-53121288D01*
X117314648Y-51546174D01*
X117314647Y-51546173D01*
X117314646Y-51546172D01*
X117155405Y-51430476D01*
X116980030Y-51341117D01*
X116792826Y-51280290D01*
X116598422Y-51249500D01*
X116598417Y-51249500D01*
X105901583Y-51249500D01*
X105901578Y-51249500D01*
X105707173Y-51280290D01*
X105519969Y-51341117D01*
X105344594Y-51430476D01*
X105306623Y-51458064D01*
X105185355Y-51546171D01*
X105185353Y-51546173D01*
X105185352Y-51546173D01*
X102046174Y-54685351D01*
X102046174Y-54685352D01*
X102046172Y-54685354D01*
X102019012Y-54722736D01*
X101930476Y-54844594D01*
X101840669Y-55020851D01*
X101839608Y-55024612D01*
X101780291Y-55207169D01*
X101780291Y-55207172D01*
X101749500Y-55401577D01*
X101749500Y-64930664D01*
X101729815Y-64997703D01*
X101713181Y-65018345D01*
X98558345Y-68173181D01*
X98497022Y-68206666D01*
X98470664Y-68209500D01*
X97533907Y-68209500D01*
X97466868Y-68189815D01*
X97421113Y-68137011D01*
X97411169Y-68067853D01*
X97440194Y-68004297D01*
X97495588Y-67967569D01*
X97582257Y-67939408D01*
X97736524Y-67860804D01*
X97876602Y-67759032D01*
X97999032Y-67636602D01*
X98100804Y-67496524D01*
X98179408Y-67342255D01*
X98232914Y-67177584D01*
X98234115Y-67170000D01*
X97075686Y-67170000D01*
X97080080Y-67165606D01*
X97132741Y-67074394D01*
X97160000Y-66972661D01*
X97160000Y-66867339D01*
X97132741Y-66765606D01*
X97080080Y-66674394D01*
X97075686Y-66670000D01*
X98234115Y-66670000D01*
X98234115Y-66669999D01*
X98232914Y-66662415D01*
X98179408Y-66497744D01*
X98100804Y-66343475D01*
X97999032Y-66203397D01*
X97876602Y-66080967D01*
X97736524Y-65979195D01*
X97582257Y-65900591D01*
X97417584Y-65847085D01*
X97246571Y-65820000D01*
X97010000Y-65820000D01*
X97010000Y-66604314D01*
X97005606Y-66599920D01*
X96914394Y-66547259D01*
X96812661Y-66520000D01*
X96707339Y-66520000D01*
X96605606Y-66547259D01*
X96514394Y-66599920D01*
X96510000Y-66604314D01*
X96510000Y-65820000D01*
X96273429Y-65820000D01*
X96102415Y-65847085D01*
X95937742Y-65900591D01*
X95783475Y-65979195D01*
X95643397Y-66080967D01*
X95520967Y-66203397D01*
X95419195Y-66343475D01*
X95340591Y-66497744D01*
X95287085Y-66662415D01*
X95285884Y-66669999D01*
X95285885Y-66670000D01*
X96444314Y-66670000D01*
X96439920Y-66674394D01*
X96387259Y-66765606D01*
X96360000Y-66867339D01*
X96360000Y-66972661D01*
X96387259Y-67074394D01*
X96439920Y-67165606D01*
X96444314Y-67170000D01*
X95285885Y-67170000D01*
X95287085Y-67177584D01*
X95340591Y-67342255D01*
X95419195Y-67496524D01*
X95520967Y-67636602D01*
X95643397Y-67759032D01*
X95783475Y-67860804D01*
X95937742Y-67939408D01*
X96102415Y-67992914D01*
X96273429Y-68020000D01*
X96362254Y-68020000D01*
X96429293Y-68039685D01*
X96475048Y-68092489D01*
X96484992Y-68161647D01*
X96455967Y-68225203D01*
X96400573Y-68261931D01*
X96279974Y-68301116D01*
X96279967Y-68301119D01*
X96134108Y-68375437D01*
X96106777Y-68385522D01*
X96102306Y-68386595D01*
X95937552Y-68440128D01*
X95783211Y-68518768D01*
X95703256Y-68576859D01*
X95643072Y-68620586D01*
X95643070Y-68620588D01*
X95643069Y-68620588D01*
X95520587Y-68743070D01*
X95461948Y-68823780D01*
X95406617Y-68866445D01*
X95337004Y-68872424D01*
X95275209Y-68839818D01*
X95273949Y-68838575D01*
X91428728Y-64993355D01*
X91428726Y-64993352D01*
X91309855Y-64874481D01*
X91309850Y-64874477D01*
X91185085Y-64802445D01*
X91185083Y-64802444D01*
X91172921Y-64795422D01*
X91172920Y-64795421D01*
X91053311Y-64763371D01*
X90997725Y-64731278D01*
X90637575Y-64371128D01*
X90696853Y-64355245D01*
X90813147Y-64288102D01*
X90908102Y-64193147D01*
X90975245Y-64076853D01*
X90991128Y-64017575D01*
X91553894Y-64580342D01*
X91599706Y-64514915D01*
X91693250Y-64314309D01*
X91693254Y-64314300D01*
X91750538Y-64100509D01*
X91750540Y-64100499D01*
X91769832Y-63880000D01*
X91769832Y-63879999D01*
X91750540Y-63659500D01*
X91750538Y-63659490D01*
X91693254Y-63445699D01*
X91693250Y-63445690D01*
X91599707Y-63245085D01*
X91599706Y-63245083D01*
X91553894Y-63179657D01*
X91553894Y-63179656D01*
X90991127Y-63742423D01*
X90975245Y-63683147D01*
X90908102Y-63566853D01*
X90813147Y-63471898D01*
X90696853Y-63404755D01*
X90637575Y-63388872D01*
X91200342Y-62826105D01*
X91200341Y-62826103D01*
X91134919Y-62780295D01*
X90934309Y-62686749D01*
X90934300Y-62686745D01*
X90720509Y-62629461D01*
X90720499Y-62629459D01*
X90500001Y-62610168D01*
X90499999Y-62610168D01*
X90279500Y-62629459D01*
X90279490Y-62629461D01*
X90065699Y-62686745D01*
X90065690Y-62686749D01*
X89865084Y-62780293D01*
X89799657Y-62826104D01*
X90362424Y-63388871D01*
X90303147Y-63404755D01*
X90186853Y-63471898D01*
X90091898Y-63566853D01*
X90024755Y-63683147D01*
X90008871Y-63742424D01*
X89446104Y-63179657D01*
X89400293Y-63245084D01*
X89306749Y-63445690D01*
X89306745Y-63445699D01*
X89249461Y-63659490D01*
X89249459Y-63659500D01*
X89230168Y-63879999D01*
X89230168Y-63880000D01*
X89249459Y-64100499D01*
X89249461Y-64100509D01*
X89306745Y-64314300D01*
X89306749Y-64314309D01*
X89400292Y-64514915D01*
X89431425Y-64559376D01*
X89453752Y-64625582D01*
X89436742Y-64693349D01*
X89385794Y-64741163D01*
X89329850Y-64754500D01*
X86571669Y-64754500D01*
X86571653Y-64754499D01*
X86564057Y-64754499D01*
X86405943Y-64754499D01*
X86291397Y-64785192D01*
X86253214Y-64795423D01*
X86241055Y-64802444D01*
X86241053Y-64802445D01*
X86116287Y-64874477D01*
X86116282Y-64874481D01*
X86004478Y-64986286D01*
X66570926Y-84419837D01*
X66509603Y-84453322D01*
X66439911Y-84448338D01*
X66383978Y-84406466D01*
X66359561Y-84341002D01*
X66359716Y-84321354D01*
X66370334Y-84200000D01*
X66351035Y-83979409D01*
X66293723Y-83765520D01*
X66285157Y-83747151D01*
X66200143Y-83564836D01*
X66200142Y-83564834D01*
X66200142Y-83564833D01*
X66073132Y-83383445D01*
X65916555Y-83226868D01*
X65735167Y-83099858D01*
X65611907Y-83042381D01*
X65559468Y-82996210D01*
X65540316Y-82929017D01*
X65560531Y-82862136D01*
X65611908Y-82817618D01*
X65735167Y-82760142D01*
X65916555Y-82633132D01*
X66073132Y-82476555D01*
X66200142Y-82295167D01*
X66293723Y-82094480D01*
X66351035Y-81880591D01*
X66370334Y-81660000D01*
X66351035Y-81439409D01*
X66293723Y-81225520D01*
X66287969Y-81213181D01*
X66200143Y-81024836D01*
X66200142Y-81024834D01*
X66200142Y-81024833D01*
X66073132Y-80843445D01*
X65916555Y-80686868D01*
X65735167Y-80559858D01*
X65611907Y-80502381D01*
X65559468Y-80456210D01*
X65540316Y-80389017D01*
X65560531Y-80322136D01*
X65611908Y-80277618D01*
X65612500Y-80277342D01*
X65735167Y-80220142D01*
X65916555Y-80093132D01*
X66073132Y-79936555D01*
X66200142Y-79755167D01*
X66293723Y-79554480D01*
X66351035Y-79340591D01*
X66370334Y-79120000D01*
X66351035Y-78899409D01*
X66293723Y-78685520D01*
X66279678Y-78655401D01*
X66216540Y-78520000D01*
X66200142Y-78484833D01*
X66073132Y-78303445D01*
X65916555Y-78146868D01*
X65735167Y-78019858D01*
X65611907Y-77962381D01*
X65559468Y-77916210D01*
X65540316Y-77849017D01*
X65560531Y-77782136D01*
X65611908Y-77737618D01*
X65735167Y-77680142D01*
X65916555Y-77553132D01*
X66073132Y-77396555D01*
X66200142Y-77215167D01*
X66293723Y-77014480D01*
X66351035Y-76800591D01*
X66370334Y-76580000D01*
X66351035Y-76359409D01*
X66293723Y-76145520D01*
X66200142Y-75944833D01*
X66073132Y-75763445D01*
X65916555Y-75606868D01*
X65735167Y-75479858D01*
X65611907Y-75422381D01*
X65559468Y-75376210D01*
X65540316Y-75309017D01*
X65560531Y-75242136D01*
X65611908Y-75197618D01*
X65735167Y-75140142D01*
X65916555Y-75013132D01*
X66073132Y-74856555D01*
X66200142Y-74675167D01*
X66293723Y-74474480D01*
X66351035Y-74260591D01*
X66370334Y-74040000D01*
X66351035Y-73819409D01*
X66293723Y-73605520D01*
X66200142Y-73404833D01*
X66073132Y-73223445D01*
X65916555Y-73066868D01*
X65735167Y-72939858D01*
X65611907Y-72882381D01*
X65559468Y-72836210D01*
X65540316Y-72769017D01*
X65560531Y-72702136D01*
X65611908Y-72657618D01*
X65735167Y-72600142D01*
X65916555Y-72473132D01*
X66073132Y-72316555D01*
X66200142Y-72135167D01*
X66293723Y-71934480D01*
X66351035Y-71720591D01*
X66370334Y-71500000D01*
X66351035Y-71279409D01*
X66293723Y-71065520D01*
X66278183Y-71032195D01*
X66200143Y-70864836D01*
X66200142Y-70864834D01*
X66200142Y-70864833D01*
X66073132Y-70683445D01*
X65916555Y-70526868D01*
X65735167Y-70399858D01*
X65611907Y-70342381D01*
X65559468Y-70296210D01*
X65540316Y-70229017D01*
X65560531Y-70162136D01*
X65611908Y-70117618D01*
X65735167Y-70060142D01*
X65916555Y-69933132D01*
X66073132Y-69776555D01*
X66200142Y-69595167D01*
X66293723Y-69394480D01*
X66351035Y-69180591D01*
X66370334Y-68960000D01*
X66368264Y-68936345D01*
X66362149Y-68866445D01*
X66351035Y-68739409D01*
X66293723Y-68525520D01*
X66272509Y-68480027D01*
X66200143Y-68324836D01*
X66200142Y-68324834D01*
X66200142Y-68324833D01*
X66073132Y-68143445D01*
X65916555Y-67986868D01*
X65735167Y-67859858D01*
X65611907Y-67802381D01*
X65559468Y-67756210D01*
X65540316Y-67689017D01*
X65560531Y-67622136D01*
X65611908Y-67577618D01*
X65735167Y-67520142D01*
X65916555Y-67393132D01*
X66073132Y-67236555D01*
X66200142Y-67055167D01*
X66293723Y-66854480D01*
X66351035Y-66640591D01*
X66370334Y-66420000D01*
X66351035Y-66199409D01*
X66293723Y-65985520D01*
X66200142Y-65784833D01*
X66073132Y-65603445D01*
X65916555Y-65446868D01*
X65916552Y-65446866D01*
X65916550Y-65446864D01*
X65857495Y-65405513D01*
X65808309Y-65371073D01*
X65764685Y-65316497D01*
X65757491Y-65246999D01*
X65789014Y-65184644D01*
X65849244Y-65149230D01*
X65879432Y-65145499D01*
X65912872Y-65145499D01*
X65972483Y-65139091D01*
X66107331Y-65088796D01*
X66222546Y-65002546D01*
X66308796Y-64887331D01*
X66359091Y-64752483D01*
X66365449Y-64693349D01*
X66365499Y-64692887D01*
X66365499Y-64692882D01*
X66365500Y-64692873D01*
X66365499Y-64692207D01*
X66365543Y-64692059D01*
X66365677Y-64689566D01*
X66365855Y-64689575D01*
X66365856Y-64689569D01*
X66365977Y-64689582D01*
X66366265Y-64689597D01*
X66385167Y-64625167D01*
X66437959Y-64579398D01*
X66441992Y-64577642D01*
X66520595Y-64545084D01*
X66597171Y-64493918D01*
X66643516Y-64462952D01*
X67788319Y-63318147D01*
X67849642Y-63284663D01*
X67919333Y-63289647D01*
X67975267Y-63331518D01*
X67999684Y-63396983D01*
X68000000Y-63405829D01*
X68000000Y-63999999D01*
X68000000Y-64000000D01*
X88000000Y-63500000D01*
X88000000Y-58360729D01*
X88019685Y-58293690D01*
X88072489Y-58247935D01*
X88141647Y-58237991D01*
X88205203Y-58267016D01*
X88211681Y-58273048D01*
X94837049Y-64898416D01*
X94941584Y-65002951D01*
X94941587Y-65002953D01*
X94941588Y-65002954D01*
X95000516Y-65042328D01*
X95064505Y-65085084D01*
X95064507Y-65085084D01*
X95064509Y-65085086D01*
X95073466Y-65088796D01*
X95073469Y-65088797D01*
X95093104Y-65096930D01*
X95201088Y-65141659D01*
X95317241Y-65164763D01*
X95336468Y-65168587D01*
X95346081Y-65170500D01*
X95346082Y-65170500D01*
X95346083Y-65170500D01*
X95493918Y-65170500D01*
X95542796Y-65170500D01*
X95609835Y-65190185D01*
X95630477Y-65206819D01*
X95643072Y-65219414D01*
X95783212Y-65321232D01*
X95937555Y-65399873D01*
X96102299Y-65453402D01*
X96273389Y-65480500D01*
X96273390Y-65480500D01*
X97246610Y-65480500D01*
X97246611Y-65480500D01*
X97417701Y-65453402D01*
X97582445Y-65399873D01*
X97736788Y-65321232D01*
X97876928Y-65219414D01*
X97999414Y-65096928D01*
X98101232Y-64956788D01*
X98179873Y-64802445D01*
X98233402Y-64637701D01*
X98260500Y-64466611D01*
X98260500Y-64293389D01*
X98233402Y-64122299D01*
X98179873Y-63957555D01*
X98101232Y-63803212D01*
X97999414Y-63663072D01*
X97876928Y-63540586D01*
X97736788Y-63438768D01*
X97582445Y-63360127D01*
X97417701Y-63306598D01*
X97417699Y-63306597D01*
X97417698Y-63306597D01*
X97279209Y-63284663D01*
X97246611Y-63279500D01*
X96273389Y-63279500D01*
X96240791Y-63284663D01*
X96102302Y-63306597D01*
X95937552Y-63360128D01*
X95783208Y-63438770D01*
X95704935Y-63495639D01*
X95639129Y-63519119D01*
X95571075Y-63503294D01*
X95544369Y-63483002D01*
X93987977Y-61926610D01*
X95259500Y-61926610D01*
X95285776Y-62092516D01*
X95286598Y-62097701D01*
X95340127Y-62262445D01*
X95418768Y-62416788D01*
X95520586Y-62556928D01*
X95643072Y-62679414D01*
X95783212Y-62781232D01*
X95937555Y-62859873D01*
X96102299Y-62913402D01*
X96273389Y-62940500D01*
X96273390Y-62940500D01*
X97246610Y-62940500D01*
X97246611Y-62940500D01*
X97417701Y-62913402D01*
X97582445Y-62859873D01*
X97736788Y-62781232D01*
X97876928Y-62679414D01*
X97999414Y-62556928D01*
X98101232Y-62416788D01*
X98179873Y-62262445D01*
X98233402Y-62097701D01*
X98260500Y-61926611D01*
X98260500Y-61753389D01*
X98233402Y-61582299D01*
X98179873Y-61417555D01*
X98101232Y-61263212D01*
X97999414Y-61123072D01*
X97876928Y-61000586D01*
X97736788Y-60898768D01*
X97582445Y-60820127D01*
X97417701Y-60766598D01*
X97417699Y-60766597D01*
X97417698Y-60766597D01*
X97286271Y-60745781D01*
X97246611Y-60739500D01*
X96273389Y-60739500D01*
X96233728Y-60745781D01*
X96102302Y-60766597D01*
X95937552Y-60820128D01*
X95783211Y-60898768D01*
X95736964Y-60932369D01*
X95643072Y-61000586D01*
X95643070Y-61000588D01*
X95643069Y-61000588D01*
X95520588Y-61123069D01*
X95520588Y-61123070D01*
X95520586Y-61123072D01*
X95476859Y-61183256D01*
X95418768Y-61263211D01*
X95340128Y-61417552D01*
X95286597Y-61582302D01*
X95259500Y-61753389D01*
X95259500Y-61926610D01*
X93987977Y-61926610D01*
X88036319Y-55974951D01*
X88002834Y-55913628D01*
X88000000Y-55887270D01*
X88000000Y-53500000D01*
X85612730Y-53500000D01*
X85545691Y-53480315D01*
X85525049Y-53463681D01*
X83978421Y-51917052D01*
X83978414Y-51917046D01*
X83904729Y-51867812D01*
X83904729Y-51867813D01*
X83855491Y-51834913D01*
X83718917Y-51778343D01*
X83718907Y-51778340D01*
X83573920Y-51749500D01*
X83573918Y-51749500D01*
X77619017Y-51749500D01*
X77471182Y-51749500D01*
X77471180Y-51749500D01*
X77326192Y-51778340D01*
X77326182Y-51778343D01*
X77189611Y-51834912D01*
X77189598Y-51834919D01*
X77066684Y-51917048D01*
X77066680Y-51917051D01*
X75520052Y-53463681D01*
X75458729Y-53497166D01*
X75432371Y-53500000D01*
X68000000Y-53500000D01*
X68000000Y-60932369D01*
X67980315Y-60999408D01*
X67963681Y-61020050D01*
X66300656Y-62683074D01*
X66239333Y-62716559D01*
X66169641Y-62711575D01*
X66138664Y-62694660D01*
X66107330Y-62671203D01*
X66107328Y-62671202D01*
X65972482Y-62620908D01*
X65972483Y-62620908D01*
X65912883Y-62614501D01*
X65912881Y-62614500D01*
X65912873Y-62614500D01*
X65912864Y-62614500D01*
X64287129Y-62614500D01*
X64287123Y-62614501D01*
X64227516Y-62620908D01*
X64092671Y-62671202D01*
X64092664Y-62671206D01*
X63977455Y-62757452D01*
X63977452Y-62757455D01*
X63891206Y-62872664D01*
X63891202Y-62872671D01*
X63840908Y-63007517D01*
X63834501Y-63067116D01*
X63834500Y-63067135D01*
X63834500Y-64692870D01*
X63834501Y-64692876D01*
X63840908Y-64752483D01*
X63891202Y-64887328D01*
X63891206Y-64887335D01*
X63977452Y-65002544D01*
X63977455Y-65002547D01*
X64092664Y-65088793D01*
X64092671Y-65088797D01*
X64227517Y-65139091D01*
X64227516Y-65139091D01*
X64234444Y-65139835D01*
X64287127Y-65145500D01*
X64320564Y-65145499D01*
X64387601Y-65165182D01*
X64433357Y-65217984D01*
X64443302Y-65287143D01*
X64414279Y-65350699D01*
X64391689Y-65371073D01*
X64283447Y-65446866D01*
X64283441Y-65446871D01*
X64126868Y-65603444D01*
X63999857Y-65784834D01*
X63999856Y-65784836D01*
X63906279Y-65985513D01*
X63906275Y-65985524D01*
X63848965Y-66199407D01*
X63848964Y-66199414D01*
X63829666Y-66419998D01*
X63829666Y-66420001D01*
X63848964Y-66640585D01*
X63848965Y-66640592D01*
X63906275Y-66854475D01*
X63906279Y-66854486D01*
X63995945Y-67046776D01*
X63999858Y-67055167D01*
X64126868Y-67236555D01*
X64283445Y-67393132D01*
X64464833Y-67520142D01*
X64526828Y-67549050D01*
X64588091Y-67577618D01*
X64640531Y-67623790D01*
X64659683Y-67690983D01*
X64639467Y-67757865D01*
X64588091Y-67802382D01*
X64464836Y-67859856D01*
X64464834Y-67859857D01*
X64283444Y-67986868D01*
X64126868Y-68143444D01*
X63999857Y-68324834D01*
X63999856Y-68324836D01*
X63906279Y-68525513D01*
X63906275Y-68525524D01*
X63848965Y-68739407D01*
X63848964Y-68739414D01*
X63829666Y-68959998D01*
X63829666Y-68960001D01*
X63848964Y-69180585D01*
X63848965Y-69180592D01*
X63906275Y-69394475D01*
X63906279Y-69394486D01*
X63977216Y-69546611D01*
X63999858Y-69595167D01*
X64126868Y-69776555D01*
X64283445Y-69933132D01*
X64464833Y-70060142D01*
X64526828Y-70089050D01*
X64588091Y-70117618D01*
X64640531Y-70163790D01*
X64659683Y-70230983D01*
X64639467Y-70297865D01*
X64588091Y-70342382D01*
X64464836Y-70399856D01*
X64464834Y-70399857D01*
X64283444Y-70526868D01*
X64126868Y-70683444D01*
X63999857Y-70864834D01*
X63999856Y-70864836D01*
X63906279Y-71065513D01*
X63906275Y-71065524D01*
X63848965Y-71279407D01*
X63848964Y-71279414D01*
X63829666Y-71499998D01*
X63829666Y-71500001D01*
X63848964Y-71720585D01*
X63848965Y-71720592D01*
X63906275Y-71934475D01*
X63906279Y-71934486D01*
X63977216Y-72086611D01*
X63999858Y-72135167D01*
X64126868Y-72316555D01*
X64283445Y-72473132D01*
X64464833Y-72600142D01*
X64526828Y-72629050D01*
X64588091Y-72657618D01*
X64640531Y-72703790D01*
X64659683Y-72770983D01*
X64639467Y-72837865D01*
X64588091Y-72882382D01*
X64464836Y-72939856D01*
X64464834Y-72939857D01*
X64283444Y-73066868D01*
X64126868Y-73223444D01*
X63999857Y-73404834D01*
X63999856Y-73404836D01*
X63906279Y-73605513D01*
X63906275Y-73605524D01*
X63848965Y-73819407D01*
X63848964Y-73819414D01*
X63829666Y-74039998D01*
X63829666Y-74040001D01*
X63848964Y-74260585D01*
X63848965Y-74260592D01*
X63906275Y-74474475D01*
X63906279Y-74474486D01*
X63977216Y-74626611D01*
X63999858Y-74675167D01*
X64126868Y-74856555D01*
X64283445Y-75013132D01*
X64464833Y-75140142D01*
X64526828Y-75169050D01*
X64588091Y-75197618D01*
X64640531Y-75243790D01*
X64659683Y-75310983D01*
X64639467Y-75377865D01*
X64588091Y-75422382D01*
X64464836Y-75479856D01*
X64464834Y-75479857D01*
X64283444Y-75606868D01*
X64126868Y-75763444D01*
X63999857Y-75944834D01*
X63999856Y-75944836D01*
X63906279Y-76145513D01*
X63906275Y-76145524D01*
X63848965Y-76359407D01*
X63848964Y-76359414D01*
X63829666Y-76579998D01*
X63829666Y-76580001D01*
X63848964Y-76800585D01*
X63848965Y-76800592D01*
X63906275Y-77014475D01*
X63906279Y-77014486D01*
X63977216Y-77166611D01*
X63999858Y-77215167D01*
X64126868Y-77396555D01*
X64283445Y-77553132D01*
X64464833Y-77680142D01*
X64526828Y-77709050D01*
X64588091Y-77737618D01*
X64640531Y-77783790D01*
X64659683Y-77850983D01*
X64639467Y-77917865D01*
X64588091Y-77962382D01*
X64464836Y-78019856D01*
X64464834Y-78019857D01*
X64283444Y-78146868D01*
X64126868Y-78303444D01*
X63999857Y-78484834D01*
X63999856Y-78484836D01*
X63906279Y-78685513D01*
X63906275Y-78685524D01*
X63848965Y-78899407D01*
X63848964Y-78899414D01*
X63829666Y-79119998D01*
X63829666Y-79120001D01*
X63848964Y-79340585D01*
X63848965Y-79340592D01*
X63906275Y-79554475D01*
X63906279Y-79554486D01*
X63941492Y-79630000D01*
X63999858Y-79755167D01*
X64126868Y-79936555D01*
X64283445Y-80093132D01*
X64464833Y-80220142D01*
X64526828Y-80249050D01*
X64588091Y-80277618D01*
X64640531Y-80323790D01*
X64659683Y-80390983D01*
X64639467Y-80457865D01*
X64588091Y-80502382D01*
X64464836Y-80559856D01*
X64464834Y-80559857D01*
X64283444Y-80686868D01*
X64126868Y-80843444D01*
X63999857Y-81024834D01*
X63999856Y-81024836D01*
X63906279Y-81225513D01*
X63906275Y-81225524D01*
X63848965Y-81439407D01*
X63848964Y-81439414D01*
X63829666Y-81659998D01*
X63829666Y-81660001D01*
X63848964Y-81880585D01*
X63848965Y-81880592D01*
X63906275Y-82094475D01*
X63906279Y-82094486D01*
X63999856Y-82295163D01*
X63999858Y-82295167D01*
X64126868Y-82476555D01*
X64283445Y-82633132D01*
X64464833Y-82760142D01*
X64526828Y-82789050D01*
X64588091Y-82817618D01*
X64640531Y-82863790D01*
X64659683Y-82930983D01*
X64639467Y-82997865D01*
X64588091Y-83042382D01*
X64464836Y-83099856D01*
X64464834Y-83099857D01*
X64283444Y-83226868D01*
X64126868Y-83383444D01*
X63999857Y-83564834D01*
X63999856Y-83564836D01*
X63906279Y-83765513D01*
X63906275Y-83765524D01*
X63848965Y-83979407D01*
X63848964Y-83979414D01*
X63829666Y-84199998D01*
X63829666Y-84200001D01*
X63848964Y-84420585D01*
X63848965Y-84420592D01*
X63906275Y-84634475D01*
X63906279Y-84634486D01*
X63960938Y-84751703D01*
X63999858Y-84835167D01*
X64126868Y-85016555D01*
X64283445Y-85173132D01*
X64464833Y-85300142D01*
X64526828Y-85329050D01*
X64588091Y-85357618D01*
X64640531Y-85403790D01*
X64659683Y-85470983D01*
X64639467Y-85537865D01*
X64588091Y-85582382D01*
X64464836Y-85639856D01*
X64464834Y-85639857D01*
X64283444Y-85766868D01*
X64126868Y-85923444D01*
X63999857Y-86104834D01*
X63999856Y-86104836D01*
X63906279Y-86305513D01*
X63906275Y-86305524D01*
X63848965Y-86519407D01*
X63848964Y-86519414D01*
X63829666Y-86739998D01*
X63829666Y-86740001D01*
X63848964Y-86960585D01*
X63848965Y-86960592D01*
X63906275Y-87174475D01*
X63906279Y-87174486D01*
X63999856Y-87375163D01*
X63999858Y-87375167D01*
X64126868Y-87556555D01*
X64283445Y-87713132D01*
X64464833Y-87840142D01*
X64526828Y-87869050D01*
X64588091Y-87897618D01*
X64640531Y-87943790D01*
X64659683Y-88010983D01*
X64639467Y-88077865D01*
X64588091Y-88122382D01*
X64464836Y-88179856D01*
X64464834Y-88179857D01*
X64283444Y-88306868D01*
X64126868Y-88463444D01*
X63999857Y-88644834D01*
X63999856Y-88644836D01*
X63906279Y-88845513D01*
X63906275Y-88845524D01*
X63848965Y-89059407D01*
X63848964Y-89059414D01*
X63829666Y-89279998D01*
X63829666Y-89280001D01*
X63848964Y-89500585D01*
X63848965Y-89500592D01*
X63906275Y-89714475D01*
X63906279Y-89714486D01*
X63922357Y-89748965D01*
X63999858Y-89915167D01*
X64126868Y-90096555D01*
X64283445Y-90253132D01*
X64464833Y-90380142D01*
X64526828Y-90409050D01*
X64588091Y-90437618D01*
X64640531Y-90483790D01*
X64659683Y-90550983D01*
X64639467Y-90617865D01*
X64588091Y-90662382D01*
X64464836Y-90719856D01*
X64464834Y-90719857D01*
X64283444Y-90846868D01*
X64126868Y-91003444D01*
X63999857Y-91184834D01*
X63999856Y-91184836D01*
X63906279Y-91385513D01*
X63906275Y-91385524D01*
X63848965Y-91599407D01*
X63848964Y-91599414D01*
X63829666Y-91819998D01*
X63829666Y-91820001D01*
X63848964Y-92040585D01*
X63848965Y-92040592D01*
X63906275Y-92254475D01*
X63906279Y-92254486D01*
X63945287Y-92338139D01*
X63999858Y-92455167D01*
X64126868Y-92636555D01*
X64283445Y-92793132D01*
X64464833Y-92920142D01*
X64526828Y-92949050D01*
X64588091Y-92977618D01*
X64640531Y-93023790D01*
X64659683Y-93090983D01*
X64639467Y-93157865D01*
X64588091Y-93202382D01*
X64464836Y-93259856D01*
X64464834Y-93259857D01*
X64283444Y-93386868D01*
X64126868Y-93543444D01*
X63999857Y-93724834D01*
X63999856Y-93724836D01*
X63906279Y-93925513D01*
X63906275Y-93925524D01*
X63848965Y-94139407D01*
X63848964Y-94139414D01*
X63829666Y-94359998D01*
X63829666Y-94360001D01*
X63848964Y-94580585D01*
X63848965Y-94580592D01*
X63906275Y-94794475D01*
X63906279Y-94794486D01*
X63949082Y-94886277D01*
X63999858Y-94995167D01*
X64126868Y-95176555D01*
X64283445Y-95333132D01*
X64464833Y-95460142D01*
X64588682Y-95517893D01*
X64641122Y-95564065D01*
X64660274Y-95631258D01*
X64640059Y-95698139D01*
X64588683Y-95742657D01*
X64465084Y-95800293D01*
X64399657Y-95846104D01*
X64962424Y-96408871D01*
X64903147Y-96424755D01*
X64786853Y-96491898D01*
X64691898Y-96586853D01*
X64624755Y-96703147D01*
X64608871Y-96762424D01*
X64046104Y-96199657D01*
X64000293Y-96265084D01*
X63906749Y-96465690D01*
X63906745Y-96465699D01*
X63849461Y-96679490D01*
X63849459Y-96679500D01*
X63830168Y-96899999D01*
X63830168Y-96900000D01*
X63849459Y-97120499D01*
X63849461Y-97120509D01*
X63906745Y-97334300D01*
X63906749Y-97334309D01*
X64000295Y-97534919D01*
X64046103Y-97600341D01*
X64046105Y-97600342D01*
X64608871Y-97037575D01*
X64624755Y-97096853D01*
X64691898Y-97213147D01*
X64786853Y-97308102D01*
X64903147Y-97375245D01*
X64962424Y-97391128D01*
X64399656Y-97953894D01*
X64465083Y-97999706D01*
X64465085Y-97999707D01*
X64588683Y-98057342D01*
X64641122Y-98103514D01*
X64660274Y-98170708D01*
X64640058Y-98237589D01*
X64588683Y-98282106D01*
X64464833Y-98339857D01*
X64283444Y-98466868D01*
X64126868Y-98623444D01*
X63999857Y-98804834D01*
X63999856Y-98804836D01*
X63906279Y-99005513D01*
X63906275Y-99005524D01*
X63848965Y-99219407D01*
X63848964Y-99219414D01*
X63829666Y-99439998D01*
X63829666Y-99440001D01*
X63848964Y-99660585D01*
X63848965Y-99660592D01*
X63906275Y-99874475D01*
X63906279Y-99874486D01*
X63949082Y-99966277D01*
X63999858Y-100075167D01*
X64126868Y-100256555D01*
X64283445Y-100413132D01*
X64464833Y-100540142D01*
X64526828Y-100569050D01*
X64588091Y-100597618D01*
X64640531Y-100643790D01*
X64659683Y-100710983D01*
X64639467Y-100777865D01*
X64588091Y-100822382D01*
X64464836Y-100879856D01*
X64464834Y-100879857D01*
X64283444Y-101006868D01*
X64126868Y-101163444D01*
X63999857Y-101344834D01*
X63999856Y-101344836D01*
X63906279Y-101545513D01*
X63906275Y-101545524D01*
X63848965Y-101759407D01*
X63848964Y-101759414D01*
X63829666Y-101979998D01*
X63829666Y-101980001D01*
X63848964Y-102200585D01*
X63848965Y-102200592D01*
X63906275Y-102414475D01*
X63906279Y-102414486D01*
X63949082Y-102506277D01*
X63999858Y-102615167D01*
X64126868Y-102796555D01*
X64283445Y-102953132D01*
X64464833Y-103080142D01*
X64526828Y-103109050D01*
X64588091Y-103137618D01*
X64640531Y-103183790D01*
X64659683Y-103250983D01*
X64639467Y-103317865D01*
X64588091Y-103362382D01*
X64464836Y-103419856D01*
X64464834Y-103419857D01*
X64283444Y-103546868D01*
X64126868Y-103703444D01*
X63999857Y-103884834D01*
X63999856Y-103884836D01*
X63906279Y-104085513D01*
X63906275Y-104085524D01*
X63848965Y-104299407D01*
X63848964Y-104299414D01*
X63829666Y-104519998D01*
X63829666Y-104520001D01*
X63848964Y-104740585D01*
X63848965Y-104740592D01*
X63906275Y-104954475D01*
X63906279Y-104954486D01*
X63949082Y-105046277D01*
X63999858Y-105155167D01*
X64126868Y-105336555D01*
X64283445Y-105493132D01*
X64464833Y-105620142D01*
X64526828Y-105649050D01*
X64588091Y-105677618D01*
X64640531Y-105723790D01*
X64659683Y-105790983D01*
X64639467Y-105857865D01*
X64588091Y-105902382D01*
X64464836Y-105959856D01*
X64464834Y-105959857D01*
X64283444Y-106086868D01*
X64126868Y-106243444D01*
X63999857Y-106424834D01*
X63999856Y-106424836D01*
X63906279Y-106625513D01*
X63906275Y-106625524D01*
X63848965Y-106839407D01*
X63848964Y-106839414D01*
X63829666Y-107059998D01*
X63829666Y-107060001D01*
X63848964Y-107280585D01*
X63848965Y-107280592D01*
X63906275Y-107494475D01*
X63906279Y-107494486D01*
X63949082Y-107586277D01*
X63999858Y-107695167D01*
X64126868Y-107876555D01*
X64283445Y-108033132D01*
X64464833Y-108160142D01*
X64507374Y-108179979D01*
X64588091Y-108217618D01*
X64640531Y-108263790D01*
X64659683Y-108330983D01*
X64639467Y-108397865D01*
X64588091Y-108442382D01*
X64464836Y-108499856D01*
X64464834Y-108499857D01*
X64283444Y-108626868D01*
X64126868Y-108783444D01*
X63999857Y-108964834D01*
X63999856Y-108964836D01*
X63906279Y-109165513D01*
X63906275Y-109165524D01*
X63848965Y-109379407D01*
X63848964Y-109379414D01*
X63829666Y-109599998D01*
X63829666Y-109600001D01*
X57000500Y-109600001D01*
X57000500Y-53621288D01*
X59649500Y-53621288D01*
X59681161Y-53861785D01*
X59743947Y-54096104D01*
X59796400Y-54222736D01*
X59836776Y-54320212D01*
X59958064Y-54530289D01*
X59958066Y-54530292D01*
X59958067Y-54530293D01*
X60105733Y-54722736D01*
X60105739Y-54722743D01*
X60277256Y-54894260D01*
X60277262Y-54894265D01*
X60469711Y-55041936D01*
X60679788Y-55163224D01*
X60903900Y-55256054D01*
X61138211Y-55318838D01*
X61318586Y-55342584D01*
X61378711Y-55350500D01*
X61378712Y-55350500D01*
X61621289Y-55350500D01*
X61669388Y-55344167D01*
X61861789Y-55318838D01*
X62096100Y-55256054D01*
X62320212Y-55163224D01*
X62530289Y-55041936D01*
X62722738Y-54894265D01*
X62894265Y-54722738D01*
X63041936Y-54530289D01*
X63163224Y-54320212D01*
X63256054Y-54096100D01*
X63318838Y-53861789D01*
X63350500Y-53621288D01*
X63350500Y-53378712D01*
X63318838Y-53138211D01*
X63256054Y-52903900D01*
X63163224Y-52679788D01*
X63041936Y-52469711D01*
X62894265Y-52277262D01*
X62894260Y-52277256D01*
X62722743Y-52105739D01*
X62722736Y-52105733D01*
X62530293Y-51958067D01*
X62530292Y-51958066D01*
X62530289Y-51958064D01*
X62320212Y-51836776D01*
X62315722Y-51834916D01*
X62096104Y-51743947D01*
X61861785Y-51681161D01*
X61621289Y-51649500D01*
X61621288Y-51649500D01*
X61378712Y-51649500D01*
X61378711Y-51649500D01*
X61138214Y-51681161D01*
X60903895Y-51743947D01*
X60679794Y-51836773D01*
X60679785Y-51836777D01*
X60469706Y-51958067D01*
X60277263Y-52105733D01*
X60277256Y-52105739D01*
X60105739Y-52277256D01*
X60105733Y-52277263D01*
X59958067Y-52469706D01*
X59836777Y-52679785D01*
X59836773Y-52679794D01*
X59743947Y-52903895D01*
X59681161Y-53138214D01*
X59649500Y-53378711D01*
X59649500Y-53621288D01*
X57000500Y-53621288D01*
X57000500Y-48624500D01*
X57020185Y-48557461D01*
X57072989Y-48511706D01*
X57124500Y-48500500D01*
X136875500Y-48500500D01*
X136942539Y-48520185D01*
G37*
%TD.AperFunction*%
%TD*%
D24*
X76000000Y-80500000D03*
D25*
X127044900Y-96500000D03*
X129044900Y-96500000D03*
X122500000Y-75500000D03*
X122500000Y-70500000D03*
X96760000Y-61840000D03*
X96760000Y-64380000D03*
X96760000Y-66920000D03*
X96760000Y-69460000D03*
X96760000Y-72000000D03*
X96760000Y-74540000D03*
X96760000Y-77080000D03*
X96760000Y-79620000D03*
X112000000Y-79620000D03*
X112000000Y-77080000D03*
X112000000Y-74540000D03*
X112000000Y-72000000D03*
X112000000Y-69460000D03*
X112000000Y-66920000D03*
X112000000Y-64380000D03*
X112000000Y-61840000D03*
X121500000Y-108805000D03*
X126500000Y-108805000D03*
X65100000Y-63880000D03*
X65100000Y-66420000D03*
X65100000Y-68960000D03*
X65100000Y-71500000D03*
X65100000Y-74040000D03*
X65100000Y-76580000D03*
X65100000Y-79120000D03*
X65100000Y-81660000D03*
X65100000Y-84200000D03*
X65100000Y-86740000D03*
X65100000Y-89280000D03*
X65100000Y-91820000D03*
X65100000Y-94360000D03*
X65100000Y-96900000D03*
X65100000Y-99440000D03*
X65100000Y-101980000D03*
X65100000Y-104520000D03*
X65100000Y-107060000D03*
X65100000Y-109600000D03*
X90500000Y-109600000D03*
X90500000Y-107060000D03*
X90500000Y-104520000D03*
X90500000Y-101980000D03*
X90500000Y-99440000D03*
X90500000Y-96900000D03*
X90500000Y-94360000D03*
X90500000Y-91820000D03*
X90500000Y-89280000D03*
X90500000Y-86740000D03*
X90500000Y-84200000D03*
X90500000Y-81660000D03*
X90500000Y-79120000D03*
X90500000Y-76580000D03*
X90500000Y-74040000D03*
X90500000Y-71500000D03*
X90500000Y-68960000D03*
X90500000Y-66420000D03*
X90500000Y-63880000D03*
X133000000Y-53000000D03*
X98713500Y-91000000D03*
X98713500Y-93540000D03*
X98713500Y-96080000D03*
X98713500Y-98620000D03*
X98713500Y-101160000D03*
X98713500Y-103700000D03*
X98713500Y-106240000D03*
X98713500Y-108780000D03*
X121420000Y-88195000D03*
X123960000Y-88195000D03*
X126500000Y-88195000D03*
X61500000Y-115500000D03*
X133000000Y-116500000D03*
X117847300Y-96500000D03*
X121347300Y-96500000D03*
X61500000Y-53500000D03*
X122500000Y-63500000D03*
X122500000Y-58500000D03*
M02*
