%TF.GenerationSoftware,KiCad,Pcbnew,8.0.1*%
%TF.CreationDate,2024-04-26T22:18:18+02:00*%
%TF.ProjectId,Practica1,50726163-7469-4636-9131-2e6b69636164,rev?*%
%TF.SameCoordinates,Original*%
%TF.FileFunction,Legend,Bot*%
%TF.FilePolarity,Positive*%
%FSLAX46Y46*%
G04 Gerber Fmt 4.6, Leading zero omitted, Abs format (unit mm)*
G04 Created by KiCad (PCBNEW 8.0.1) date 2024-04-26 22:18:18*
%MOMM*%
%LPD*%
G01*
G04 APERTURE LIST*
%ADD10C,0.350000*%
G04 APERTURE END LIST*
D10*
X127044900Y-96500000D03*
X129044900Y-96500000D03*
X122500000Y-75500000D03*
X122500000Y-70500000D03*
X96760000Y-61840000D03*
X96760000Y-64380000D03*
X96760000Y-66920000D03*
X96760000Y-69460000D03*
X96760000Y-72000000D03*
X96760000Y-74540000D03*
X96760000Y-77080000D03*
X96760000Y-79620000D03*
X112000000Y-79620000D03*
X112000000Y-77080000D03*
X112000000Y-74540000D03*
X112000000Y-72000000D03*
X112000000Y-69460000D03*
X112000000Y-66920000D03*
X112000000Y-64380000D03*
X112000000Y-61840000D03*
X121500000Y-108805000D03*
X126500000Y-108805000D03*
X65100000Y-63880000D03*
X65100000Y-66420000D03*
X65100000Y-68960000D03*
X65100000Y-71500000D03*
X65100000Y-74040000D03*
X65100000Y-76580000D03*
X65100000Y-79120000D03*
X65100000Y-81660000D03*
X65100000Y-84200000D03*
X65100000Y-86740000D03*
X65100000Y-89280000D03*
X65100000Y-91820000D03*
X65100000Y-94360000D03*
X65100000Y-96900000D03*
X65100000Y-99440000D03*
X65100000Y-101980000D03*
X65100000Y-104520000D03*
X65100000Y-107060000D03*
X65100000Y-109600000D03*
X90500000Y-109600000D03*
X90500000Y-107060000D03*
X90500000Y-104520000D03*
X90500000Y-101980000D03*
X90500000Y-99440000D03*
X90500000Y-96900000D03*
X90500000Y-94360000D03*
X90500000Y-91820000D03*
X90500000Y-89280000D03*
X90500000Y-86740000D03*
X90500000Y-84200000D03*
X90500000Y-81660000D03*
X90500000Y-79120000D03*
X90500000Y-76580000D03*
X90500000Y-74040000D03*
X90500000Y-71500000D03*
X90500000Y-68960000D03*
X90500000Y-66420000D03*
X90500000Y-63880000D03*
X133000000Y-53000000D03*
X98713500Y-91000000D03*
X98713500Y-93540000D03*
X98713500Y-96080000D03*
X98713500Y-98620000D03*
X98713500Y-101160000D03*
X98713500Y-103700000D03*
X98713500Y-106240000D03*
X98713500Y-108780000D03*
X121420000Y-88195000D03*
X123960000Y-88195000D03*
X126500000Y-88195000D03*
X61500000Y-115500000D03*
X133000000Y-116500000D03*
X117847300Y-96500000D03*
X121347300Y-96500000D03*
X61500000Y-53500000D03*
X122500000Y-63500000D03*
X122500000Y-58500000D03*
M02*
