M48
METRIC,TZ
T1C0.300
T2C0.800
T3C1.020
T4C1.200
T5C1.300
%
G90
G05
T1
X76000Y-80500
T2
X96760Y-61840
X96760Y-64380
X96760Y-66920
X96760Y-69460
X96760Y-72000
X96760Y-74540
X96760Y-77080
X96760Y-79620
X112000Y-61840
X112000Y-64380
X112000Y-66920
X112000Y-69460
X112000Y-72000
X112000Y-74540
X112000Y-77080
X112000Y-79620
X117847Y-96500
X121347Y-96500
X127045Y-96500
X129045Y-96500
T3
X65100Y-63880
X65100Y-66420
X65100Y-68960
X65100Y-71500
X65100Y-74040
X65100Y-76580
X65100Y-79120
X65100Y-81660
X65100Y-84200
X65100Y-86740
X65100Y-89280
X65100Y-91820
X65100Y-94360
X65100Y-96900
X65100Y-99440
X65100Y-101980
X65100Y-104520
X65100Y-107060
X65100Y-109600
X90500Y-63880
X90500Y-66420
X90500Y-68960
X90500Y-71500
X90500Y-74040
X90500Y-76580
X90500Y-79120
X90500Y-81660
X90500Y-84200
X90500Y-86740
X90500Y-89280
X90500Y-91820
X90500Y-94360
X90500Y-96900
X90500Y-99440
X90500Y-101980
X90500Y-104520
X90500Y-107060
X90500Y-109600
X98714Y-91000
X98714Y-93540
X98714Y-96080
X98714Y-98620
X98714Y-101160
X98714Y-103700
X98714Y-106240
X98714Y-108780
T4
X121420Y-88195
X123960Y-88195
X126500Y-88195
T5
X121500Y-108805
X122500Y-58500
X122500Y-63500
X122500Y-70500
X122500Y-75500
X126500Y-108805
M30
