%TF.GenerationSoftware,KiCad,Pcbnew,8.0.1*%
%TF.CreationDate,2024-04-26T22:18:18+02:00*%
%TF.ProjectId,Practica1,50726163-7469-4636-9131-2e6b69636164,rev?*%
%TF.SameCoordinates,Original*%
%TF.FileFunction,Copper,L2,Bot*%
%TF.FilePolarity,Positive*%
%FSLAX46Y46*%
G04 Gerber Fmt 4.6, Leading zero omitted, Abs format (unit mm)*
G04 Created by KiCad (PCBNEW 8.0.1) date 2024-04-26 22:18:18*
%MOMM*%
%LPD*%
G01*
G04 APERTURE LIST*
%TA.AperFunction,ComponentPad*%
%ADD10R,1.600000X1.600000*%
%TD*%
%TA.AperFunction,ComponentPad*%
%ADD11C,1.600000*%
%TD*%
%TA.AperFunction,ComponentPad*%
%ADD12R,2.600000X2.600000*%
%TD*%
%TA.AperFunction,ComponentPad*%
%ADD13C,2.600000*%
%TD*%
%TA.AperFunction,ComponentPad*%
%ADD14O,2.000000X1.200000*%
%TD*%
%TA.AperFunction,ComponentPad*%
%ADD15R,1.530000X1.530000*%
%TD*%
%TA.AperFunction,ComponentPad*%
%ADD16C,1.530000*%
%TD*%
%TA.AperFunction,ComponentPad*%
%ADD17R,1.905000X2.000000*%
%TD*%
%TA.AperFunction,ComponentPad*%
%ADD18O,1.905000X2.000000*%
%TD*%
%TA.AperFunction,ViaPad*%
%ADD19C,0.600000*%
%TD*%
%TA.AperFunction,Conductor*%
%ADD20C,1.500000*%
%TD*%
%TA.AperFunction,Conductor*%
%ADD21C,0.400000*%
%TD*%
%TA.AperFunction,Conductor*%
%ADD22C,0.200000*%
%TD*%
%ADD23C,0.300000*%
%ADD24C,0.350000*%
G04 APERTURE END LIST*
D10*
%TO.P,C4,1*%
%TO.N,+5V*%
X127044900Y-96500000D03*
D11*
%TO.P,C4,2*%
%TO.N,GND*%
X129044900Y-96500000D03*
%TD*%
D12*
%TO.P,J3,1,Pin_1*%
%TO.N,DirB MotorB*%
X122500000Y-75500000D03*
D13*
%TO.P,J3,2,Pin_2*%
%TO.N,DirA MotorB*%
X122500000Y-70500000D03*
%TD*%
D14*
%TO.P,IC1,1,VM1*%
%TO.N,+9V*%
X96760000Y-61840000D03*
%TO.P,IC1,2,VCC*%
%TO.N,+3.3V*%
X96760000Y-64380000D03*
%TO.P,IC1,3,GND*%
%TO.N,GND*%
X96760000Y-66920000D03*
%TO.P,IC1,4,AO1*%
%TO.N,DirA MotorA*%
X96760000Y-69460000D03*
%TO.P,IC1,5,AO2*%
%TO.N,DirB MotorA*%
X96760000Y-72000000D03*
%TO.P,IC1,6,BO1*%
%TO.N,DirA MotorB*%
X96760000Y-74540000D03*
%TO.P,IC1,7,BO2*%
%TO.N,DirB MotorB*%
X96760000Y-77080000D03*
%TO.P,IC1,8,GND*%
%TO.N,GND*%
X96760000Y-79620000D03*
%TO.P,IC1,9,GND*%
X112000000Y-79620000D03*
%TO.P,IC1,10,PWMB*%
%TO.N,Enable B*%
X112000000Y-77080000D03*
%TO.P,IC1,11,BIN2*%
%TO.N,Derecha B*%
X112000000Y-74540000D03*
%TO.P,IC1,12,BIN1*%
%TO.N,Izquierda B*%
X112000000Y-72000000D03*
%TO.P,IC1,13,STBY*%
%TO.N,unconnected-(IC1-STBY-Pad13)*%
X112000000Y-69460000D03*
%TO.P,IC1,14,AIN2*%
%TO.N,Izquierda A*%
X112000000Y-66920000D03*
%TO.P,IC1,15,AIN1*%
%TO.N,Derecha A*%
X112000000Y-64380000D03*
%TO.P,IC1,16,PWMA*%
%TO.N,Enable A*%
X112000000Y-61840000D03*
%TD*%
D12*
%TO.P,J1,1,Pin_1*%
%TO.N,GND*%
X121500000Y-108805000D03*
D13*
%TO.P,J1,2,Pin_2*%
%TO.N,+9V*%
X126500000Y-108805000D03*
%TD*%
D15*
%TO.P,U2,1,3V3*%
%TO.N,+3.3V*%
X65100000Y-63880000D03*
D16*
%TO.P,U2,2,EN*%
%TO.N,unconnected-(U2-EN-Pad2)*%
X65100000Y-66420000D03*
%TO.P,U2,3,SENSOR_VP*%
%TO.N,unconnected-(U2-SENSOR_VP-Pad3)*%
X65100000Y-68960000D03*
%TO.P,U2,4,SENSOR_VN*%
%TO.N,unconnected-(U2-SENSOR_VN-Pad4)*%
X65100000Y-71500000D03*
%TO.P,U2,5,IO34*%
%TO.N,unconnected-(U2-IO34-Pad5)*%
X65100000Y-74040000D03*
%TO.P,U2,6,IO35*%
%TO.N,unconnected-(U2-IO35-Pad6)*%
X65100000Y-76580000D03*
%TO.P,U2,7,IO32*%
%TO.N,Izquierda B*%
X65100000Y-79120000D03*
%TO.P,U2,8,IO33*%
%TO.N,Derecha B*%
X65100000Y-81660000D03*
%TO.P,U2,9,IO25*%
%TO.N,Izquierda A*%
X65100000Y-84200000D03*
%TO.P,U2,10,IO26*%
%TO.N,Derecha A*%
X65100000Y-86740000D03*
%TO.P,U2,11,IO27*%
%TO.N,Enable A*%
X65100000Y-89280000D03*
%TO.P,U2,12,IO14*%
%TO.N,Enable B*%
X65100000Y-91820000D03*
%TO.P,U2,13,IO12*%
%TO.N,unconnected-(U2-IO12-Pad13)*%
X65100000Y-94360000D03*
%TO.P,U2,14,GND1*%
%TO.N,GND*%
X65100000Y-96900000D03*
%TO.P,U2,15,IO13*%
%TO.N,unconnected-(U2-IO13-Pad15)*%
X65100000Y-99440000D03*
%TO.P,U2,16,SD2*%
%TO.N,unconnected-(U2-SD2-Pad16)*%
X65100000Y-101980000D03*
%TO.P,U2,17,SD3*%
%TO.N,unconnected-(U2-SD3-Pad17)*%
X65100000Y-104520000D03*
%TO.P,U2,18,CMD*%
%TO.N,unconnected-(U2-CMD-Pad18)*%
X65100000Y-107060000D03*
%TO.P,U2,19,EXT_5V*%
%TO.N,+5V*%
X65100000Y-109600000D03*
%TO.P,U2,20,CLK*%
%TO.N,unconnected-(U2-CLK-Pad20)*%
X90500000Y-109600000D03*
%TO.P,U2,21,SD0*%
%TO.N,unconnected-(U2-SD0-Pad21)*%
X90500000Y-107060000D03*
%TO.P,U2,22,SD1*%
%TO.N,unconnected-(U2-SD1-Pad22)*%
X90500000Y-104520000D03*
%TO.P,U2,23,IO15*%
%TO.N,unconnected-(U2-IO15-Pad23)*%
X90500000Y-101980000D03*
%TO.P,U2,24,IO2*%
%TO.N,unconnected-(U2-IO2-Pad24)*%
X90500000Y-99440000D03*
%TO.P,U2,25,IO0*%
%TO.N,unconnected-(U2-IO0-Pad25)*%
X90500000Y-96900000D03*
%TO.P,U2,26,IO4*%
%TO.N,unconnected-(U2-IO4-Pad26)*%
X90500000Y-94360000D03*
%TO.P,U2,27,IO16*%
%TO.N,unconnected-(U2-IO16-Pad27)*%
X90500000Y-91820000D03*
%TO.P,U2,28,IO17*%
%TO.N,unconnected-(U2-IO17-Pad28)*%
X90500000Y-89280000D03*
%TO.P,U2,29,IO5*%
%TO.N,unconnected-(U2-IO5-Pad29)*%
X90500000Y-86740000D03*
%TO.P,U2,30,IO18*%
%TO.N,unconnected-(U2-IO18-Pad30)*%
X90500000Y-84200000D03*
%TO.P,U2,31,IO19*%
%TO.N,unconnected-(U2-IO19-Pad31)*%
X90500000Y-81660000D03*
%TO.P,U2,32,GND2*%
%TO.N,GND*%
X90500000Y-79120000D03*
%TO.P,U2,33,IO21*%
%TO.N,SDA*%
X90500000Y-76580000D03*
%TO.P,U2,34,RXD0*%
%TO.N,unconnected-(U2-RXD0-Pad34)*%
X90500000Y-74040000D03*
%TO.P,U2,35,TXD0*%
%TO.N,unconnected-(U2-TXD0-Pad35)*%
X90500000Y-71500000D03*
%TO.P,U2,36,IO22*%
%TO.N,SCL*%
X90500000Y-68960000D03*
%TO.P,U2,37,IO23*%
%TO.N,D4*%
X90500000Y-66420000D03*
%TO.P,U2,38,GND3*%
%TO.N,GND*%
X90500000Y-63880000D03*
%TD*%
%TO.P,U5,1,VDD*%
%TO.N,+3.3V*%
X98713500Y-91000000D03*
%TO.P,U5,2,GND*%
%TO.N,GND*%
X98713500Y-93540000D03*
%TO.P,U5,3,SCL*%
%TO.N,SCL*%
X98713500Y-96080000D03*
%TO.P,U5,4,SDA*%
%TO.N,SDA*%
X98713500Y-98620000D03*
%TO.P,U5,5,AUX_DA*%
%TO.N,unconnected-(U5-AUX_DA-Pad5)*%
X98713500Y-101160000D03*
%TO.P,U5,6,AUX_CL*%
%TO.N,unconnected-(U5-AUX_CL-Pad6)*%
X98713500Y-103700000D03*
%TO.P,U5,7,AD0*%
%TO.N,unconnected-(U5-AD0-Pad7)*%
X98713500Y-106240000D03*
%TO.P,U5,8,INT*%
%TO.N,D4*%
X98713500Y-108780000D03*
%TD*%
D17*
%TO.P,U4,1,IN*%
%TO.N,+9V*%
X121420000Y-88195000D03*
D18*
%TO.P,U4,2,GND*%
%TO.N,GND*%
X123960000Y-88195000D03*
%TO.P,U4,3,OUT*%
%TO.N,+5V*%
X126500000Y-88195000D03*
%TD*%
D10*
%TO.P,C3,1*%
%TO.N,+9V*%
X117847300Y-96500000D03*
D11*
%TO.P,C3,2*%
%TO.N,GND*%
X121347300Y-96500000D03*
%TD*%
D12*
%TO.P,J2,1,Pin_1*%
%TO.N,DirB MotorA*%
X122500000Y-63500000D03*
D13*
%TO.P,J2,2,Pin_2*%
%TO.N,DirA MotorA*%
X122500000Y-58500000D03*
%TD*%
D19*
%TO.N,GND*%
X76000000Y-80500000D03*
%TD*%
D20*
%TO.N,+9V*%
X105500000Y-65500000D02*
X105500000Y-80000000D01*
X105500000Y-80000000D02*
X109500000Y-84000000D01*
D21*
X121420000Y-88195000D02*
X120167400Y-88195000D01*
D20*
X96760000Y-61880000D02*
X97380000Y-62500000D01*
D21*
X117847300Y-96500000D02*
X117847300Y-97600100D01*
D20*
X120167400Y-88195000D02*
X117847300Y-90515100D01*
X126500000Y-106252800D02*
X126500000Y-108805000D01*
X102500000Y-62500000D02*
X105500000Y-65500000D01*
X117847300Y-97600100D02*
X126500000Y-106252800D01*
X97380000Y-62500000D02*
X102500000Y-62500000D01*
X117847300Y-90515100D02*
X117847300Y-96500000D01*
X117225000Y-84000000D02*
X121420000Y-88195000D01*
X109500000Y-84000000D02*
X117225000Y-84000000D01*
D22*
%TO.N,+5V*%
X127044900Y-96977400D02*
X127044900Y-96500000D01*
X127045000Y-96977500D02*
X127044900Y-96977400D01*
X127045000Y-96977500D02*
X127045000Y-96500000D01*
%TO.N,Derecha A*%
X112000000Y-64420000D02*
X112000000Y-64110050D01*
%TO.N,Enable A*%
X62500000Y-63500000D02*
X75000000Y-51000000D01*
X75000000Y-51000000D02*
X102500000Y-51000000D01*
X109160000Y-57660000D02*
X109160000Y-59000000D01*
X109160000Y-59000000D02*
X112000000Y-61840000D01*
X62500000Y-86680000D02*
X62500000Y-63500000D01*
X65100000Y-89280000D02*
X62500000Y-86680000D01*
X102500000Y-51000000D02*
X109160000Y-57660000D01*
%TO.N,+3.3V*%
X102000000Y-69660000D02*
X102000000Y-87760000D01*
X96760000Y-64420000D02*
X102000000Y-69660000D01*
X102000000Y-87760000D02*
X98713500Y-91046500D01*
%TO.N,Enable B*%
X133500000Y-108000000D02*
X133500000Y-85500000D01*
X84280000Y-111000000D02*
X86500000Y-111000000D01*
X126000000Y-85500000D02*
X117580000Y-77080000D01*
X90000000Y-114500000D02*
X127000000Y-114500000D01*
X86500000Y-111000000D02*
X90000000Y-114500000D01*
X117580000Y-77080000D02*
X112000000Y-77080000D01*
X65100000Y-91820000D02*
X84280000Y-111000000D01*
X133500000Y-85500000D02*
X126000000Y-85500000D01*
X127000000Y-114500000D02*
X133500000Y-108000000D01*
%TO.N,Izquierda A*%
X99680000Y-54600000D02*
X112000000Y-66920000D01*
X78334315Y-54600000D02*
X99680000Y-54600000D01*
X65599314Y-80595000D02*
X69600000Y-76594314D01*
X64658862Y-80595000D02*
X65599314Y-80595000D01*
X64035000Y-83135000D02*
X64035000Y-81218862D01*
X69600000Y-76594314D02*
X69600000Y-63334314D01*
X64035000Y-81218862D02*
X64658862Y-80595000D01*
X65100000Y-84200000D02*
X64035000Y-83135000D01*
X69600000Y-63334314D02*
X78334315Y-54600000D01*
%TO.N,Derecha B*%
X66340000Y-81660000D02*
X71000000Y-77000000D01*
X108500000Y-67015076D02*
X108500000Y-71040000D01*
X108500000Y-71040000D02*
X112000000Y-74540000D01*
X97484924Y-56000000D02*
X108500000Y-67015076D01*
X71000000Y-64000000D02*
X79000000Y-56000000D01*
X79000000Y-56000000D02*
X97484924Y-56000000D01*
X71000000Y-77000000D02*
X71000000Y-64000000D01*
X65100000Y-81660000D02*
X66340000Y-81660000D01*
%TO.N,Izquierda B*%
X115500000Y-64000000D02*
X115500000Y-68500000D01*
X101487208Y-53000000D02*
X111487208Y-63000000D01*
X114500000Y-63000000D02*
X115500000Y-64000000D01*
X111487208Y-63000000D02*
X114500000Y-63000000D01*
X67500000Y-76720000D02*
X67500000Y-60500000D01*
X65100000Y-79120000D02*
X67500000Y-76720000D01*
X75000000Y-53000000D02*
X101487208Y-53000000D01*
X115500000Y-68500000D02*
X112000000Y-72000000D01*
X67500000Y-60500000D02*
X75000000Y-53000000D01*
%TO.N,SCL*%
X94500000Y-91913000D02*
X98713500Y-96126500D01*
X90500000Y-68960000D02*
X90500000Y-69000000D01*
X94500000Y-73000000D02*
X94500000Y-91913000D01*
X90500000Y-69000000D02*
X94500000Y-73000000D01*
%TO.N,D4*%
X88000000Y-76055600D02*
X89589400Y-77645000D01*
X89589400Y-77645000D02*
X91645000Y-77645000D01*
X90500000Y-66420000D02*
X88000000Y-68920000D01*
X91645000Y-77645000D02*
X93000000Y-79000000D01*
X88000000Y-68920000D02*
X88000000Y-76055600D01*
X93000000Y-103113000D02*
X98713500Y-108826500D01*
X93000000Y-79000000D02*
X93000000Y-103113000D01*
%TO.N,SDA*%
X90500000Y-76580000D02*
X92080000Y-76580000D01*
X94000000Y-78500000D02*
X94000000Y-93953000D01*
X92080000Y-76580000D02*
X94000000Y-78500000D01*
X94000000Y-93953000D02*
X98713500Y-98666500D01*
%TD*%
%TA.AperFunction,Conductor*%
%TO.N,GND*%
G36*
X136942539Y-48520185D02*
G01*
X136988294Y-48572989D01*
X136999500Y-48624500D01*
X136999500Y-120375500D01*
X136979815Y-120442539D01*
X136927011Y-120488294D01*
X136875500Y-120499500D01*
X57124500Y-120499500D01*
X57057461Y-120479815D01*
X57011706Y-120427011D01*
X57000500Y-120375500D01*
X57000500Y-115621288D01*
X59649500Y-115621288D01*
X59681161Y-115861785D01*
X59743947Y-116096104D01*
X59761390Y-116138214D01*
X59836776Y-116320212D01*
X59958064Y-116530289D01*
X59958066Y-116530292D01*
X59958067Y-116530293D01*
X60105733Y-116722736D01*
X60105739Y-116722743D01*
X60277256Y-116894260D01*
X60277262Y-116894265D01*
X60469711Y-117041936D01*
X60679788Y-117163224D01*
X60903900Y-117256054D01*
X61138211Y-117318838D01*
X61318586Y-117342584D01*
X61378711Y-117350500D01*
X61378712Y-117350500D01*
X61621289Y-117350500D01*
X61669388Y-117344167D01*
X61861789Y-117318838D01*
X62096100Y-117256054D01*
X62320212Y-117163224D01*
X62530289Y-117041936D01*
X62722738Y-116894265D01*
X62894265Y-116722738D01*
X62972110Y-116621288D01*
X131149500Y-116621288D01*
X131181161Y-116861785D01*
X131243947Y-117096104D01*
X131271750Y-117163226D01*
X131336776Y-117320212D01*
X131458064Y-117530289D01*
X131458066Y-117530292D01*
X131458067Y-117530293D01*
X131605733Y-117722736D01*
X131605739Y-117722743D01*
X131777256Y-117894260D01*
X131777262Y-117894265D01*
X131969711Y-118041936D01*
X132179788Y-118163224D01*
X132403900Y-118256054D01*
X132638211Y-118318838D01*
X132818586Y-118342584D01*
X132878711Y-118350500D01*
X132878712Y-118350500D01*
X133121289Y-118350500D01*
X133169388Y-118344167D01*
X133361789Y-118318838D01*
X133596100Y-118256054D01*
X133820212Y-118163224D01*
X134030289Y-118041936D01*
X134222738Y-117894265D01*
X134394265Y-117722738D01*
X134541936Y-117530289D01*
X134663224Y-117320212D01*
X134756054Y-117096100D01*
X134818838Y-116861789D01*
X134850500Y-116621288D01*
X134850500Y-116378712D01*
X134818838Y-116138211D01*
X134756054Y-115903900D01*
X134663224Y-115679788D01*
X134541936Y-115469711D01*
X134394265Y-115277262D01*
X134394260Y-115277256D01*
X134222743Y-115105739D01*
X134222736Y-115105733D01*
X134030293Y-114958067D01*
X134030292Y-114958066D01*
X134030289Y-114958064D01*
X133820212Y-114836776D01*
X133820205Y-114836773D01*
X133596104Y-114743947D01*
X133361785Y-114681161D01*
X133121289Y-114649500D01*
X133121288Y-114649500D01*
X132878712Y-114649500D01*
X132878711Y-114649500D01*
X132638214Y-114681161D01*
X132403895Y-114743947D01*
X132179794Y-114836773D01*
X132179785Y-114836777D01*
X131969706Y-114958067D01*
X131777263Y-115105733D01*
X131777256Y-115105739D01*
X131605739Y-115277256D01*
X131605733Y-115277263D01*
X131458067Y-115469706D01*
X131336777Y-115679785D01*
X131336773Y-115679794D01*
X131243947Y-115903895D01*
X131181161Y-116138214D01*
X131149500Y-116378711D01*
X131149500Y-116621288D01*
X62972110Y-116621288D01*
X63041936Y-116530289D01*
X63163224Y-116320212D01*
X63256054Y-116096100D01*
X63318838Y-115861789D01*
X63350500Y-115621288D01*
X63350500Y-115378712D01*
X63318838Y-115138211D01*
X63256054Y-114903900D01*
X63163224Y-114679788D01*
X63041936Y-114469711D01*
X62894265Y-114277262D01*
X62894260Y-114277256D01*
X62722743Y-114105739D01*
X62722736Y-114105733D01*
X62530293Y-113958067D01*
X62530292Y-113958066D01*
X62530289Y-113958064D01*
X62320212Y-113836776D01*
X62320205Y-113836773D01*
X62096104Y-113743947D01*
X61861785Y-113681161D01*
X61621289Y-113649500D01*
X61621288Y-113649500D01*
X61378712Y-113649500D01*
X61378711Y-113649500D01*
X61138214Y-113681161D01*
X60903895Y-113743947D01*
X60679794Y-113836773D01*
X60679785Y-113836777D01*
X60469706Y-113958067D01*
X60277263Y-114105733D01*
X60277256Y-114105739D01*
X60105739Y-114277256D01*
X60105733Y-114277263D01*
X59958067Y-114469706D01*
X59836777Y-114679785D01*
X59836773Y-114679794D01*
X59743947Y-114903895D01*
X59681161Y-115138214D01*
X59649500Y-115378711D01*
X59649500Y-115621288D01*
X57000500Y-115621288D01*
X57000500Y-86759054D01*
X61899498Y-86759054D01*
X61940424Y-86911789D01*
X61940425Y-86911790D01*
X61959310Y-86944499D01*
X61959311Y-86944500D01*
X62019477Y-87048712D01*
X62019481Y-87048717D01*
X62138349Y-87167585D01*
X62138355Y-87167590D01*
X63836635Y-88865870D01*
X63870120Y-88927193D01*
X63868729Y-88985643D01*
X63848967Y-89059400D01*
X63848964Y-89059414D01*
X63829666Y-89279998D01*
X63829666Y-89280001D01*
X63848964Y-89500585D01*
X63848965Y-89500592D01*
X63906275Y-89714475D01*
X63906279Y-89714486D01*
X63973991Y-89859695D01*
X63999858Y-89915167D01*
X64126868Y-90096555D01*
X64283445Y-90253132D01*
X64464833Y-90380142D01*
X64526828Y-90409050D01*
X64588091Y-90437618D01*
X64640531Y-90483790D01*
X64659683Y-90550983D01*
X64639467Y-90617865D01*
X64588091Y-90662382D01*
X64464836Y-90719856D01*
X64464834Y-90719857D01*
X64283444Y-90846868D01*
X64126868Y-91003444D01*
X63999857Y-91184834D01*
X63999856Y-91184836D01*
X63906279Y-91385513D01*
X63906275Y-91385524D01*
X63848965Y-91599407D01*
X63848964Y-91599414D01*
X63829666Y-91819998D01*
X63829666Y-91820001D01*
X63848964Y-92040585D01*
X63848965Y-92040592D01*
X63906275Y-92254475D01*
X63906279Y-92254486D01*
X63945287Y-92338139D01*
X63999858Y-92455167D01*
X64126868Y-92636555D01*
X64283445Y-92793132D01*
X64464833Y-92920142D01*
X64526828Y-92949050D01*
X64588091Y-92977618D01*
X64640531Y-93023790D01*
X64659683Y-93090983D01*
X64639467Y-93157865D01*
X64588091Y-93202382D01*
X64464836Y-93259856D01*
X64464834Y-93259857D01*
X64283444Y-93386868D01*
X64126868Y-93543444D01*
X63999857Y-93724834D01*
X63999856Y-93724836D01*
X63906279Y-93925513D01*
X63906275Y-93925524D01*
X63848965Y-94139407D01*
X63848964Y-94139414D01*
X63829666Y-94359998D01*
X63829666Y-94360001D01*
X63848964Y-94580585D01*
X63848965Y-94580592D01*
X63906275Y-94794475D01*
X63906279Y-94794486D01*
X63949082Y-94886277D01*
X63999858Y-94995167D01*
X64126868Y-95176555D01*
X64283445Y-95333132D01*
X64464833Y-95460142D01*
X64588682Y-95517893D01*
X64641122Y-95564065D01*
X64660274Y-95631258D01*
X64640059Y-95698139D01*
X64588683Y-95742657D01*
X64465084Y-95800293D01*
X64399657Y-95846104D01*
X64962424Y-96408871D01*
X64903147Y-96424755D01*
X64786853Y-96491898D01*
X64691898Y-96586853D01*
X64624755Y-96703147D01*
X64608871Y-96762424D01*
X64046104Y-96199657D01*
X64000293Y-96265084D01*
X63906749Y-96465690D01*
X63906745Y-96465699D01*
X63849461Y-96679490D01*
X63849459Y-96679500D01*
X63830168Y-96899999D01*
X63830168Y-96900000D01*
X63849459Y-97120499D01*
X63849461Y-97120509D01*
X63906745Y-97334300D01*
X63906749Y-97334309D01*
X64000295Y-97534919D01*
X64046103Y-97600341D01*
X64046105Y-97600342D01*
X64608871Y-97037575D01*
X64624755Y-97096853D01*
X64691898Y-97213147D01*
X64786853Y-97308102D01*
X64903147Y-97375245D01*
X64962424Y-97391128D01*
X64399656Y-97953894D01*
X64465083Y-97999706D01*
X64465085Y-97999707D01*
X64588683Y-98057342D01*
X64641122Y-98103514D01*
X64660274Y-98170708D01*
X64640058Y-98237589D01*
X64588683Y-98282106D01*
X64464833Y-98339857D01*
X64283444Y-98466868D01*
X64126868Y-98623444D01*
X63999857Y-98804834D01*
X63999856Y-98804836D01*
X63906279Y-99005513D01*
X63906275Y-99005524D01*
X63848965Y-99219407D01*
X63848964Y-99219414D01*
X63829666Y-99439998D01*
X63829666Y-99440001D01*
X63848964Y-99660585D01*
X63848965Y-99660592D01*
X63906275Y-99874475D01*
X63906279Y-99874486D01*
X63949082Y-99966277D01*
X63999858Y-100075167D01*
X64126868Y-100256555D01*
X64283445Y-100413132D01*
X64464833Y-100540142D01*
X64526828Y-100569050D01*
X64588091Y-100597618D01*
X64640531Y-100643790D01*
X64659683Y-100710983D01*
X64639467Y-100777865D01*
X64588091Y-100822382D01*
X64464836Y-100879856D01*
X64464834Y-100879857D01*
X64283444Y-101006868D01*
X64126868Y-101163444D01*
X63999857Y-101344834D01*
X63999856Y-101344836D01*
X63906279Y-101545513D01*
X63906275Y-101545524D01*
X63848965Y-101759407D01*
X63848964Y-101759414D01*
X63829666Y-101979998D01*
X63829666Y-101980001D01*
X63848964Y-102200585D01*
X63848965Y-102200592D01*
X63906275Y-102414475D01*
X63906279Y-102414486D01*
X63949082Y-102506277D01*
X63999858Y-102615167D01*
X64126868Y-102796555D01*
X64283445Y-102953132D01*
X64464833Y-103080142D01*
X64526828Y-103109050D01*
X64588091Y-103137618D01*
X64640531Y-103183790D01*
X64659683Y-103250983D01*
X64639467Y-103317865D01*
X64588091Y-103362382D01*
X64464836Y-103419856D01*
X64464834Y-103419857D01*
X64283444Y-103546868D01*
X64126868Y-103703444D01*
X63999857Y-103884834D01*
X63999856Y-103884836D01*
X63906279Y-104085513D01*
X63906275Y-104085524D01*
X63848965Y-104299407D01*
X63848964Y-104299414D01*
X63829666Y-104519998D01*
X63829666Y-104520001D01*
X63848964Y-104740585D01*
X63848965Y-104740592D01*
X63906275Y-104954475D01*
X63906279Y-104954486D01*
X63949082Y-105046277D01*
X63999858Y-105155167D01*
X64126868Y-105336555D01*
X64283445Y-105493132D01*
X64464833Y-105620142D01*
X64526828Y-105649050D01*
X64588091Y-105677618D01*
X64640531Y-105723790D01*
X64659683Y-105790983D01*
X64639467Y-105857865D01*
X64588091Y-105902382D01*
X64464836Y-105959856D01*
X64464834Y-105959857D01*
X64283444Y-106086868D01*
X64126868Y-106243444D01*
X63999857Y-106424834D01*
X63999856Y-106424836D01*
X63906279Y-106625513D01*
X63906275Y-106625524D01*
X63848965Y-106839407D01*
X63848964Y-106839414D01*
X63829666Y-107059998D01*
X63829666Y-107060001D01*
X63848964Y-107280585D01*
X63848965Y-107280592D01*
X63906275Y-107494475D01*
X63906279Y-107494486D01*
X63949082Y-107586277D01*
X63999858Y-107695167D01*
X64126868Y-107876555D01*
X64283445Y-108033132D01*
X64464833Y-108160142D01*
X64507374Y-108179979D01*
X64588091Y-108217618D01*
X64640531Y-108263790D01*
X64659683Y-108330983D01*
X64639467Y-108397865D01*
X64588091Y-108442382D01*
X64464836Y-108499856D01*
X64464834Y-108499857D01*
X64283444Y-108626868D01*
X64126868Y-108783444D01*
X63999857Y-108964834D01*
X63999856Y-108964836D01*
X63906279Y-109165513D01*
X63906275Y-109165524D01*
X63848965Y-109379407D01*
X63848964Y-109379414D01*
X63829666Y-109599998D01*
X63829666Y-109600001D01*
X63848964Y-109820585D01*
X63848965Y-109820592D01*
X63906275Y-110034475D01*
X63906279Y-110034486D01*
X63989232Y-110212379D01*
X63999858Y-110235167D01*
X64126868Y-110416555D01*
X64283445Y-110573132D01*
X64464833Y-110700142D01*
X64585572Y-110756443D01*
X64665513Y-110793720D01*
X64665515Y-110793720D01*
X64665520Y-110793723D01*
X64879409Y-110851035D01*
X65036974Y-110864820D01*
X65099998Y-110870334D01*
X65100000Y-110870334D01*
X65100002Y-110870334D01*
X65155147Y-110865509D01*
X65320591Y-110851035D01*
X65534480Y-110793723D01*
X65735167Y-110700142D01*
X65916555Y-110573132D01*
X66073132Y-110416555D01*
X66200142Y-110235167D01*
X66293723Y-110034480D01*
X66351035Y-109820591D01*
X66370334Y-109600000D01*
X66351035Y-109379409D01*
X66293723Y-109165520D01*
X66269181Y-109112890D01*
X66242187Y-109055000D01*
X66200142Y-108964833D01*
X66073132Y-108783445D01*
X65916555Y-108626868D01*
X65735167Y-108499858D01*
X65611907Y-108442381D01*
X65559468Y-108396210D01*
X65540316Y-108329017D01*
X65560531Y-108262136D01*
X65611908Y-108217618D01*
X65735167Y-108160142D01*
X65916555Y-108033132D01*
X66073132Y-107876555D01*
X66200142Y-107695167D01*
X66293723Y-107494480D01*
X66351035Y-107280591D01*
X66370334Y-107060000D01*
X66351035Y-106839409D01*
X66293723Y-106625520D01*
X66200142Y-106424833D01*
X66073132Y-106243445D01*
X65916555Y-106086868D01*
X65735167Y-105959858D01*
X65611907Y-105902381D01*
X65559468Y-105856210D01*
X65540316Y-105789017D01*
X65560531Y-105722136D01*
X65611908Y-105677618D01*
X65735167Y-105620142D01*
X65916555Y-105493132D01*
X66073132Y-105336555D01*
X66200142Y-105155167D01*
X66293723Y-104954480D01*
X66351035Y-104740591D01*
X66370334Y-104520000D01*
X66351035Y-104299409D01*
X66293723Y-104085520D01*
X66200142Y-103884833D01*
X66073132Y-103703445D01*
X65916555Y-103546868D01*
X65735167Y-103419858D01*
X65681652Y-103394904D01*
X65611908Y-103362382D01*
X65559468Y-103316210D01*
X65540316Y-103249017D01*
X65560531Y-103182136D01*
X65611908Y-103137618D01*
X65735167Y-103080142D01*
X65916555Y-102953132D01*
X66073132Y-102796555D01*
X66200142Y-102615167D01*
X66293723Y-102414480D01*
X66351035Y-102200591D01*
X66370334Y-101980000D01*
X66351035Y-101759409D01*
X66293723Y-101545520D01*
X66200142Y-101344833D01*
X66073132Y-101163445D01*
X65916555Y-101006868D01*
X65735167Y-100879858D01*
X65611907Y-100822381D01*
X65559468Y-100776210D01*
X65540316Y-100709017D01*
X65560531Y-100642136D01*
X65611908Y-100597618D01*
X65735167Y-100540142D01*
X65916555Y-100413132D01*
X66073132Y-100256555D01*
X66200142Y-100075167D01*
X66293723Y-99874480D01*
X66351035Y-99660591D01*
X66370334Y-99440000D01*
X66351035Y-99219409D01*
X66293723Y-99005520D01*
X66200142Y-98804833D01*
X66073132Y-98623445D01*
X65916555Y-98466868D01*
X65735167Y-98339858D01*
X65735163Y-98339856D01*
X65611317Y-98282106D01*
X65558877Y-98235934D01*
X65539725Y-98168741D01*
X65559941Y-98101859D01*
X65611317Y-98057342D01*
X65734912Y-97999708D01*
X65734914Y-97999707D01*
X65800342Y-97953894D01*
X65237575Y-97391127D01*
X65296853Y-97375245D01*
X65413147Y-97308102D01*
X65508102Y-97213147D01*
X65575245Y-97096853D01*
X65591128Y-97037575D01*
X66153894Y-97600342D01*
X66199706Y-97534915D01*
X66293250Y-97334309D01*
X66293254Y-97334300D01*
X66350538Y-97120509D01*
X66350540Y-97120499D01*
X66369832Y-96900000D01*
X66369832Y-96899999D01*
X66350540Y-96679500D01*
X66350538Y-96679490D01*
X66293254Y-96465699D01*
X66293250Y-96465690D01*
X66199707Y-96265085D01*
X66199706Y-96265083D01*
X66153894Y-96199657D01*
X66153894Y-96199656D01*
X65591127Y-96762423D01*
X65575245Y-96703147D01*
X65508102Y-96586853D01*
X65413147Y-96491898D01*
X65296853Y-96424755D01*
X65237575Y-96408872D01*
X65800342Y-95846105D01*
X65800341Y-95846103D01*
X65734919Y-95800295D01*
X65611316Y-95742657D01*
X65558877Y-95696484D01*
X65539725Y-95629291D01*
X65559941Y-95562410D01*
X65611312Y-95517895D01*
X65735167Y-95460142D01*
X65916555Y-95333132D01*
X66073132Y-95176555D01*
X66200142Y-94995167D01*
X66293723Y-94794480D01*
X66351035Y-94580591D01*
X66370334Y-94360000D01*
X66359717Y-94238648D01*
X66373483Y-94170150D01*
X66422099Y-94119967D01*
X66490127Y-94104033D01*
X66555971Y-94127408D01*
X66570926Y-94140161D01*
X83795139Y-111364374D01*
X83795149Y-111364385D01*
X83799479Y-111368715D01*
X83799480Y-111368716D01*
X83911284Y-111480520D01*
X83998095Y-111530639D01*
X83998097Y-111530641D01*
X84036151Y-111552611D01*
X84048215Y-111559577D01*
X84200943Y-111600500D01*
X84359057Y-111600500D01*
X86199903Y-111600500D01*
X86266942Y-111620185D01*
X86287584Y-111636819D01*
X89515139Y-114864374D01*
X89515149Y-114864385D01*
X89519479Y-114868715D01*
X89519480Y-114868716D01*
X89631284Y-114980520D01*
X89631286Y-114980521D01*
X89631290Y-114980524D01*
X89768209Y-115059573D01*
X89768216Y-115059577D01*
X89880019Y-115089534D01*
X89920942Y-115100500D01*
X89920943Y-115100500D01*
X126913331Y-115100500D01*
X126913347Y-115100501D01*
X126920943Y-115100501D01*
X127079054Y-115100501D01*
X127079057Y-115100501D01*
X127231785Y-115059577D01*
X127281904Y-115030639D01*
X127368716Y-114980520D01*
X127480520Y-114868716D01*
X127480520Y-114868714D01*
X127490728Y-114858507D01*
X127490730Y-114858504D01*
X133858506Y-108490728D01*
X133858511Y-108490724D01*
X133868714Y-108480520D01*
X133868716Y-108480520D01*
X133980520Y-108368716D01*
X134046911Y-108253723D01*
X134059577Y-108231785D01*
X134100500Y-108079057D01*
X134100500Y-107920943D01*
X134100500Y-85420943D01*
X134059577Y-85268216D01*
X134004681Y-85173132D01*
X133980524Y-85131290D01*
X133980518Y-85131282D01*
X133868717Y-85019481D01*
X133868709Y-85019475D01*
X133731790Y-84940426D01*
X133731786Y-84940424D01*
X133731784Y-84940423D01*
X133579057Y-84899500D01*
X133579056Y-84899500D01*
X126300097Y-84899500D01*
X126233058Y-84879815D01*
X126212416Y-84863181D01*
X118197105Y-76847870D01*
X120699500Y-76847870D01*
X120699501Y-76847876D01*
X120705908Y-76907483D01*
X120756202Y-77042328D01*
X120756206Y-77042335D01*
X120842452Y-77157544D01*
X120842455Y-77157547D01*
X120957664Y-77243793D01*
X120957671Y-77243797D01*
X121092517Y-77294091D01*
X121092516Y-77294091D01*
X121099444Y-77294835D01*
X121152127Y-77300500D01*
X123847872Y-77300499D01*
X123907483Y-77294091D01*
X124042331Y-77243796D01*
X124157546Y-77157546D01*
X124243796Y-77042331D01*
X124294091Y-76907483D01*
X124300500Y-76847873D01*
X124300499Y-74152128D01*
X124294091Y-74092517D01*
X124274503Y-74040000D01*
X124243797Y-73957671D01*
X124243793Y-73957664D01*
X124157547Y-73842455D01*
X124157544Y-73842452D01*
X124042335Y-73756206D01*
X124042328Y-73756202D01*
X123907482Y-73705908D01*
X123907483Y-73705908D01*
X123847883Y-73699501D01*
X123847881Y-73699500D01*
X123847873Y-73699500D01*
X123847864Y-73699500D01*
X121152129Y-73699500D01*
X121152123Y-73699501D01*
X121092516Y-73705908D01*
X120957671Y-73756202D01*
X120957664Y-73756206D01*
X120842455Y-73842452D01*
X120842452Y-73842455D01*
X120756206Y-73957664D01*
X120756202Y-73957671D01*
X120705908Y-74092517D01*
X120699501Y-74152116D01*
X120699501Y-74152123D01*
X120699500Y-74152135D01*
X120699500Y-76847870D01*
X118197105Y-76847870D01*
X118067590Y-76718355D01*
X118067588Y-76718352D01*
X117948717Y-76599481D01*
X117948716Y-76599480D01*
X117861904Y-76549360D01*
X117861904Y-76549359D01*
X117861900Y-76549358D01*
X117811785Y-76520423D01*
X117659057Y-76479499D01*
X117500943Y-76479499D01*
X117493347Y-76479499D01*
X117493331Y-76479500D01*
X113387185Y-76479500D01*
X113320146Y-76459815D01*
X113286867Y-76428386D01*
X113283910Y-76424316D01*
X113239414Y-76363072D01*
X113116928Y-76240586D01*
X112976788Y-76138768D01*
X112822445Y-76060127D01*
X112657701Y-76006598D01*
X112657699Y-76006597D01*
X112657698Y-76006597D01*
X112526271Y-75985781D01*
X112486611Y-75979500D01*
X111513389Y-75979500D01*
X111473728Y-75985781D01*
X111342302Y-76006597D01*
X111177552Y-76060128D01*
X111023211Y-76138768D01*
X110943256Y-76196859D01*
X110883072Y-76240586D01*
X110883070Y-76240588D01*
X110883069Y-76240588D01*
X110760588Y-76363069D01*
X110760588Y-76363070D01*
X110760586Y-76363072D01*
X110746909Y-76381897D01*
X110658768Y-76503211D01*
X110580128Y-76657552D01*
X110526597Y-76822302D01*
X110499500Y-76993389D01*
X110499500Y-77166610D01*
X110520705Y-77300498D01*
X110526598Y-77337701D01*
X110580127Y-77502445D01*
X110658768Y-77656788D01*
X110760586Y-77796928D01*
X110883072Y-77919414D01*
X111023212Y-78021232D01*
X111177555Y-78099873D01*
X111342299Y-78153402D01*
X111513389Y-78180500D01*
X111513390Y-78180500D01*
X112486610Y-78180500D01*
X112486611Y-78180500D01*
X112657701Y-78153402D01*
X112822445Y-78099873D01*
X112976788Y-78021232D01*
X113116928Y-77919414D01*
X113239414Y-77796928D01*
X113286868Y-77731613D01*
X113342197Y-77688949D01*
X113387185Y-77680500D01*
X117279903Y-77680500D01*
X117346942Y-77700185D01*
X117367584Y-77716819D01*
X125515139Y-85864374D01*
X125515149Y-85864385D01*
X125519479Y-85868715D01*
X125519480Y-85868716D01*
X125631284Y-85980520D01*
X125718095Y-86030639D01*
X125718097Y-86030641D01*
X125768213Y-86059576D01*
X125768215Y-86059577D01*
X125920942Y-86100500D01*
X125920943Y-86100500D01*
X132775500Y-86100500D01*
X132842539Y-86120185D01*
X132888294Y-86172989D01*
X132899500Y-86224500D01*
X132899500Y-107699903D01*
X132879815Y-107766942D01*
X132863181Y-107787584D01*
X126787584Y-113863181D01*
X126726261Y-113896666D01*
X126699903Y-113899500D01*
X90300097Y-113899500D01*
X90233058Y-113879815D01*
X90212416Y-113863181D01*
X86987590Y-110638355D01*
X86987588Y-110638352D01*
X86868717Y-110519481D01*
X86868716Y-110519480D01*
X86781904Y-110469360D01*
X86781904Y-110469359D01*
X86781900Y-110469358D01*
X86731785Y-110440423D01*
X86579057Y-110399499D01*
X86420943Y-110399499D01*
X86413347Y-110399499D01*
X86413331Y-110399500D01*
X84580097Y-110399500D01*
X84513058Y-110379815D01*
X84492416Y-110363181D01*
X66363363Y-92234128D01*
X66329878Y-92172805D01*
X66331270Y-92114351D01*
X66335078Y-92100143D01*
X66351035Y-92040591D01*
X66370334Y-91820000D01*
X66351035Y-91599409D01*
X66293723Y-91385520D01*
X66200142Y-91184833D01*
X66073132Y-91003445D01*
X65916555Y-90846868D01*
X65735167Y-90719858D01*
X65611907Y-90662381D01*
X65559468Y-90616210D01*
X65540316Y-90549017D01*
X65560531Y-90482136D01*
X65611908Y-90437618D01*
X65735167Y-90380142D01*
X65916555Y-90253132D01*
X66073132Y-90096555D01*
X66200142Y-89915167D01*
X66293723Y-89714480D01*
X66351035Y-89500591D01*
X66370334Y-89280000D01*
X66351035Y-89059409D01*
X66293723Y-88845520D01*
X66200142Y-88644833D01*
X66073132Y-88463445D01*
X65916555Y-88306868D01*
X65735167Y-88179858D01*
X65611907Y-88122381D01*
X65559468Y-88076210D01*
X65540316Y-88009017D01*
X65560531Y-87942136D01*
X65611908Y-87897618D01*
X65735167Y-87840142D01*
X65916555Y-87713132D01*
X66073132Y-87556555D01*
X66200142Y-87375167D01*
X66293723Y-87174480D01*
X66351035Y-86960591D01*
X66370334Y-86740000D01*
X66369483Y-86730278D01*
X66351035Y-86519414D01*
X66351035Y-86519409D01*
X66293723Y-86305520D01*
X66200142Y-86104833D01*
X66073132Y-85923445D01*
X65916555Y-85766868D01*
X65735167Y-85639858D01*
X65611907Y-85582381D01*
X65559468Y-85536210D01*
X65540316Y-85469017D01*
X65560531Y-85402136D01*
X65611908Y-85357618D01*
X65735167Y-85300142D01*
X65916555Y-85173132D01*
X66073132Y-85016555D01*
X66200142Y-84835167D01*
X66293723Y-84634480D01*
X66351035Y-84420591D01*
X66370334Y-84200000D01*
X66351035Y-83979409D01*
X66293723Y-83765520D01*
X66200142Y-83564833D01*
X66073132Y-83383445D01*
X65916555Y-83226868D01*
X65735167Y-83099858D01*
X65611907Y-83042381D01*
X65559468Y-82996210D01*
X65540316Y-82929017D01*
X65560531Y-82862136D01*
X65611908Y-82817618D01*
X65735167Y-82760142D01*
X65916555Y-82633132D01*
X66073132Y-82476555D01*
X66187391Y-82313376D01*
X66241969Y-82269752D01*
X66288966Y-82260501D01*
X66419054Y-82260501D01*
X66419057Y-82260501D01*
X66571785Y-82219577D01*
X66621904Y-82190639D01*
X66708716Y-82140520D01*
X66820520Y-82028716D01*
X66820520Y-82028714D01*
X66830728Y-82018507D01*
X66830730Y-82018504D01*
X71358506Y-77490728D01*
X71358511Y-77490724D01*
X71368714Y-77480520D01*
X71368716Y-77480520D01*
X71480520Y-77368716D01*
X71552642Y-77243796D01*
X71559577Y-77231785D01*
X71600500Y-77079058D01*
X71600500Y-76920943D01*
X71600500Y-64300096D01*
X71620185Y-64233057D01*
X71636815Y-64212419D01*
X71912893Y-63936340D01*
X71974214Y-63902857D01*
X71997467Y-63900062D01*
X88000000Y-63500000D01*
X88000000Y-56724500D01*
X88019685Y-56657461D01*
X88072489Y-56611706D01*
X88124000Y-56600500D01*
X97184827Y-56600500D01*
X97251866Y-56620185D01*
X97272508Y-56636819D01*
X101673508Y-61037819D01*
X101706993Y-61099142D01*
X101702009Y-61168834D01*
X101660137Y-61224767D01*
X101594673Y-61249184D01*
X101585827Y-61249500D01*
X98154451Y-61249500D01*
X98087412Y-61229815D01*
X98054133Y-61198386D01*
X98032662Y-61168834D01*
X97999414Y-61123072D01*
X97876928Y-61000586D01*
X97736788Y-60898768D01*
X97582445Y-60820127D01*
X97417701Y-60766598D01*
X97417699Y-60766597D01*
X97308806Y-60749350D01*
X97271912Y-60737362D01*
X97240026Y-60721116D01*
X97240025Y-60721115D01*
X97240022Y-60721114D01*
X97052828Y-60660291D01*
X96858422Y-60629500D01*
X96858417Y-60629500D01*
X96661583Y-60629500D01*
X96661578Y-60629500D01*
X96467172Y-60660291D01*
X96467169Y-60660291D01*
X96279976Y-60721114D01*
X96248083Y-60737364D01*
X96211191Y-60749350D01*
X96102302Y-60766597D01*
X95937552Y-60820128D01*
X95783211Y-60898768D01*
X95703256Y-60956859D01*
X95643072Y-61000586D01*
X95643070Y-61000588D01*
X95643069Y-61000588D01*
X95520588Y-61123069D01*
X95520588Y-61123070D01*
X95520586Y-61123072D01*
X95487338Y-61168834D01*
X95418768Y-61263211D01*
X95340128Y-61417552D01*
X95286597Y-61582302D01*
X95259500Y-61753389D01*
X95259500Y-61926610D01*
X95285776Y-62092516D01*
X95286598Y-62097701D01*
X95331918Y-62237182D01*
X95340128Y-62262447D01*
X95414951Y-62409297D01*
X95418768Y-62416788D01*
X95520586Y-62556928D01*
X95643072Y-62679414D01*
X95748177Y-62755777D01*
X95783213Y-62781233D01*
X95871277Y-62826103D01*
X95937555Y-62859873D01*
X95959375Y-62866962D01*
X96008739Y-62897213D01*
X96202857Y-63091331D01*
X96236342Y-63152654D01*
X96231358Y-63222346D01*
X96189486Y-63278279D01*
X96134577Y-63301485D01*
X96102299Y-63306598D01*
X95937552Y-63360128D01*
X95783211Y-63438768D01*
X95703256Y-63496859D01*
X95643072Y-63540586D01*
X95643070Y-63540588D01*
X95643069Y-63540588D01*
X95520588Y-63663069D01*
X95520588Y-63663070D01*
X95520586Y-63663072D01*
X95506001Y-63683147D01*
X95418768Y-63803211D01*
X95340128Y-63957552D01*
X95286597Y-64122302D01*
X95259500Y-64293389D01*
X95259500Y-64466610D01*
X95279006Y-64589771D01*
X95286598Y-64637701D01*
X95340127Y-64802445D01*
X95418768Y-64956788D01*
X95520586Y-65096928D01*
X95643072Y-65219414D01*
X95783212Y-65321232D01*
X95937555Y-65399873D01*
X96102299Y-65453402D01*
X96273389Y-65480500D01*
X96919903Y-65480500D01*
X96986942Y-65500185D01*
X97007584Y-65516819D01*
X97099084Y-65608319D01*
X97132569Y-65669642D01*
X97127585Y-65739334D01*
X97085713Y-65795267D01*
X97020249Y-65819684D01*
X97011403Y-65820000D01*
X97010000Y-65820000D01*
X97010000Y-66604314D01*
X97005606Y-66599920D01*
X96914394Y-66547259D01*
X96812661Y-66520000D01*
X96707339Y-66520000D01*
X96605606Y-66547259D01*
X96514394Y-66599920D01*
X96510000Y-66604314D01*
X96510000Y-65820000D01*
X96273429Y-65820000D01*
X96102415Y-65847085D01*
X95937742Y-65900591D01*
X95783475Y-65979195D01*
X95643397Y-66080967D01*
X95520967Y-66203397D01*
X95419195Y-66343475D01*
X95340591Y-66497744D01*
X95287085Y-66662415D01*
X95285884Y-66669999D01*
X95285885Y-66670000D01*
X96444314Y-66670000D01*
X96439920Y-66674394D01*
X96387259Y-66765606D01*
X96360000Y-66867339D01*
X96360000Y-66972661D01*
X96387259Y-67074394D01*
X96439920Y-67165606D01*
X96444314Y-67170000D01*
X95285885Y-67170000D01*
X95287085Y-67177584D01*
X95340591Y-67342255D01*
X95419195Y-67496524D01*
X95520967Y-67636602D01*
X95643397Y-67759032D01*
X95783475Y-67860804D01*
X95937742Y-67939408D01*
X96102415Y-67992914D01*
X96273429Y-68020000D01*
X96510000Y-68020000D01*
X96510000Y-67235686D01*
X96514394Y-67240080D01*
X96605606Y-67292741D01*
X96707339Y-67320000D01*
X96812661Y-67320000D01*
X96914394Y-67292741D01*
X97005606Y-67240080D01*
X97010000Y-67235686D01*
X97010000Y-68020000D01*
X97246571Y-68020000D01*
X97417584Y-67992914D01*
X97582257Y-67939408D01*
X97736524Y-67860804D01*
X97876602Y-67759032D01*
X97999032Y-67636602D01*
X98100804Y-67496524D01*
X98179408Y-67342257D01*
X98232913Y-67177584D01*
X98254380Y-67042052D01*
X98284309Y-66978918D01*
X98343620Y-66941986D01*
X98413483Y-66942984D01*
X98464534Y-66973769D01*
X101363181Y-69872416D01*
X101396666Y-69933739D01*
X101399500Y-69960097D01*
X101399500Y-87459902D01*
X101379815Y-87526941D01*
X101363181Y-87547583D01*
X99164301Y-89746462D01*
X99102978Y-89779947D01*
X99044527Y-89778556D01*
X98934096Y-89748966D01*
X98934092Y-89748965D01*
X98934091Y-89748965D01*
X98934090Y-89748964D01*
X98934085Y-89748964D01*
X98713502Y-89729666D01*
X98713498Y-89729666D01*
X98492914Y-89748964D01*
X98492907Y-89748965D01*
X98279024Y-89806275D01*
X98279013Y-89806279D01*
X98078336Y-89899856D01*
X98078334Y-89899857D01*
X97896944Y-90026868D01*
X97740368Y-90183444D01*
X97613357Y-90364834D01*
X97613356Y-90364836D01*
X97519779Y-90565513D01*
X97519775Y-90565524D01*
X97462465Y-90779407D01*
X97462464Y-90779414D01*
X97443166Y-90999998D01*
X97443166Y-91000001D01*
X97462464Y-91220585D01*
X97462465Y-91220592D01*
X97519775Y-91434475D01*
X97519779Y-91434486D01*
X97596683Y-91599407D01*
X97613358Y-91635167D01*
X97740368Y-91816555D01*
X97896945Y-91973132D01*
X98078333Y-92100142D01*
X98202182Y-92157893D01*
X98254622Y-92204065D01*
X98273774Y-92271258D01*
X98253559Y-92338139D01*
X98202183Y-92382657D01*
X98078584Y-92440293D01*
X98013157Y-92486104D01*
X98575924Y-93048871D01*
X98516647Y-93064755D01*
X98400353Y-93131898D01*
X98305398Y-93226853D01*
X98238255Y-93343147D01*
X98222371Y-93402424D01*
X97659604Y-92839657D01*
X97613793Y-92905084D01*
X97520249Y-93105690D01*
X97520245Y-93105699D01*
X97462961Y-93319490D01*
X97462959Y-93319500D01*
X97443668Y-93539999D01*
X97443668Y-93540001D01*
X97458791Y-93712859D01*
X97445024Y-93781359D01*
X97396409Y-93831542D01*
X97328380Y-93847475D01*
X97262537Y-93824100D01*
X97247582Y-93811347D01*
X95136819Y-91700584D01*
X95103334Y-91639261D01*
X95100500Y-91612903D01*
X95100500Y-80086013D01*
X95120185Y-80018974D01*
X95172989Y-79973219D01*
X95242147Y-79963275D01*
X95305703Y-79992300D01*
X95339066Y-80038573D01*
X95340589Y-80042252D01*
X95419195Y-80196524D01*
X95520967Y-80336602D01*
X95643397Y-80459032D01*
X95783475Y-80560804D01*
X95937742Y-80639408D01*
X96102415Y-80692914D01*
X96273429Y-80720000D01*
X96510000Y-80720000D01*
X96510000Y-79935686D01*
X96514394Y-79940080D01*
X96605606Y-79992741D01*
X96707339Y-80020000D01*
X96812661Y-80020000D01*
X96914394Y-79992741D01*
X97005606Y-79940080D01*
X97010000Y-79935686D01*
X97010000Y-80720000D01*
X97246571Y-80720000D01*
X97417584Y-80692914D01*
X97582257Y-80639408D01*
X97736524Y-80560804D01*
X97876602Y-80459032D01*
X97999032Y-80336602D01*
X98100804Y-80196524D01*
X98179408Y-80042255D01*
X98232914Y-79877584D01*
X98234115Y-79870000D01*
X97075686Y-79870000D01*
X97080080Y-79865606D01*
X97132741Y-79774394D01*
X97160000Y-79672661D01*
X97160000Y-79567339D01*
X97132741Y-79465606D01*
X97080080Y-79374394D01*
X97075686Y-79370000D01*
X98234115Y-79370000D01*
X98234115Y-79369999D01*
X98232914Y-79362415D01*
X98179408Y-79197744D01*
X98100804Y-79043475D01*
X97999032Y-78903397D01*
X97876602Y-78780967D01*
X97736524Y-78679195D01*
X97582257Y-78600591D01*
X97417584Y-78547085D01*
X97246571Y-78520000D01*
X97010000Y-78520000D01*
X97010000Y-79304314D01*
X97005606Y-79299920D01*
X96914394Y-79247259D01*
X96812661Y-79220000D01*
X96707339Y-79220000D01*
X96605606Y-79247259D01*
X96514394Y-79299920D01*
X96510000Y-79304314D01*
X96510000Y-78520000D01*
X96273429Y-78520000D01*
X96102415Y-78547085D01*
X95937742Y-78600591D01*
X95783475Y-78679195D01*
X95643397Y-78780967D01*
X95520967Y-78903397D01*
X95419195Y-79043475D01*
X95340588Y-79197749D01*
X95339064Y-79201431D01*
X95295227Y-79255837D01*
X95228934Y-79277907D01*
X95161234Y-79260632D01*
X95113620Y-79209498D01*
X95100500Y-79153986D01*
X95100500Y-77547323D01*
X95120185Y-77480284D01*
X95172989Y-77434529D01*
X95242147Y-77424585D01*
X95305703Y-77453610D01*
X95337818Y-77498152D01*
X95337915Y-77498104D01*
X95338231Y-77498725D01*
X95339067Y-77499884D01*
X95340125Y-77502439D01*
X95340127Y-77502445D01*
X95418768Y-77656788D01*
X95520586Y-77796928D01*
X95643072Y-77919414D01*
X95783212Y-78021232D01*
X95937555Y-78099873D01*
X96102299Y-78153402D01*
X96273389Y-78180500D01*
X96273390Y-78180500D01*
X97246610Y-78180500D01*
X97246611Y-78180500D01*
X97417701Y-78153402D01*
X97582445Y-78099873D01*
X97736788Y-78021232D01*
X97876928Y-77919414D01*
X97999414Y-77796928D01*
X98101232Y-77656788D01*
X98179873Y-77502445D01*
X98233402Y-77337701D01*
X98260500Y-77166611D01*
X98260500Y-76993389D01*
X98233402Y-76822299D01*
X98179873Y-76657555D01*
X98101232Y-76503212D01*
X97999414Y-76363072D01*
X97876928Y-76240586D01*
X97736788Y-76138768D01*
X97582445Y-76060127D01*
X97417701Y-76006598D01*
X97417699Y-76006597D01*
X97417698Y-76006597D01*
X97286271Y-75985781D01*
X97246611Y-75979500D01*
X96273389Y-75979500D01*
X96233728Y-75985781D01*
X96102302Y-76006597D01*
X95937552Y-76060128D01*
X95783211Y-76138768D01*
X95703256Y-76196859D01*
X95643072Y-76240586D01*
X95643070Y-76240588D01*
X95643069Y-76240588D01*
X95520588Y-76363069D01*
X95520588Y-76363070D01*
X95520586Y-76363072D01*
X95506909Y-76381897D01*
X95418768Y-76503211D01*
X95340125Y-76657556D01*
X95339064Y-76660121D01*
X95338398Y-76660946D01*
X95337915Y-76661896D01*
X95337715Y-76661794D01*
X95295227Y-76714527D01*
X95228934Y-76736597D01*
X95161234Y-76719322D01*
X95113620Y-76668188D01*
X95100500Y-76612676D01*
X95100500Y-75007323D01*
X95120185Y-74940284D01*
X95172989Y-74894529D01*
X95242147Y-74884585D01*
X95305703Y-74913610D01*
X95337818Y-74958152D01*
X95337915Y-74958104D01*
X95338231Y-74958725D01*
X95339067Y-74959884D01*
X95340125Y-74962439D01*
X95340127Y-74962445D01*
X95418768Y-75116788D01*
X95520586Y-75256928D01*
X95643072Y-75379414D01*
X95783212Y-75481232D01*
X95937555Y-75559873D01*
X96102299Y-75613402D01*
X96273389Y-75640500D01*
X96273390Y-75640500D01*
X97246610Y-75640500D01*
X97246611Y-75640500D01*
X97417701Y-75613402D01*
X97582445Y-75559873D01*
X97736788Y-75481232D01*
X97876928Y-75379414D01*
X97999414Y-75256928D01*
X98101232Y-75116788D01*
X98179873Y-74962445D01*
X98233402Y-74797701D01*
X98260500Y-74626611D01*
X98260500Y-74453389D01*
X98233402Y-74282299D01*
X98179873Y-74117555D01*
X98101232Y-73963212D01*
X97999414Y-73823072D01*
X97876928Y-73700586D01*
X97736788Y-73598768D01*
X97582445Y-73520127D01*
X97417701Y-73466598D01*
X97417699Y-73466597D01*
X97417698Y-73466597D01*
X97286271Y-73445781D01*
X97246611Y-73439500D01*
X96273389Y-73439500D01*
X96233728Y-73445781D01*
X96102302Y-73466597D01*
X95937552Y-73520128D01*
X95783211Y-73598768D01*
X95703256Y-73656859D01*
X95643072Y-73700586D01*
X95643070Y-73700588D01*
X95643069Y-73700588D01*
X95520588Y-73823069D01*
X95520588Y-73823070D01*
X95520586Y-73823072D01*
X95476859Y-73883256D01*
X95418768Y-73963211D01*
X95340125Y-74117556D01*
X95339064Y-74120121D01*
X95338398Y-74120946D01*
X95337915Y-74121896D01*
X95337715Y-74121794D01*
X95295227Y-74174527D01*
X95228934Y-74196597D01*
X95161234Y-74179322D01*
X95113620Y-74128188D01*
X95100500Y-74072676D01*
X95100500Y-72920945D01*
X95100498Y-72920936D01*
X95095023Y-72900500D01*
X95059577Y-72768215D01*
X95016569Y-72693723D01*
X94980520Y-72631284D01*
X94868716Y-72519480D01*
X94868715Y-72519479D01*
X94864385Y-72515149D01*
X94864374Y-72515139D01*
X94435845Y-72086610D01*
X95259500Y-72086610D01*
X95279006Y-72209771D01*
X95286598Y-72257701D01*
X95340127Y-72422445D01*
X95418768Y-72576788D01*
X95520586Y-72716928D01*
X95643072Y-72839414D01*
X95783212Y-72941232D01*
X95937555Y-73019873D01*
X96102299Y-73073402D01*
X96273389Y-73100500D01*
X96273390Y-73100500D01*
X97246610Y-73100500D01*
X97246611Y-73100500D01*
X97417701Y-73073402D01*
X97582445Y-73019873D01*
X97736788Y-72941232D01*
X97876928Y-72839414D01*
X97999414Y-72716928D01*
X98101232Y-72576788D01*
X98179873Y-72422445D01*
X98233402Y-72257701D01*
X98260500Y-72086611D01*
X98260500Y-71913389D01*
X98233402Y-71742299D01*
X98179873Y-71577555D01*
X98101232Y-71423212D01*
X97999414Y-71283072D01*
X97876928Y-71160586D01*
X97736788Y-71058768D01*
X97582445Y-70980127D01*
X97417701Y-70926598D01*
X97417699Y-70926597D01*
X97417698Y-70926597D01*
X97286271Y-70905781D01*
X97246611Y-70899500D01*
X96273389Y-70899500D01*
X96233728Y-70905781D01*
X96102302Y-70926597D01*
X95937552Y-70980128D01*
X95783211Y-71058768D01*
X95703256Y-71116859D01*
X95643072Y-71160586D01*
X95643070Y-71160588D01*
X95643069Y-71160588D01*
X95520588Y-71283069D01*
X95520588Y-71283070D01*
X95520586Y-71283072D01*
X95505525Y-71303802D01*
X95418768Y-71423211D01*
X95340128Y-71577552D01*
X95286597Y-71742302D01*
X95259500Y-71913389D01*
X95259500Y-72086610D01*
X94435845Y-72086610D01*
X91895845Y-69546610D01*
X95259500Y-69546610D01*
X95279006Y-69669771D01*
X95286598Y-69717701D01*
X95340127Y-69882445D01*
X95418768Y-70036788D01*
X95520586Y-70176928D01*
X95643072Y-70299414D01*
X95783212Y-70401232D01*
X95937555Y-70479873D01*
X96102299Y-70533402D01*
X96273389Y-70560500D01*
X96273390Y-70560500D01*
X97246610Y-70560500D01*
X97246611Y-70560500D01*
X97417701Y-70533402D01*
X97582445Y-70479873D01*
X97736788Y-70401232D01*
X97876928Y-70299414D01*
X97999414Y-70176928D01*
X98101232Y-70036788D01*
X98179873Y-69882445D01*
X98233402Y-69717701D01*
X98260500Y-69546611D01*
X98260500Y-69373389D01*
X98233402Y-69202299D01*
X98179873Y-69037555D01*
X98101232Y-68883212D01*
X97999414Y-68743072D01*
X97876928Y-68620586D01*
X97736788Y-68518768D01*
X97582445Y-68440127D01*
X97417701Y-68386598D01*
X97417699Y-68386597D01*
X97417698Y-68386597D01*
X97286271Y-68365781D01*
X97246611Y-68359500D01*
X96273389Y-68359500D01*
X96233728Y-68365781D01*
X96102302Y-68386597D01*
X95937552Y-68440128D01*
X95783211Y-68518768D01*
X95703256Y-68576859D01*
X95643072Y-68620586D01*
X95643070Y-68620588D01*
X95643069Y-68620588D01*
X95520588Y-68743069D01*
X95520588Y-68743070D01*
X95520586Y-68743072D01*
X95512988Y-68753530D01*
X95418768Y-68883211D01*
X95340128Y-69037552D01*
X95286597Y-69202302D01*
X95259500Y-69373389D01*
X95259500Y-69546610D01*
X91895845Y-69546610D01*
X91754910Y-69405675D01*
X91721425Y-69344352D01*
X91722817Y-69285899D01*
X91751033Y-69180598D01*
X91751032Y-69180598D01*
X91751035Y-69180591D01*
X91770334Y-68960000D01*
X91768264Y-68936345D01*
X91751355Y-68743069D01*
X91751035Y-68739409D01*
X91693723Y-68525520D01*
X91600142Y-68324833D01*
X91473132Y-68143445D01*
X91316555Y-67986868D01*
X91135167Y-67859858D01*
X91011907Y-67802381D01*
X90959468Y-67756210D01*
X90940316Y-67689017D01*
X90960531Y-67622136D01*
X91011908Y-67577618D01*
X91135167Y-67520142D01*
X91316555Y-67393132D01*
X91473132Y-67236555D01*
X91600142Y-67055167D01*
X91693723Y-66854480D01*
X91751035Y-66640591D01*
X91770334Y-66420000D01*
X91751035Y-66199409D01*
X91693723Y-65985520D01*
X91600142Y-65784833D01*
X91473132Y-65603445D01*
X91316555Y-65446868D01*
X91135167Y-65319858D01*
X91135163Y-65319856D01*
X91011317Y-65262106D01*
X90958877Y-65215934D01*
X90939725Y-65148741D01*
X90959941Y-65081859D01*
X91011317Y-65037342D01*
X91134912Y-64979708D01*
X91134914Y-64979707D01*
X91200342Y-64933894D01*
X90637575Y-64371127D01*
X90696853Y-64355245D01*
X90813147Y-64288102D01*
X90908102Y-64193147D01*
X90975245Y-64076853D01*
X90991128Y-64017575D01*
X91553894Y-64580342D01*
X91599706Y-64514915D01*
X91693250Y-64314309D01*
X91693254Y-64314300D01*
X91750538Y-64100509D01*
X91750540Y-64100499D01*
X91769832Y-63880000D01*
X91769832Y-63879999D01*
X91750540Y-63659500D01*
X91750538Y-63659490D01*
X91693254Y-63445699D01*
X91693250Y-63445690D01*
X91599707Y-63245085D01*
X91599706Y-63245083D01*
X91553894Y-63179657D01*
X91553894Y-63179656D01*
X90991127Y-63742423D01*
X90975245Y-63683147D01*
X90908102Y-63566853D01*
X90813147Y-63471898D01*
X90696853Y-63404755D01*
X90637575Y-63388872D01*
X91200342Y-62826105D01*
X91200341Y-62826103D01*
X91134919Y-62780295D01*
X90934309Y-62686749D01*
X90934300Y-62686745D01*
X90720509Y-62629461D01*
X90720499Y-62629459D01*
X90500001Y-62610168D01*
X90499999Y-62610168D01*
X90279500Y-62629459D01*
X90279490Y-62629461D01*
X90065699Y-62686745D01*
X90065690Y-62686749D01*
X89865084Y-62780293D01*
X89799657Y-62826104D01*
X90362424Y-63388871D01*
X90303147Y-63404755D01*
X90186853Y-63471898D01*
X90091898Y-63566853D01*
X90024755Y-63683147D01*
X90008871Y-63742424D01*
X89446104Y-63179657D01*
X89400293Y-63245084D01*
X89306749Y-63445690D01*
X89306745Y-63445699D01*
X89249461Y-63659490D01*
X89249459Y-63659500D01*
X89230168Y-63879999D01*
X89230168Y-63880000D01*
X89249459Y-64100499D01*
X89249461Y-64100509D01*
X89306745Y-64314300D01*
X89306749Y-64314309D01*
X89400295Y-64514919D01*
X89446103Y-64580341D01*
X89446105Y-64580342D01*
X90008871Y-64017575D01*
X90024755Y-64076853D01*
X90091898Y-64193147D01*
X90186853Y-64288102D01*
X90303147Y-64355245D01*
X90362424Y-64371128D01*
X89799656Y-64933894D01*
X89865083Y-64979706D01*
X89865085Y-64979707D01*
X89988683Y-65037342D01*
X90041122Y-65083514D01*
X90060274Y-65150708D01*
X90040058Y-65217589D01*
X89988683Y-65262106D01*
X89864833Y-65319857D01*
X89683444Y-65446868D01*
X89526868Y-65603444D01*
X89399857Y-65784834D01*
X89399856Y-65784836D01*
X89306279Y-65985513D01*
X89306275Y-65985524D01*
X89248965Y-66199407D01*
X89248964Y-66199414D01*
X89229666Y-66419998D01*
X89229666Y-66420001D01*
X89248964Y-66640585D01*
X89248967Y-66640599D01*
X89268729Y-66714355D01*
X89267066Y-66784205D01*
X89236635Y-66834128D01*
X87631286Y-68439478D01*
X87519481Y-68551282D01*
X87519479Y-68551284D01*
X87503447Y-68579055D01*
X87494757Y-68594106D01*
X87440423Y-68688215D01*
X87399499Y-68840943D01*
X87399499Y-68840945D01*
X87399499Y-69009046D01*
X87399500Y-69009059D01*
X87399500Y-75968930D01*
X87399499Y-75968948D01*
X87399499Y-76134654D01*
X87399498Y-76134654D01*
X87440423Y-76287385D01*
X87469358Y-76337500D01*
X87469359Y-76337504D01*
X87469360Y-76337504D01*
X87482005Y-76359407D01*
X87519479Y-76424314D01*
X87519481Y-76424317D01*
X87638349Y-76543185D01*
X87638355Y-76543190D01*
X89104539Y-78009374D01*
X89104549Y-78009385D01*
X89108879Y-78013715D01*
X89108880Y-78013716D01*
X89220684Y-78125520D01*
X89307495Y-78175639D01*
X89307497Y-78175641D01*
X89357612Y-78204576D01*
X89357614Y-78204576D01*
X89357615Y-78204577D01*
X89387877Y-78212685D01*
X89447537Y-78249048D01*
X89478068Y-78311894D01*
X89469774Y-78381270D01*
X89457360Y-78403583D01*
X89400295Y-78485079D01*
X89400293Y-78485083D01*
X89306749Y-78685690D01*
X89306745Y-78685699D01*
X89249461Y-78899490D01*
X89249459Y-78899500D01*
X89230168Y-79119999D01*
X89230168Y-79120000D01*
X89249459Y-79340499D01*
X89249461Y-79340509D01*
X89306745Y-79554300D01*
X89306749Y-79554309D01*
X89400295Y-79754919D01*
X89446103Y-79820341D01*
X89446104Y-79820342D01*
X90008871Y-79257574D01*
X90024755Y-79316853D01*
X90091898Y-79433147D01*
X90186853Y-79528102D01*
X90303147Y-79595245D01*
X90362424Y-79611128D01*
X89799656Y-80173894D01*
X89865083Y-80219706D01*
X89865085Y-80219707D01*
X89988683Y-80277342D01*
X90041122Y-80323514D01*
X90060274Y-80390708D01*
X90040058Y-80457589D01*
X89988683Y-80502106D01*
X89864833Y-80559857D01*
X89683444Y-80686868D01*
X89526868Y-80843444D01*
X89399857Y-81024834D01*
X89399856Y-81024836D01*
X89306279Y-81225513D01*
X89306275Y-81225524D01*
X89248965Y-81439407D01*
X89248964Y-81439414D01*
X89229666Y-81659998D01*
X89229666Y-81660001D01*
X89248964Y-81880585D01*
X89248965Y-81880592D01*
X89306275Y-82094475D01*
X89306279Y-82094486D01*
X89383693Y-82260501D01*
X89399858Y-82295167D01*
X89526868Y-82476555D01*
X89683445Y-82633132D01*
X89864833Y-82760142D01*
X89908041Y-82780290D01*
X89988091Y-82817618D01*
X90040531Y-82863790D01*
X90059683Y-82930983D01*
X90039467Y-82997865D01*
X89988091Y-83042382D01*
X89864836Y-83099856D01*
X89864834Y-83099857D01*
X89683444Y-83226868D01*
X89526868Y-83383444D01*
X89399857Y-83564834D01*
X89399856Y-83564836D01*
X89306279Y-83765513D01*
X89306275Y-83765524D01*
X89248965Y-83979407D01*
X89248964Y-83979414D01*
X89229666Y-84199998D01*
X89229666Y-84200001D01*
X89248964Y-84420585D01*
X89248965Y-84420592D01*
X89306275Y-84634475D01*
X89306279Y-84634486D01*
X89390289Y-84814646D01*
X89399858Y-84835167D01*
X89526868Y-85016555D01*
X89683445Y-85173132D01*
X89864833Y-85300142D01*
X89926828Y-85329050D01*
X89988091Y-85357618D01*
X90040531Y-85403790D01*
X90059683Y-85470983D01*
X90039467Y-85537865D01*
X89988091Y-85582382D01*
X89864836Y-85639856D01*
X89864834Y-85639857D01*
X89683444Y-85766868D01*
X89526868Y-85923444D01*
X89399857Y-86104834D01*
X89399856Y-86104836D01*
X89306279Y-86305513D01*
X89306275Y-86305524D01*
X89248965Y-86519407D01*
X89248964Y-86519414D01*
X89229666Y-86739998D01*
X89229666Y-86740001D01*
X89248964Y-86960585D01*
X89248965Y-86960592D01*
X89306275Y-87174475D01*
X89306279Y-87174486D01*
X89399856Y-87375163D01*
X89399858Y-87375167D01*
X89526868Y-87556555D01*
X89683445Y-87713132D01*
X89864833Y-87840142D01*
X89926828Y-87869050D01*
X89988091Y-87897618D01*
X90040531Y-87943790D01*
X90059683Y-88010983D01*
X90039467Y-88077865D01*
X89988091Y-88122382D01*
X89864836Y-88179856D01*
X89864834Y-88179857D01*
X89683444Y-88306868D01*
X89526868Y-88463444D01*
X89399857Y-88644834D01*
X89399856Y-88644836D01*
X89306279Y-88845513D01*
X89306275Y-88845524D01*
X89248965Y-89059407D01*
X89248964Y-89059414D01*
X89229666Y-89279998D01*
X89229666Y-89280001D01*
X89248964Y-89500585D01*
X89248965Y-89500592D01*
X89306275Y-89714475D01*
X89306279Y-89714486D01*
X89373991Y-89859695D01*
X89399858Y-89915167D01*
X89526868Y-90096555D01*
X89683445Y-90253132D01*
X89864833Y-90380142D01*
X89926828Y-90409050D01*
X89988091Y-90437618D01*
X90040531Y-90483790D01*
X90059683Y-90550983D01*
X90039467Y-90617865D01*
X89988091Y-90662382D01*
X89864836Y-90719856D01*
X89864834Y-90719857D01*
X89683444Y-90846868D01*
X89526868Y-91003444D01*
X89399857Y-91184834D01*
X89399856Y-91184836D01*
X89306279Y-91385513D01*
X89306275Y-91385524D01*
X89248965Y-91599407D01*
X89248964Y-91599414D01*
X89229666Y-91819998D01*
X89229666Y-91820001D01*
X89248964Y-92040585D01*
X89248965Y-92040592D01*
X89306275Y-92254475D01*
X89306279Y-92254486D01*
X89345287Y-92338139D01*
X89399858Y-92455167D01*
X89526868Y-92636555D01*
X89683445Y-92793132D01*
X89864833Y-92920142D01*
X89926828Y-92949050D01*
X89988091Y-92977618D01*
X90040531Y-93023790D01*
X90059683Y-93090983D01*
X90039467Y-93157865D01*
X89988091Y-93202382D01*
X89864836Y-93259856D01*
X89864834Y-93259857D01*
X89683444Y-93386868D01*
X89526868Y-93543444D01*
X89399857Y-93724834D01*
X89399856Y-93724836D01*
X89306279Y-93925513D01*
X89306275Y-93925524D01*
X89248965Y-94139407D01*
X89248964Y-94139414D01*
X89229666Y-94359998D01*
X89229666Y-94360001D01*
X89248964Y-94580585D01*
X89248965Y-94580592D01*
X89306275Y-94794475D01*
X89306279Y-94794486D01*
X89349082Y-94886277D01*
X89399858Y-94995167D01*
X89526868Y-95176555D01*
X89683445Y-95333132D01*
X89864833Y-95460142D01*
X89926828Y-95489050D01*
X89988091Y-95517618D01*
X90040531Y-95563790D01*
X90059683Y-95630983D01*
X90039467Y-95697865D01*
X89988091Y-95742382D01*
X89864836Y-95799856D01*
X89864834Y-95799857D01*
X89683444Y-95926868D01*
X89526868Y-96083444D01*
X89399857Y-96264834D01*
X89399856Y-96264836D01*
X89306279Y-96465513D01*
X89306275Y-96465524D01*
X89248965Y-96679407D01*
X89248964Y-96679414D01*
X89229666Y-96899998D01*
X89229666Y-96900001D01*
X89248964Y-97120585D01*
X89248965Y-97120592D01*
X89306275Y-97334475D01*
X89306279Y-97334486D01*
X89392718Y-97519856D01*
X89399858Y-97535167D01*
X89526868Y-97716555D01*
X89683445Y-97873132D01*
X89864833Y-98000142D01*
X89926828Y-98029050D01*
X89988091Y-98057618D01*
X90040531Y-98103790D01*
X90059683Y-98170983D01*
X90039467Y-98237865D01*
X89988091Y-98282382D01*
X89864836Y-98339856D01*
X89864834Y-98339857D01*
X89683444Y-98466868D01*
X89526868Y-98623444D01*
X89399857Y-98804834D01*
X89399856Y-98804836D01*
X89306279Y-99005513D01*
X89306275Y-99005524D01*
X89248965Y-99219407D01*
X89248964Y-99219414D01*
X89229666Y-99439998D01*
X89229666Y-99440001D01*
X89248964Y-99660585D01*
X89248965Y-99660592D01*
X89306275Y-99874475D01*
X89306279Y-99874486D01*
X89349082Y-99966277D01*
X89399858Y-100075167D01*
X89526868Y-100256555D01*
X89683445Y-100413132D01*
X89864833Y-100540142D01*
X89926828Y-100569050D01*
X89988091Y-100597618D01*
X90040531Y-100643790D01*
X90059683Y-100710983D01*
X90039467Y-100777865D01*
X89988091Y-100822382D01*
X89864836Y-100879856D01*
X89864834Y-100879857D01*
X89683444Y-101006868D01*
X89526868Y-101163444D01*
X89399857Y-101344834D01*
X89399856Y-101344836D01*
X89306279Y-101545513D01*
X89306275Y-101545524D01*
X89248965Y-101759407D01*
X89248964Y-101759414D01*
X89229666Y-101979998D01*
X89229666Y-101980001D01*
X89248964Y-102200585D01*
X89248965Y-102200592D01*
X89306275Y-102414475D01*
X89306279Y-102414486D01*
X89349082Y-102506277D01*
X89399858Y-102615167D01*
X89526868Y-102796555D01*
X89683445Y-102953132D01*
X89864833Y-103080142D01*
X89926828Y-103109050D01*
X89988091Y-103137618D01*
X90040531Y-103183790D01*
X90059683Y-103250983D01*
X90039467Y-103317865D01*
X89988091Y-103362382D01*
X89864836Y-103419856D01*
X89864834Y-103419857D01*
X89683444Y-103546868D01*
X89526868Y-103703444D01*
X89399857Y-103884834D01*
X89399856Y-103884836D01*
X89306279Y-104085513D01*
X89306275Y-104085524D01*
X89248965Y-104299407D01*
X89248964Y-104299414D01*
X89229666Y-104519998D01*
X89229666Y-104520001D01*
X89248964Y-104740585D01*
X89248965Y-104740592D01*
X89306275Y-104954475D01*
X89306279Y-104954486D01*
X89349082Y-105046277D01*
X89399858Y-105155167D01*
X89526868Y-105336555D01*
X89683445Y-105493132D01*
X89864833Y-105620142D01*
X89926828Y-105649050D01*
X89988091Y-105677618D01*
X90040531Y-105723790D01*
X90059683Y-105790983D01*
X90039467Y-105857865D01*
X89988091Y-105902382D01*
X89864836Y-105959856D01*
X89864834Y-105959857D01*
X89683444Y-106086868D01*
X89526868Y-106243444D01*
X89399857Y-106424834D01*
X89399856Y-106424836D01*
X89306279Y-106625513D01*
X89306275Y-106625524D01*
X89248965Y-106839407D01*
X89248964Y-106839414D01*
X89229666Y-107059998D01*
X89229666Y-107060001D01*
X89248964Y-107280585D01*
X89248965Y-107280592D01*
X89306275Y-107494475D01*
X89306279Y-107494486D01*
X89349082Y-107586277D01*
X89399858Y-107695167D01*
X89526868Y-107876555D01*
X89683445Y-108033132D01*
X89864833Y-108160142D01*
X89907374Y-108179979D01*
X89988091Y-108217618D01*
X90040531Y-108263790D01*
X90059683Y-108330983D01*
X90039467Y-108397865D01*
X89988091Y-108442382D01*
X89864836Y-108499856D01*
X89864834Y-108499857D01*
X89683444Y-108626868D01*
X89526868Y-108783444D01*
X89399857Y-108964834D01*
X89399856Y-108964836D01*
X89306279Y-109165513D01*
X89306275Y-109165524D01*
X89248965Y-109379407D01*
X89248964Y-109379414D01*
X89229666Y-109599998D01*
X89229666Y-109600001D01*
X89248964Y-109820585D01*
X89248965Y-109820592D01*
X89306275Y-110034475D01*
X89306279Y-110034486D01*
X89389232Y-110212379D01*
X89399858Y-110235167D01*
X89526868Y-110416555D01*
X89683445Y-110573132D01*
X89864833Y-110700142D01*
X89985572Y-110756443D01*
X90065513Y-110793720D01*
X90065515Y-110793720D01*
X90065520Y-110793723D01*
X90279409Y-110851035D01*
X90436974Y-110864820D01*
X90499998Y-110870334D01*
X90500000Y-110870334D01*
X90500002Y-110870334D01*
X90555147Y-110865509D01*
X90720591Y-110851035D01*
X90934480Y-110793723D01*
X91135167Y-110700142D01*
X91316555Y-110573132D01*
X91473132Y-110416555D01*
X91600142Y-110235167D01*
X91638529Y-110152844D01*
X119700000Y-110152844D01*
X119706401Y-110212372D01*
X119706403Y-110212379D01*
X119756645Y-110347086D01*
X119756649Y-110347093D01*
X119842809Y-110462187D01*
X119842812Y-110462190D01*
X119957906Y-110548350D01*
X119957913Y-110548354D01*
X120092620Y-110598596D01*
X120092627Y-110598598D01*
X120152155Y-110604999D01*
X120152172Y-110605000D01*
X121250000Y-110605000D01*
X121250000Y-109405001D01*
X121310402Y-109430021D01*
X121435981Y-109455000D01*
X121564019Y-109455000D01*
X121689598Y-109430021D01*
X121750000Y-109405001D01*
X121750000Y-110605000D01*
X122847828Y-110605000D01*
X122847844Y-110604999D01*
X122907372Y-110598598D01*
X122907379Y-110598596D01*
X123042086Y-110548354D01*
X123042093Y-110548350D01*
X123157187Y-110462190D01*
X123157190Y-110462187D01*
X123243350Y-110347093D01*
X123243354Y-110347086D01*
X123293596Y-110212379D01*
X123293598Y-110212372D01*
X123299999Y-110152844D01*
X123300000Y-110152827D01*
X123300000Y-109055000D01*
X122100001Y-109055000D01*
X122125021Y-108994598D01*
X122150000Y-108869019D01*
X122150000Y-108740981D01*
X122125021Y-108615402D01*
X122100001Y-108555000D01*
X123300000Y-108555000D01*
X123300000Y-107457172D01*
X123299999Y-107457155D01*
X123293598Y-107397627D01*
X123293596Y-107397618D01*
X123243354Y-107262913D01*
X123243350Y-107262906D01*
X123157190Y-107147812D01*
X123157187Y-107147809D01*
X123042093Y-107061649D01*
X123042086Y-107061645D01*
X122907379Y-107011403D01*
X122907372Y-107011401D01*
X122847844Y-107005000D01*
X121750000Y-107005000D01*
X121750000Y-108204998D01*
X121689598Y-108179979D01*
X121564019Y-108155000D01*
X121435981Y-108155000D01*
X121310402Y-108179979D01*
X121250000Y-108204998D01*
X121250000Y-107005000D01*
X120152155Y-107005000D01*
X120092627Y-107011401D01*
X120092620Y-107011403D01*
X119957913Y-107061645D01*
X119957906Y-107061649D01*
X119842812Y-107147809D01*
X119842809Y-107147812D01*
X119756649Y-107262906D01*
X119756645Y-107262913D01*
X119706404Y-107397618D01*
X119706401Y-107397627D01*
X119700000Y-107457155D01*
X119700000Y-108555000D01*
X120899999Y-108555000D01*
X120874979Y-108615402D01*
X120850000Y-108740981D01*
X120850000Y-108869019D01*
X120874979Y-108994598D01*
X120899999Y-109055000D01*
X119700000Y-109055000D01*
X119700000Y-110152844D01*
X91638529Y-110152844D01*
X91693723Y-110034480D01*
X91751035Y-109820591D01*
X91770334Y-109600000D01*
X91751035Y-109379409D01*
X91693723Y-109165520D01*
X91669181Y-109112890D01*
X91642187Y-109055000D01*
X91600142Y-108964833D01*
X91473132Y-108783445D01*
X91316555Y-108626868D01*
X91135167Y-108499858D01*
X91011907Y-108442381D01*
X90959468Y-108396210D01*
X90940316Y-108329017D01*
X90960531Y-108262136D01*
X91011908Y-108217618D01*
X91135167Y-108160142D01*
X91316555Y-108033132D01*
X91473132Y-107876555D01*
X91600142Y-107695167D01*
X91693723Y-107494480D01*
X91751035Y-107280591D01*
X91770334Y-107060000D01*
X91751035Y-106839409D01*
X91693723Y-106625520D01*
X91600142Y-106424833D01*
X91473132Y-106243445D01*
X91316555Y-106086868D01*
X91135167Y-105959858D01*
X91011907Y-105902381D01*
X90959468Y-105856210D01*
X90940316Y-105789017D01*
X90960531Y-105722136D01*
X91011908Y-105677618D01*
X91135167Y-105620142D01*
X91316555Y-105493132D01*
X91473132Y-105336555D01*
X91600142Y-105155167D01*
X91693723Y-104954480D01*
X91751035Y-104740591D01*
X91770334Y-104520000D01*
X91751035Y-104299409D01*
X91693723Y-104085520D01*
X91600142Y-103884833D01*
X91473132Y-103703445D01*
X91316555Y-103546868D01*
X91135167Y-103419858D01*
X91081652Y-103394904D01*
X91011908Y-103362382D01*
X90959468Y-103316210D01*
X90940316Y-103249017D01*
X90960531Y-103182136D01*
X91011908Y-103137618D01*
X91135167Y-103080142D01*
X91316555Y-102953132D01*
X91473132Y-102796555D01*
X91600142Y-102615167D01*
X91693723Y-102414480D01*
X91751035Y-102200591D01*
X91770334Y-101980000D01*
X91751035Y-101759409D01*
X91693723Y-101545520D01*
X91600142Y-101344833D01*
X91473132Y-101163445D01*
X91316555Y-101006868D01*
X91135167Y-100879858D01*
X91011907Y-100822381D01*
X90959468Y-100776210D01*
X90940316Y-100709017D01*
X90960531Y-100642136D01*
X91011908Y-100597618D01*
X91135167Y-100540142D01*
X91316555Y-100413132D01*
X91473132Y-100256555D01*
X91600142Y-100075167D01*
X91693723Y-99874480D01*
X91751035Y-99660591D01*
X91770334Y-99440000D01*
X91751035Y-99219409D01*
X91693723Y-99005520D01*
X91600142Y-98804833D01*
X91473132Y-98623445D01*
X91316555Y-98466868D01*
X91135167Y-98339858D01*
X91011907Y-98282381D01*
X90959468Y-98236210D01*
X90940316Y-98169017D01*
X90960531Y-98102136D01*
X91011908Y-98057618D01*
X91012500Y-98057342D01*
X91135167Y-98000142D01*
X91316555Y-97873132D01*
X91473132Y-97716555D01*
X91600142Y-97535167D01*
X91693723Y-97334480D01*
X91751035Y-97120591D01*
X91770334Y-96900000D01*
X91766270Y-96853553D01*
X91756826Y-96745606D01*
X91751035Y-96679409D01*
X91693723Y-96465520D01*
X91689594Y-96456666D01*
X91626243Y-96320807D01*
X91600142Y-96264833D01*
X91473132Y-96083445D01*
X91316555Y-95926868D01*
X91135167Y-95799858D01*
X91011907Y-95742381D01*
X90959468Y-95696210D01*
X90940316Y-95629017D01*
X90960531Y-95562136D01*
X91011908Y-95517618D01*
X91135167Y-95460142D01*
X91316555Y-95333132D01*
X91473132Y-95176555D01*
X91600142Y-94995167D01*
X91693723Y-94794480D01*
X91751035Y-94580591D01*
X91770334Y-94360000D01*
X91751035Y-94139409D01*
X91693723Y-93925520D01*
X91600142Y-93724833D01*
X91473132Y-93543445D01*
X91316555Y-93386868D01*
X91135167Y-93259858D01*
X91011907Y-93202381D01*
X90959468Y-93156210D01*
X90940316Y-93089017D01*
X90960531Y-93022136D01*
X91011908Y-92977618D01*
X91135167Y-92920142D01*
X91316555Y-92793132D01*
X91473132Y-92636555D01*
X91600142Y-92455167D01*
X91693723Y-92254480D01*
X91751035Y-92040591D01*
X91770334Y-91820000D01*
X91751035Y-91599409D01*
X91693723Y-91385520D01*
X91600142Y-91184833D01*
X91473132Y-91003445D01*
X91316555Y-90846868D01*
X91135167Y-90719858D01*
X91011907Y-90662381D01*
X90959468Y-90616210D01*
X90940316Y-90549017D01*
X90960531Y-90482136D01*
X91011908Y-90437618D01*
X91135167Y-90380142D01*
X91316555Y-90253132D01*
X91473132Y-90096555D01*
X91600142Y-89915167D01*
X91693723Y-89714480D01*
X91751035Y-89500591D01*
X91770334Y-89280000D01*
X91751035Y-89059409D01*
X91693723Y-88845520D01*
X91600142Y-88644833D01*
X91473132Y-88463445D01*
X91316555Y-88306868D01*
X91135167Y-88179858D01*
X91011907Y-88122381D01*
X90959468Y-88076210D01*
X90940316Y-88009017D01*
X90960531Y-87942136D01*
X91011908Y-87897618D01*
X91135167Y-87840142D01*
X91316555Y-87713132D01*
X91473132Y-87556555D01*
X91600142Y-87375167D01*
X91693723Y-87174480D01*
X91751035Y-86960591D01*
X91770334Y-86740000D01*
X91769483Y-86730278D01*
X91751035Y-86519414D01*
X91751035Y-86519409D01*
X91693723Y-86305520D01*
X91600142Y-86104833D01*
X91473132Y-85923445D01*
X91316555Y-85766868D01*
X91135167Y-85639858D01*
X91011907Y-85582381D01*
X90959468Y-85536210D01*
X90940316Y-85469017D01*
X90960531Y-85402136D01*
X91011908Y-85357618D01*
X91135167Y-85300142D01*
X91316555Y-85173132D01*
X91473132Y-85016555D01*
X91600142Y-84835167D01*
X91693723Y-84634480D01*
X91751035Y-84420591D01*
X91770334Y-84200000D01*
X91751035Y-83979409D01*
X91693723Y-83765520D01*
X91600142Y-83564833D01*
X91473132Y-83383445D01*
X91316555Y-83226868D01*
X91135167Y-83099858D01*
X91011907Y-83042381D01*
X90959468Y-82996210D01*
X90940316Y-82929017D01*
X90960531Y-82862136D01*
X91011908Y-82817618D01*
X91135167Y-82760142D01*
X91316555Y-82633132D01*
X91473132Y-82476555D01*
X91600142Y-82295167D01*
X91693723Y-82094480D01*
X91751035Y-81880591D01*
X91770334Y-81660000D01*
X91751035Y-81439409D01*
X91693723Y-81225520D01*
X91600142Y-81024833D01*
X91473132Y-80843445D01*
X91316555Y-80686868D01*
X91135167Y-80559858D01*
X91135163Y-80559856D01*
X91011317Y-80502106D01*
X90958877Y-80455934D01*
X90939725Y-80388741D01*
X90959941Y-80321859D01*
X91011317Y-80277342D01*
X91134912Y-80219708D01*
X91134914Y-80219707D01*
X91200342Y-80173894D01*
X90637575Y-79611127D01*
X90696853Y-79595245D01*
X90813147Y-79528102D01*
X90908102Y-79433147D01*
X90975245Y-79316853D01*
X90991127Y-79257575D01*
X91553894Y-79820342D01*
X91599706Y-79754915D01*
X91693250Y-79554309D01*
X91693254Y-79554300D01*
X91750538Y-79340509D01*
X91750540Y-79340499D01*
X91769832Y-79120000D01*
X91769832Y-79119999D01*
X91751496Y-78910429D01*
X91765262Y-78841929D01*
X91813877Y-78791746D01*
X91881906Y-78775812D01*
X91947750Y-78799187D01*
X91962705Y-78811940D01*
X92363181Y-79212416D01*
X92396666Y-79273739D01*
X92399500Y-79300097D01*
X92399500Y-103026330D01*
X92399499Y-103026348D01*
X92399499Y-103192054D01*
X92399498Y-103192054D01*
X92440423Y-103344785D01*
X92469358Y-103394900D01*
X92469359Y-103394904D01*
X92469360Y-103394904D01*
X92519479Y-103481714D01*
X92519481Y-103481717D01*
X92638349Y-103600585D01*
X92638355Y-103600590D01*
X97440309Y-108402544D01*
X97473794Y-108463867D01*
X97472403Y-108522317D01*
X97462466Y-108559403D01*
X97462465Y-108559410D01*
X97443166Y-108779998D01*
X97443166Y-108780001D01*
X97462464Y-109000585D01*
X97462465Y-109000592D01*
X97519775Y-109214475D01*
X97519779Y-109214486D01*
X97522048Y-109219351D01*
X97613358Y-109415167D01*
X97740368Y-109596555D01*
X97896945Y-109753132D01*
X98078333Y-109880142D01*
X98199072Y-109936443D01*
X98279013Y-109973720D01*
X98279015Y-109973720D01*
X98279020Y-109973723D01*
X98492909Y-110031035D01*
X98650474Y-110044820D01*
X98713498Y-110050334D01*
X98713500Y-110050334D01*
X98713502Y-110050334D01*
X98768647Y-110045509D01*
X98934091Y-110031035D01*
X99147980Y-109973723D01*
X99348667Y-109880142D01*
X99530055Y-109753132D01*
X99686632Y-109596555D01*
X99813642Y-109415167D01*
X99907223Y-109214480D01*
X99964535Y-109000591D01*
X99983834Y-108780000D01*
X99964535Y-108559409D01*
X99907223Y-108345520D01*
X99900444Y-108330983D01*
X99847582Y-108217618D01*
X99813642Y-108144833D01*
X99686632Y-107963445D01*
X99530055Y-107806868D01*
X99348667Y-107679858D01*
X99225407Y-107622381D01*
X99172968Y-107576210D01*
X99153816Y-107509017D01*
X99174031Y-107442136D01*
X99225408Y-107397618D01*
X99348667Y-107340142D01*
X99530055Y-107213132D01*
X99686632Y-107056555D01*
X99813642Y-106875167D01*
X99907223Y-106674480D01*
X99964535Y-106460591D01*
X99983834Y-106240000D01*
X99964535Y-106019409D01*
X99907223Y-105805520D01*
X99900444Y-105790983D01*
X99820781Y-105620143D01*
X99813642Y-105604833D01*
X99686632Y-105423445D01*
X99530055Y-105266868D01*
X99348667Y-105139858D01*
X99225407Y-105082381D01*
X99172968Y-105036210D01*
X99153816Y-104969017D01*
X99174031Y-104902136D01*
X99225408Y-104857618D01*
X99348667Y-104800142D01*
X99530055Y-104673132D01*
X99686632Y-104516555D01*
X99813642Y-104335167D01*
X99907223Y-104134480D01*
X99964535Y-103920591D01*
X99983834Y-103700000D01*
X99964535Y-103479409D01*
X99907223Y-103265520D01*
X99900444Y-103250983D01*
X99820781Y-103080143D01*
X99813642Y-103064833D01*
X99686632Y-102883445D01*
X99530055Y-102726868D01*
X99348667Y-102599858D01*
X99225407Y-102542381D01*
X99172968Y-102496210D01*
X99153816Y-102429017D01*
X99174031Y-102362136D01*
X99225408Y-102317618D01*
X99348667Y-102260142D01*
X99530055Y-102133132D01*
X99686632Y-101976555D01*
X99813642Y-101795167D01*
X99907223Y-101594480D01*
X99964535Y-101380591D01*
X99983834Y-101160000D01*
X99964535Y-100939409D01*
X99907223Y-100725520D01*
X99900444Y-100710983D01*
X99820781Y-100540143D01*
X99813642Y-100524833D01*
X99686632Y-100343445D01*
X99530055Y-100186868D01*
X99348667Y-100059858D01*
X99225407Y-100002381D01*
X99172968Y-99956210D01*
X99153816Y-99889017D01*
X99174031Y-99822136D01*
X99225408Y-99777618D01*
X99348667Y-99720142D01*
X99530055Y-99593132D01*
X99686632Y-99436555D01*
X99813642Y-99255167D01*
X99907223Y-99054480D01*
X99964535Y-98840591D01*
X99983834Y-98620000D01*
X99964535Y-98399409D01*
X99907223Y-98185520D01*
X99900444Y-98170983D01*
X99820781Y-98000143D01*
X99813642Y-97984833D01*
X99686632Y-97803445D01*
X99530055Y-97646868D01*
X99348667Y-97519858D01*
X99225407Y-97462381D01*
X99172968Y-97416210D01*
X99153816Y-97349017D01*
X99174031Y-97282136D01*
X99225408Y-97237618D01*
X99348667Y-97180142D01*
X99530055Y-97053132D01*
X99686632Y-96896555D01*
X99813642Y-96715167D01*
X99907223Y-96514480D01*
X99964535Y-96300591D01*
X99983834Y-96080000D01*
X99981531Y-96053682D01*
X99964535Y-95859414D01*
X99964535Y-95859409D01*
X99907223Y-95645520D01*
X99900444Y-95630983D01*
X99847710Y-95517893D01*
X99813642Y-95444833D01*
X99686632Y-95263445D01*
X99530055Y-95106868D01*
X99348667Y-94979858D01*
X99348663Y-94979856D01*
X99224817Y-94922106D01*
X99172377Y-94875934D01*
X99153225Y-94808741D01*
X99173441Y-94741859D01*
X99224817Y-94697342D01*
X99348412Y-94639708D01*
X99348414Y-94639707D01*
X99413842Y-94593894D01*
X98851075Y-94031128D01*
X98910353Y-94015245D01*
X99026647Y-93948102D01*
X99121602Y-93853147D01*
X99188745Y-93736853D01*
X99204628Y-93677575D01*
X99767394Y-94240342D01*
X99813206Y-94174915D01*
X99906750Y-93974309D01*
X99906754Y-93974300D01*
X99964038Y-93760509D01*
X99964040Y-93760499D01*
X99983332Y-93540000D01*
X99983332Y-93539999D01*
X99964040Y-93319500D01*
X99964038Y-93319490D01*
X99906754Y-93105699D01*
X99906750Y-93105690D01*
X99813207Y-92905085D01*
X99813206Y-92905083D01*
X99767394Y-92839657D01*
X99767394Y-92839656D01*
X99204627Y-93402423D01*
X99188745Y-93343147D01*
X99121602Y-93226853D01*
X99026647Y-93131898D01*
X98910353Y-93064755D01*
X98851075Y-93048872D01*
X99413842Y-92486105D01*
X99413841Y-92486103D01*
X99348419Y-92440295D01*
X99224816Y-92382657D01*
X99172377Y-92336484D01*
X99153225Y-92269291D01*
X99173441Y-92202410D01*
X99224812Y-92157895D01*
X99348667Y-92100142D01*
X99530055Y-91973132D01*
X99686632Y-91816555D01*
X99813642Y-91635167D01*
X99907223Y-91434480D01*
X99964535Y-91220591D01*
X99983834Y-91000000D01*
X99964535Y-90779409D01*
X99954596Y-90742316D01*
X99956259Y-90672468D01*
X99986688Y-90622545D01*
X102358506Y-88250728D01*
X102358511Y-88250724D01*
X102368714Y-88240520D01*
X102368716Y-88240520D01*
X102480520Y-88128716D01*
X102538111Y-88028965D01*
X102559577Y-87991785D01*
X102600501Y-87839057D01*
X102600501Y-87680943D01*
X102600501Y-87673348D01*
X102600500Y-87673330D01*
X102600500Y-69580945D01*
X102600500Y-69580943D01*
X102562373Y-69438651D01*
X102562373Y-69438650D01*
X102562373Y-69438649D01*
X102559577Y-69428216D01*
X102559577Y-69428215D01*
X102525225Y-69368716D01*
X102480520Y-69291284D01*
X102368716Y-69179480D01*
X102368715Y-69179479D01*
X102364385Y-69175149D01*
X102364374Y-69175139D01*
X98180054Y-64990819D01*
X98146569Y-64929496D01*
X98151553Y-64859804D01*
X98157244Y-64846856D01*
X98179873Y-64802445D01*
X98233402Y-64637701D01*
X98260500Y-64466611D01*
X98260500Y-64293389D01*
X98233402Y-64122299D01*
X98179873Y-63957555D01*
X98179871Y-63957552D01*
X98179871Y-63957550D01*
X98166239Y-63930796D01*
X98153342Y-63862126D01*
X98179618Y-63797386D01*
X98236724Y-63757128D01*
X98276723Y-63750500D01*
X101930664Y-63750500D01*
X101997703Y-63770185D01*
X102018345Y-63786819D01*
X104213181Y-65981655D01*
X104246666Y-66042978D01*
X104249500Y-66069336D01*
X104249500Y-80098422D01*
X104280290Y-80292826D01*
X104341117Y-80480030D01*
X104381792Y-80559858D01*
X104430476Y-80655405D01*
X104546172Y-80814646D01*
X108546172Y-84814646D01*
X108685354Y-84953828D01*
X108844595Y-85069524D01*
X109019975Y-85158884D01*
X109019979Y-85158886D01*
X109104223Y-85186258D01*
X109146346Y-85199944D01*
X109146347Y-85199945D01*
X109146348Y-85199945D01*
X109207173Y-85219709D01*
X109280076Y-85231255D01*
X109401578Y-85250500D01*
X109401583Y-85250500D01*
X109598416Y-85250500D01*
X116655664Y-85250500D01*
X116722703Y-85270185D01*
X116743345Y-85286819D01*
X118937545Y-87481019D01*
X118971030Y-87542342D01*
X118966046Y-87612034D01*
X118937545Y-87656381D01*
X116893474Y-89700451D01*
X116893474Y-89700452D01*
X116893472Y-89700454D01*
X116872248Y-89729666D01*
X116777776Y-89859694D01*
X116687969Y-90035951D01*
X116686908Y-90039712D01*
X116627591Y-90222269D01*
X116627591Y-90222272D01*
X116596800Y-90416677D01*
X116596800Y-95453271D01*
X116588982Y-95496604D01*
X116553208Y-95592517D01*
X116547511Y-95645513D01*
X116546801Y-95652123D01*
X116546800Y-95652135D01*
X116546800Y-97347870D01*
X116546801Y-97347876D01*
X116553208Y-97407483D01*
X116588982Y-97503395D01*
X116596800Y-97546728D01*
X116596800Y-97698522D01*
X116627590Y-97892926D01*
X116688417Y-98080130D01*
X116773074Y-98246277D01*
X116777776Y-98255505D01*
X116893472Y-98414746D01*
X116893474Y-98414748D01*
X125213181Y-106734455D01*
X125246666Y-106795778D01*
X125249500Y-106822136D01*
X125249500Y-107455023D01*
X125229815Y-107522062D01*
X125209843Y-107545920D01*
X125176442Y-107576911D01*
X125176438Y-107576915D01*
X125008185Y-107787898D01*
X124873258Y-108021599D01*
X124873256Y-108021603D01*
X124774666Y-108272804D01*
X124774664Y-108272811D01*
X124714616Y-108535898D01*
X124694451Y-108804995D01*
X124694451Y-108805004D01*
X124714616Y-109074101D01*
X124774664Y-109337188D01*
X124774666Y-109337195D01*
X124820901Y-109455000D01*
X124873257Y-109588398D01*
X125008185Y-109822102D01*
X125129097Y-109973720D01*
X125176442Y-110033089D01*
X125363183Y-110206358D01*
X125374259Y-110216635D01*
X125597226Y-110368651D01*
X125840359Y-110485738D01*
X126098228Y-110565280D01*
X126098229Y-110565280D01*
X126098232Y-110565281D01*
X126365063Y-110605499D01*
X126365068Y-110605499D01*
X126365071Y-110605500D01*
X126365072Y-110605500D01*
X126634928Y-110605500D01*
X126634929Y-110605500D01*
X126634936Y-110605499D01*
X126901767Y-110565281D01*
X126901768Y-110565280D01*
X126901772Y-110565280D01*
X127159641Y-110485738D01*
X127402775Y-110368651D01*
X127625741Y-110216635D01*
X127823561Y-110033085D01*
X127991815Y-109822102D01*
X128126743Y-109588398D01*
X128225334Y-109337195D01*
X128285383Y-109074103D01*
X128305549Y-108805000D01*
X128303675Y-108779998D01*
X128287144Y-108559403D01*
X128285383Y-108535897D01*
X128225334Y-108272805D01*
X128126743Y-108021602D01*
X127991815Y-107787898D01*
X127823561Y-107576915D01*
X127823557Y-107576911D01*
X127790157Y-107545920D01*
X127754404Y-107485892D01*
X127750500Y-107455023D01*
X127750500Y-106154377D01*
X127729122Y-106019407D01*
X127719709Y-105959974D01*
X127669524Y-105805520D01*
X127658884Y-105772774D01*
X127569524Y-105597395D01*
X127453829Y-105438155D01*
X119184118Y-97168444D01*
X119150633Y-97107121D01*
X119147799Y-97080763D01*
X119147799Y-96500002D01*
X120042334Y-96500002D01*
X120062158Y-96726599D01*
X120062160Y-96726610D01*
X120121030Y-96946317D01*
X120121035Y-96946331D01*
X120217163Y-97152478D01*
X120268274Y-97225472D01*
X120947300Y-96546446D01*
X120947300Y-96552661D01*
X120974559Y-96654394D01*
X121027220Y-96745606D01*
X121101694Y-96820080D01*
X121192906Y-96872741D01*
X121294639Y-96900000D01*
X121300853Y-96900000D01*
X120621826Y-97579025D01*
X120694813Y-97630132D01*
X120694821Y-97630136D01*
X120900968Y-97726264D01*
X120900982Y-97726269D01*
X121120689Y-97785139D01*
X121120700Y-97785141D01*
X121347298Y-97804966D01*
X121347302Y-97804966D01*
X121573899Y-97785141D01*
X121573910Y-97785139D01*
X121793617Y-97726269D01*
X121793631Y-97726264D01*
X121999778Y-97630136D01*
X122072771Y-97579024D01*
X121841617Y-97347870D01*
X125744400Y-97347870D01*
X125744401Y-97347876D01*
X125750808Y-97407483D01*
X125801102Y-97542328D01*
X125801106Y-97542335D01*
X125887352Y-97657544D01*
X125887355Y-97657547D01*
X126002564Y-97743793D01*
X126002571Y-97743797D01*
X126137417Y-97794091D01*
X126137416Y-97794091D01*
X126144344Y-97794835D01*
X126197027Y-97800500D01*
X127892772Y-97800499D01*
X127952383Y-97794091D01*
X128087231Y-97743796D01*
X128202446Y-97657546D01*
X128209250Y-97648455D01*
X128265180Y-97606584D01*
X128334871Y-97601597D01*
X128379640Y-97621188D01*
X128392412Y-97630130D01*
X128392418Y-97630134D01*
X128598573Y-97726265D01*
X128598582Y-97726269D01*
X128818289Y-97785139D01*
X128818300Y-97785141D01*
X129044898Y-97804966D01*
X129044902Y-97804966D01*
X129271499Y-97785141D01*
X129271510Y-97785139D01*
X129491217Y-97726269D01*
X129491231Y-97726264D01*
X129697378Y-97630136D01*
X129770371Y-97579024D01*
X129091347Y-96900000D01*
X129097561Y-96900000D01*
X129199294Y-96872741D01*
X129290506Y-96820080D01*
X129364980Y-96745606D01*
X129417641Y-96654394D01*
X129444900Y-96552661D01*
X129444900Y-96546447D01*
X130123924Y-97225471D01*
X130175036Y-97152478D01*
X130271164Y-96946331D01*
X130271169Y-96946317D01*
X130330039Y-96726610D01*
X130330041Y-96726599D01*
X130349866Y-96500002D01*
X130349866Y-96499997D01*
X130330041Y-96273400D01*
X130330039Y-96273389D01*
X130271169Y-96053682D01*
X130271164Y-96053668D01*
X130175036Y-95847521D01*
X130175032Y-95847513D01*
X130123925Y-95774526D01*
X129444900Y-96453551D01*
X129444900Y-96447339D01*
X129417641Y-96345606D01*
X129364980Y-96254394D01*
X129290506Y-96179920D01*
X129199294Y-96127259D01*
X129097561Y-96100000D01*
X129091347Y-96100000D01*
X129770372Y-95420974D01*
X129697378Y-95369863D01*
X129491231Y-95273735D01*
X129491217Y-95273730D01*
X129271510Y-95214860D01*
X129271499Y-95214858D01*
X129044902Y-95195034D01*
X129044898Y-95195034D01*
X128818300Y-95214858D01*
X128818289Y-95214860D01*
X128598582Y-95273730D01*
X128598573Y-95273734D01*
X128392412Y-95369868D01*
X128392407Y-95369871D01*
X128379636Y-95378813D01*
X128313429Y-95401138D01*
X128245663Y-95384124D01*
X128209252Y-95351546D01*
X128202446Y-95342454D01*
X128202444Y-95342453D01*
X128202444Y-95342452D01*
X128087235Y-95256206D01*
X128087228Y-95256202D01*
X127952382Y-95205908D01*
X127952383Y-95205908D01*
X127892783Y-95199501D01*
X127892781Y-95199500D01*
X127892773Y-95199500D01*
X127892764Y-95199500D01*
X126197029Y-95199500D01*
X126197023Y-95199501D01*
X126137416Y-95205908D01*
X126002571Y-95256202D01*
X126002564Y-95256206D01*
X125887355Y-95342452D01*
X125887352Y-95342455D01*
X125801106Y-95457664D01*
X125801102Y-95457671D01*
X125750808Y-95592517D01*
X125745111Y-95645513D01*
X125744401Y-95652123D01*
X125744400Y-95652135D01*
X125744400Y-97347870D01*
X121841617Y-97347870D01*
X121393747Y-96900000D01*
X121399961Y-96900000D01*
X121501694Y-96872741D01*
X121592906Y-96820080D01*
X121667380Y-96745606D01*
X121720041Y-96654394D01*
X121747300Y-96552661D01*
X121747300Y-96546447D01*
X122426324Y-97225471D01*
X122477436Y-97152478D01*
X122573564Y-96946331D01*
X122573569Y-96946317D01*
X122632439Y-96726610D01*
X122632441Y-96726599D01*
X122652266Y-96500002D01*
X122652266Y-96499997D01*
X122632441Y-96273400D01*
X122632439Y-96273389D01*
X122573569Y-96053682D01*
X122573564Y-96053668D01*
X122477436Y-95847521D01*
X122477432Y-95847513D01*
X122426325Y-95774526D01*
X121747300Y-96453551D01*
X121747300Y-96447339D01*
X121720041Y-96345606D01*
X121667380Y-96254394D01*
X121592906Y-96179920D01*
X121501694Y-96127259D01*
X121399961Y-96100000D01*
X121393748Y-96100000D01*
X122072772Y-95420974D01*
X121999778Y-95369863D01*
X121793631Y-95273735D01*
X121793617Y-95273730D01*
X121573910Y-95214860D01*
X121573899Y-95214858D01*
X121347302Y-95195034D01*
X121347298Y-95195034D01*
X121120700Y-95214858D01*
X121120689Y-95214860D01*
X120900982Y-95273730D01*
X120900973Y-95273734D01*
X120694816Y-95369866D01*
X120694812Y-95369868D01*
X120621826Y-95420973D01*
X120621826Y-95420974D01*
X121300853Y-96100000D01*
X121294639Y-96100000D01*
X121192906Y-96127259D01*
X121101694Y-96179920D01*
X121027220Y-96254394D01*
X120974559Y-96345606D01*
X120947300Y-96447339D01*
X120947300Y-96453552D01*
X120268274Y-95774526D01*
X120268273Y-95774526D01*
X120217168Y-95847512D01*
X120217166Y-95847516D01*
X120121034Y-96053673D01*
X120121030Y-96053682D01*
X120062160Y-96273389D01*
X120062158Y-96273400D01*
X120042334Y-96499997D01*
X120042334Y-96500002D01*
X119147799Y-96500002D01*
X119147799Y-95652129D01*
X119147798Y-95652123D01*
X119147797Y-95652116D01*
X119141391Y-95592517D01*
X119105618Y-95496604D01*
X119097800Y-95453271D01*
X119097800Y-91084435D01*
X119117485Y-91017396D01*
X119134114Y-90996759D01*
X120399055Y-89731817D01*
X120460378Y-89698333D01*
X120486736Y-89695499D01*
X122420371Y-89695499D01*
X122420372Y-89695499D01*
X122479983Y-89689091D01*
X122614831Y-89638796D01*
X122730046Y-89552546D01*
X122816296Y-89437331D01*
X122826872Y-89408974D01*
X122868740Y-89353041D01*
X122934204Y-89328622D01*
X123002477Y-89343472D01*
X123015940Y-89351988D01*
X123198723Y-89484788D01*
X123402429Y-89588582D01*
X123619871Y-89659234D01*
X123710000Y-89673509D01*
X123710000Y-88743482D01*
X123728409Y-88754111D01*
X123881009Y-88795000D01*
X124038991Y-88795000D01*
X124191591Y-88754111D01*
X124210000Y-88743482D01*
X124210000Y-89673508D01*
X124300128Y-89659234D01*
X124517570Y-89588582D01*
X124721276Y-89484788D01*
X124906242Y-89350402D01*
X125067905Y-89188739D01*
X125129371Y-89104137D01*
X125184701Y-89061470D01*
X125254314Y-89055491D01*
X125316109Y-89088096D01*
X125330007Y-89104134D01*
X125391714Y-89189066D01*
X125553434Y-89350786D01*
X125738462Y-89485217D01*
X125870599Y-89552544D01*
X125942244Y-89589049D01*
X126159751Y-89659721D01*
X126159752Y-89659721D01*
X126159755Y-89659722D01*
X126385646Y-89695500D01*
X126385647Y-89695500D01*
X126614353Y-89695500D01*
X126614354Y-89695500D01*
X126840245Y-89659722D01*
X126840248Y-89659721D01*
X126840249Y-89659721D01*
X127057755Y-89589049D01*
X127057755Y-89589048D01*
X127057758Y-89589048D01*
X127261538Y-89485217D01*
X127446566Y-89350786D01*
X127608286Y-89189066D01*
X127742717Y-89004038D01*
X127846548Y-88800258D01*
X127887208Y-88675119D01*
X127917221Y-88582749D01*
X127917221Y-88582748D01*
X127917222Y-88582745D01*
X127953000Y-88356854D01*
X127953000Y-88033146D01*
X127917222Y-87807255D01*
X127917221Y-87807251D01*
X127917221Y-87807250D01*
X127846549Y-87589744D01*
X127825067Y-87547583D01*
X127742717Y-87385962D01*
X127608286Y-87200934D01*
X127446566Y-87039214D01*
X127261538Y-86904783D01*
X127176296Y-86861350D01*
X127057755Y-86800950D01*
X126840248Y-86730278D01*
X126654812Y-86700908D01*
X126614354Y-86694500D01*
X126385646Y-86694500D01*
X126345188Y-86700908D01*
X126159753Y-86730278D01*
X126159750Y-86730278D01*
X125942244Y-86800950D01*
X125738461Y-86904783D01*
X125645134Y-86972590D01*
X125553434Y-87039214D01*
X125553432Y-87039216D01*
X125553431Y-87039216D01*
X125391716Y-87200931D01*
X125391709Y-87200940D01*
X125330007Y-87285864D01*
X125274677Y-87328530D01*
X125205063Y-87334508D01*
X125143269Y-87301901D01*
X125129372Y-87285863D01*
X125067907Y-87201263D01*
X125067902Y-87201257D01*
X124906242Y-87039597D01*
X124721276Y-86905211D01*
X124517568Y-86801417D01*
X124300124Y-86730765D01*
X124210000Y-86716490D01*
X124210000Y-87646517D01*
X124191591Y-87635889D01*
X124038991Y-87595000D01*
X123881009Y-87595000D01*
X123728409Y-87635889D01*
X123710000Y-87646517D01*
X123710000Y-86716490D01*
X123709999Y-86716490D01*
X123619875Y-86730765D01*
X123402431Y-86801417D01*
X123198719Y-86905213D01*
X123015939Y-87038010D01*
X122950132Y-87061490D01*
X122882079Y-87045664D01*
X122833384Y-86995558D01*
X122826875Y-86981033D01*
X122816296Y-86952669D01*
X122816295Y-86952667D01*
X122816293Y-86952664D01*
X122730047Y-86837455D01*
X122730044Y-86837452D01*
X122614835Y-86751206D01*
X122614828Y-86751202D01*
X122479982Y-86700908D01*
X122479983Y-86700908D01*
X122420383Y-86694501D01*
X122420381Y-86694500D01*
X122420373Y-86694500D01*
X122420365Y-86694500D01*
X121739336Y-86694500D01*
X121672297Y-86674815D01*
X121651655Y-86658181D01*
X118039648Y-83046174D01*
X118039646Y-83046172D01*
X117880405Y-82930476D01*
X117842250Y-82911035D01*
X117705030Y-82841117D01*
X117517826Y-82780290D01*
X117323422Y-82749500D01*
X117323417Y-82749500D01*
X110069336Y-82749500D01*
X110002297Y-82729815D01*
X109981655Y-82713181D01*
X106786819Y-79518345D01*
X106753334Y-79457022D01*
X106750500Y-79430664D01*
X106750500Y-79369999D01*
X110525884Y-79369999D01*
X110525885Y-79370000D01*
X111684314Y-79370000D01*
X111679920Y-79374394D01*
X111627259Y-79465606D01*
X111600000Y-79567339D01*
X111600000Y-79672661D01*
X111627259Y-79774394D01*
X111679920Y-79865606D01*
X111684314Y-79870000D01*
X110525885Y-79870000D01*
X110527085Y-79877584D01*
X110580591Y-80042255D01*
X110659195Y-80196524D01*
X110760967Y-80336602D01*
X110883397Y-80459032D01*
X111023475Y-80560804D01*
X111177742Y-80639408D01*
X111342415Y-80692914D01*
X111513429Y-80720000D01*
X111750000Y-80720000D01*
X111750000Y-79935686D01*
X111754394Y-79940080D01*
X111845606Y-79992741D01*
X111947339Y-80020000D01*
X112052661Y-80020000D01*
X112154394Y-79992741D01*
X112245606Y-79940080D01*
X112250000Y-79935686D01*
X112250000Y-80720000D01*
X112486571Y-80720000D01*
X112657584Y-80692914D01*
X112822257Y-80639408D01*
X112976524Y-80560804D01*
X113116602Y-80459032D01*
X113239032Y-80336602D01*
X113340804Y-80196524D01*
X113419408Y-80042255D01*
X113472914Y-79877584D01*
X113474115Y-79870000D01*
X112315686Y-79870000D01*
X112320080Y-79865606D01*
X112372741Y-79774394D01*
X112400000Y-79672661D01*
X112400000Y-79567339D01*
X112372741Y-79465606D01*
X112320080Y-79374394D01*
X112315686Y-79370000D01*
X113474115Y-79370000D01*
X113474115Y-79369999D01*
X113472914Y-79362415D01*
X113419408Y-79197744D01*
X113340804Y-79043475D01*
X113239032Y-78903397D01*
X113116602Y-78780967D01*
X112976524Y-78679195D01*
X112822257Y-78600591D01*
X112657584Y-78547085D01*
X112486571Y-78520000D01*
X112250000Y-78520000D01*
X112250000Y-79304314D01*
X112245606Y-79299920D01*
X112154394Y-79247259D01*
X112052661Y-79220000D01*
X111947339Y-79220000D01*
X111845606Y-79247259D01*
X111754394Y-79299920D01*
X111750000Y-79304314D01*
X111750000Y-78520000D01*
X111513429Y-78520000D01*
X111342415Y-78547085D01*
X111177742Y-78600591D01*
X111023475Y-78679195D01*
X110883397Y-78780967D01*
X110760967Y-78903397D01*
X110659195Y-79043475D01*
X110580591Y-79197744D01*
X110527085Y-79362415D01*
X110525884Y-79369999D01*
X106750500Y-79369999D01*
X106750500Y-66414173D01*
X106770185Y-66347134D01*
X106822989Y-66301379D01*
X106892147Y-66291435D01*
X106955703Y-66320460D01*
X106962181Y-66326492D01*
X107863181Y-67227492D01*
X107896666Y-67288815D01*
X107899500Y-67315173D01*
X107899500Y-70953330D01*
X107899499Y-70953348D01*
X107899499Y-71119054D01*
X107899498Y-71119054D01*
X107899499Y-71119057D01*
X107940423Y-71271785D01*
X107944820Y-71279400D01*
X107944822Y-71279410D01*
X107944825Y-71279409D01*
X108019477Y-71408712D01*
X108019481Y-71408717D01*
X108138349Y-71527585D01*
X108138355Y-71527590D01*
X110566443Y-73955678D01*
X110599928Y-74017001D01*
X110594944Y-74086693D01*
X110589250Y-74099648D01*
X110580125Y-74117557D01*
X110526597Y-74282301D01*
X110499500Y-74453389D01*
X110499500Y-74626611D01*
X110526598Y-74797701D01*
X110580127Y-74962445D01*
X110658768Y-75116788D01*
X110760586Y-75256928D01*
X110883072Y-75379414D01*
X111023212Y-75481232D01*
X111177555Y-75559873D01*
X111342299Y-75613402D01*
X111513389Y-75640500D01*
X111513390Y-75640500D01*
X112486610Y-75640500D01*
X112486611Y-75640500D01*
X112657701Y-75613402D01*
X112822445Y-75559873D01*
X112976788Y-75481232D01*
X113116928Y-75379414D01*
X113239414Y-75256928D01*
X113341232Y-75116788D01*
X113419873Y-74962445D01*
X113473402Y-74797701D01*
X113500500Y-74626611D01*
X113500500Y-74453389D01*
X113473402Y-74282299D01*
X113419873Y-74117555D01*
X113341232Y-73963212D01*
X113239414Y-73823072D01*
X113116928Y-73700586D01*
X112976788Y-73598768D01*
X112822445Y-73520127D01*
X112657701Y-73466598D01*
X112657699Y-73466597D01*
X112657698Y-73466597D01*
X112526271Y-73445781D01*
X112486611Y-73439500D01*
X112486610Y-73439500D01*
X111800097Y-73439500D01*
X111733058Y-73419815D01*
X111712416Y-73403181D01*
X111621416Y-73312181D01*
X111587931Y-73250858D01*
X111592915Y-73181166D01*
X111634787Y-73125233D01*
X111700251Y-73100816D01*
X111709097Y-73100500D01*
X112486610Y-73100500D01*
X112486611Y-73100500D01*
X112657701Y-73073402D01*
X112822445Y-73019873D01*
X112976788Y-72941232D01*
X113116928Y-72839414D01*
X113239414Y-72716928D01*
X113341232Y-72576788D01*
X113419873Y-72422445D01*
X113473402Y-72257701D01*
X113500500Y-72086611D01*
X113500500Y-71913389D01*
X113473402Y-71742299D01*
X113419873Y-71577555D01*
X113410751Y-71559652D01*
X113397855Y-71490987D01*
X113424130Y-71426246D01*
X113433546Y-71415687D01*
X114349229Y-70500004D01*
X120694451Y-70500004D01*
X120714616Y-70769101D01*
X120774664Y-71032188D01*
X120774666Y-71032195D01*
X120871690Y-71279407D01*
X120873257Y-71283398D01*
X121008185Y-71517102D01*
X121144080Y-71687509D01*
X121176442Y-71728089D01*
X121363183Y-71901358D01*
X121374259Y-71911635D01*
X121597226Y-72063651D01*
X121840359Y-72180738D01*
X122098228Y-72260280D01*
X122098229Y-72260280D01*
X122098232Y-72260281D01*
X122365063Y-72300499D01*
X122365068Y-72300499D01*
X122365071Y-72300500D01*
X122365072Y-72300500D01*
X122634928Y-72300500D01*
X122634929Y-72300500D01*
X122634936Y-72300499D01*
X122901767Y-72260281D01*
X122901768Y-72260280D01*
X122901772Y-72260280D01*
X123159641Y-72180738D01*
X123402775Y-72063651D01*
X123625741Y-71911635D01*
X123823561Y-71728085D01*
X123991815Y-71517102D01*
X124126743Y-71283398D01*
X124225334Y-71032195D01*
X124285383Y-70769103D01*
X124305549Y-70500000D01*
X124298147Y-70401231D01*
X124285383Y-70230898D01*
X124284954Y-70229017D01*
X124225334Y-69967805D01*
X124126743Y-69716602D01*
X123991815Y-69482898D01*
X123823561Y-69271915D01*
X123823560Y-69271914D01*
X123823557Y-69271910D01*
X123625741Y-69088365D01*
X123402775Y-68936349D01*
X123402769Y-68936346D01*
X123402768Y-68936345D01*
X123402767Y-68936344D01*
X123159643Y-68819263D01*
X123159645Y-68819263D01*
X122901773Y-68739720D01*
X122901767Y-68739718D01*
X122634936Y-68699500D01*
X122634929Y-68699500D01*
X122365071Y-68699500D01*
X122365063Y-68699500D01*
X122098232Y-68739718D01*
X122098226Y-68739720D01*
X121840358Y-68819262D01*
X121597230Y-68936346D01*
X121374258Y-69088365D01*
X121176442Y-69271910D01*
X121008185Y-69482898D01*
X120873258Y-69716599D01*
X120873256Y-69716603D01*
X120774666Y-69967804D01*
X120774664Y-69967811D01*
X120714616Y-70230898D01*
X120694451Y-70499995D01*
X120694451Y-70500004D01*
X114349229Y-70500004D01*
X115858506Y-68990728D01*
X115858511Y-68990724D01*
X115868714Y-68980520D01*
X115868716Y-68980520D01*
X115980520Y-68868716D01*
X116059577Y-68731784D01*
X116100500Y-68579057D01*
X116100500Y-64847870D01*
X120699500Y-64847870D01*
X120699501Y-64847876D01*
X120705908Y-64907483D01*
X120756202Y-65042328D01*
X120756206Y-65042335D01*
X120842452Y-65157544D01*
X120842455Y-65157547D01*
X120957664Y-65243793D01*
X120957671Y-65243797D01*
X121092517Y-65294091D01*
X121092516Y-65294091D01*
X121099444Y-65294835D01*
X121152127Y-65300500D01*
X123847872Y-65300499D01*
X123907483Y-65294091D01*
X124042331Y-65243796D01*
X124157546Y-65157546D01*
X124243796Y-65042331D01*
X124294091Y-64907483D01*
X124300500Y-64847873D01*
X124300499Y-62152128D01*
X124294091Y-62092517D01*
X124243796Y-61957669D01*
X124243795Y-61957668D01*
X124243793Y-61957664D01*
X124157547Y-61842455D01*
X124157544Y-61842452D01*
X124042335Y-61756206D01*
X124042328Y-61756202D01*
X123907482Y-61705908D01*
X123907483Y-61705908D01*
X123847883Y-61699501D01*
X123847881Y-61699500D01*
X123847873Y-61699500D01*
X123847864Y-61699500D01*
X121152129Y-61699500D01*
X121152123Y-61699501D01*
X121092516Y-61705908D01*
X120957671Y-61756202D01*
X120957664Y-61756206D01*
X120842455Y-61842452D01*
X120842452Y-61842455D01*
X120756206Y-61957664D01*
X120756202Y-61957671D01*
X120705908Y-62092517D01*
X120699501Y-62152116D01*
X120699501Y-62152123D01*
X120699500Y-62152135D01*
X120699500Y-64847870D01*
X116100500Y-64847870D01*
X116100500Y-64089060D01*
X116100501Y-64089047D01*
X116100501Y-63920944D01*
X116100501Y-63920943D01*
X116059577Y-63768216D01*
X116039278Y-63733057D01*
X115980524Y-63631290D01*
X115980518Y-63631282D01*
X114987590Y-62638355D01*
X114987588Y-62638352D01*
X114868717Y-62519481D01*
X114868716Y-62519480D01*
X114781904Y-62469360D01*
X114781904Y-62469359D01*
X114781900Y-62469358D01*
X114731785Y-62440423D01*
X114579057Y-62399499D01*
X114420943Y-62399499D01*
X114413347Y-62399499D01*
X114413331Y-62399500D01*
X113546012Y-62399500D01*
X113478973Y-62379815D01*
X113433218Y-62327011D01*
X113423274Y-62257853D01*
X113428079Y-62237187D01*
X113473402Y-62097701D01*
X113500500Y-61926611D01*
X113500500Y-61753389D01*
X113473402Y-61582299D01*
X113419873Y-61417555D01*
X113341232Y-61263212D01*
X113239414Y-61123072D01*
X113116928Y-61000586D01*
X112976788Y-60898768D01*
X112822445Y-60820127D01*
X112657701Y-60766598D01*
X112657699Y-60766597D01*
X112657698Y-60766597D01*
X112526271Y-60745781D01*
X112486611Y-60739500D01*
X112486610Y-60739500D01*
X111800098Y-60739500D01*
X111733059Y-60719815D01*
X111712417Y-60703181D01*
X109796819Y-58787583D01*
X109763334Y-58726260D01*
X109760500Y-58699902D01*
X109760500Y-58500004D01*
X120694451Y-58500004D01*
X120714616Y-58769101D01*
X120774664Y-59032188D01*
X120774666Y-59032195D01*
X120872670Y-59281904D01*
X120873257Y-59283398D01*
X121008185Y-59517102D01*
X121144080Y-59687509D01*
X121176442Y-59728089D01*
X121363183Y-59901358D01*
X121374259Y-59911635D01*
X121597226Y-60063651D01*
X121840359Y-60180738D01*
X122098228Y-60260280D01*
X122098229Y-60260280D01*
X122098232Y-60260281D01*
X122365063Y-60300499D01*
X122365068Y-60300499D01*
X122365071Y-60300500D01*
X122365072Y-60300500D01*
X122634928Y-60300500D01*
X122634929Y-60300500D01*
X122634936Y-60300499D01*
X122901767Y-60260281D01*
X122901768Y-60260280D01*
X122901772Y-60260280D01*
X123159641Y-60180738D01*
X123402775Y-60063651D01*
X123625741Y-59911635D01*
X123823561Y-59728085D01*
X123991815Y-59517102D01*
X124126743Y-59283398D01*
X124225334Y-59032195D01*
X124285383Y-58769103D01*
X124305549Y-58500000D01*
X124285383Y-58230897D01*
X124225334Y-57967805D01*
X124126743Y-57716602D01*
X123991815Y-57482898D01*
X123823561Y-57271915D01*
X123823560Y-57271914D01*
X123823557Y-57271910D01*
X123625741Y-57088365D01*
X123402775Y-56936349D01*
X123402769Y-56936346D01*
X123402768Y-56936345D01*
X123402767Y-56936344D01*
X123159643Y-56819263D01*
X123159645Y-56819263D01*
X122901773Y-56739720D01*
X122901767Y-56739718D01*
X122634936Y-56699500D01*
X122634929Y-56699500D01*
X122365071Y-56699500D01*
X122365063Y-56699500D01*
X122098232Y-56739718D01*
X122098226Y-56739720D01*
X121840358Y-56819262D01*
X121597230Y-56936346D01*
X121374258Y-57088365D01*
X121176442Y-57271910D01*
X121008185Y-57482898D01*
X120873258Y-57716599D01*
X120873256Y-57716603D01*
X120774666Y-57967804D01*
X120774664Y-57967811D01*
X120714616Y-58230898D01*
X120694451Y-58499995D01*
X120694451Y-58500004D01*
X109760500Y-58500004D01*
X109760500Y-57580945D01*
X109760500Y-57580943D01*
X109719577Y-57428216D01*
X109719573Y-57428209D01*
X109640524Y-57291290D01*
X109640521Y-57291286D01*
X109640520Y-57291284D01*
X109528716Y-57179480D01*
X109528715Y-57179479D01*
X109524385Y-57175149D01*
X109524374Y-57175139D01*
X105470523Y-53121288D01*
X131149500Y-53121288D01*
X131181161Y-53361785D01*
X131243947Y-53596104D01*
X131250410Y-53611706D01*
X131336776Y-53820212D01*
X131458064Y-54030289D01*
X131458066Y-54030292D01*
X131458067Y-54030293D01*
X131605733Y-54222736D01*
X131605739Y-54222743D01*
X131777256Y-54394260D01*
X131777262Y-54394265D01*
X131969711Y-54541936D01*
X132179788Y-54663224D01*
X132403900Y-54756054D01*
X132638211Y-54818838D01*
X132818586Y-54842584D01*
X132878711Y-54850500D01*
X132878712Y-54850500D01*
X133121289Y-54850500D01*
X133169388Y-54844167D01*
X133361789Y-54818838D01*
X133596100Y-54756054D01*
X133820212Y-54663224D01*
X134030289Y-54541936D01*
X134222738Y-54394265D01*
X134394265Y-54222738D01*
X134541936Y-54030289D01*
X134663224Y-53820212D01*
X134756054Y-53596100D01*
X134818838Y-53361789D01*
X134850500Y-53121288D01*
X134850500Y-52878712D01*
X134818838Y-52638211D01*
X134756054Y-52403900D01*
X134754231Y-52399500D01*
X134744195Y-52375269D01*
X134663224Y-52179788D01*
X134541936Y-51969711D01*
X134394265Y-51777262D01*
X134394260Y-51777256D01*
X134222743Y-51605739D01*
X134222736Y-51605733D01*
X134030293Y-51458067D01*
X134030292Y-51458066D01*
X134030289Y-51458064D01*
X133820212Y-51336776D01*
X133820205Y-51336773D01*
X133596104Y-51243947D01*
X133361785Y-51181161D01*
X133121289Y-51149500D01*
X133121288Y-51149500D01*
X132878712Y-51149500D01*
X132878711Y-51149500D01*
X132638214Y-51181161D01*
X132403895Y-51243947D01*
X132179794Y-51336773D01*
X132179785Y-51336777D01*
X131969706Y-51458067D01*
X131777263Y-51605733D01*
X131777256Y-51605739D01*
X131605739Y-51777256D01*
X131605733Y-51777263D01*
X131458067Y-51969706D01*
X131336777Y-52179785D01*
X131336773Y-52179794D01*
X131243947Y-52403895D01*
X131181161Y-52638214D01*
X131149500Y-52878711D01*
X131149500Y-53121288D01*
X105470523Y-53121288D01*
X102987590Y-50638355D01*
X102987588Y-50638352D01*
X102868717Y-50519481D01*
X102868716Y-50519480D01*
X102781904Y-50469360D01*
X102781904Y-50469359D01*
X102781900Y-50469358D01*
X102731785Y-50440423D01*
X102579057Y-50399499D01*
X102420943Y-50399499D01*
X102413347Y-50399499D01*
X102413331Y-50399500D01*
X75086670Y-50399500D01*
X75086654Y-50399499D01*
X75079058Y-50399499D01*
X74920943Y-50399499D01*
X74844579Y-50419961D01*
X74768214Y-50440423D01*
X74768209Y-50440426D01*
X74631290Y-50519475D01*
X74631282Y-50519481D01*
X71687083Y-53463681D01*
X71625760Y-53497166D01*
X71599402Y-53500000D01*
X68000000Y-53500000D01*
X68000000Y-57099402D01*
X67980315Y-57166441D01*
X67963681Y-57187083D01*
X62019481Y-63131282D01*
X62019480Y-63131284D01*
X61981012Y-63197914D01*
X61969361Y-63218094D01*
X61969359Y-63218096D01*
X61940425Y-63268209D01*
X61940424Y-63268210D01*
X61940423Y-63268215D01*
X61899499Y-63420943D01*
X61899499Y-63420945D01*
X61899499Y-63589046D01*
X61899500Y-63589059D01*
X61899500Y-86593330D01*
X61899499Y-86593348D01*
X61899499Y-86759054D01*
X61899498Y-86759054D01*
X57000500Y-86759054D01*
X57000500Y-53621288D01*
X59649500Y-53621288D01*
X59681161Y-53861785D01*
X59743947Y-54096104D01*
X59802870Y-54238355D01*
X59836776Y-54320212D01*
X59958064Y-54530289D01*
X59958066Y-54530292D01*
X59958067Y-54530293D01*
X60105733Y-54722736D01*
X60105739Y-54722743D01*
X60277256Y-54894260D01*
X60277262Y-54894265D01*
X60469711Y-55041936D01*
X60679788Y-55163224D01*
X60903900Y-55256054D01*
X61138211Y-55318838D01*
X61318586Y-55342584D01*
X61378711Y-55350500D01*
X61378712Y-55350500D01*
X61621289Y-55350500D01*
X61669388Y-55344167D01*
X61861789Y-55318838D01*
X62096100Y-55256054D01*
X62320212Y-55163224D01*
X62530289Y-55041936D01*
X62722738Y-54894265D01*
X62894265Y-54722738D01*
X63041936Y-54530289D01*
X63163224Y-54320212D01*
X63256054Y-54096100D01*
X63318838Y-53861789D01*
X63350500Y-53621288D01*
X63350500Y-53378712D01*
X63318838Y-53138211D01*
X63256054Y-52903900D01*
X63163224Y-52679788D01*
X63041936Y-52469711D01*
X62981018Y-52390321D01*
X62894266Y-52277263D01*
X62894260Y-52277256D01*
X62722743Y-52105739D01*
X62722736Y-52105733D01*
X62530293Y-51958067D01*
X62530292Y-51958066D01*
X62530289Y-51958064D01*
X62320212Y-51836776D01*
X62320205Y-51836773D01*
X62096104Y-51743947D01*
X61861785Y-51681161D01*
X61621289Y-51649500D01*
X61621288Y-51649500D01*
X61378712Y-51649500D01*
X61378711Y-51649500D01*
X61138214Y-51681161D01*
X60903895Y-51743947D01*
X60679794Y-51836773D01*
X60679785Y-51836777D01*
X60469706Y-51958067D01*
X60277263Y-52105733D01*
X60277256Y-52105739D01*
X60105739Y-52277256D01*
X60105733Y-52277263D01*
X59958067Y-52469706D01*
X59836777Y-52679785D01*
X59836773Y-52679794D01*
X59743947Y-52903895D01*
X59681161Y-53138214D01*
X59649500Y-53378711D01*
X59649500Y-53621288D01*
X57000500Y-53621288D01*
X57000500Y-48624500D01*
X57020185Y-48557461D01*
X57072989Y-48511706D01*
X57124500Y-48500500D01*
X136875500Y-48500500D01*
X136942539Y-48520185D01*
G37*
%TD.AperFunction*%
%TD*%
D23*
X76000000Y-80500000D03*
D24*
X127044900Y-96500000D03*
X129044900Y-96500000D03*
X122500000Y-75500000D03*
X122500000Y-70500000D03*
X96760000Y-61840000D03*
X96760000Y-64380000D03*
X96760000Y-66920000D03*
X96760000Y-69460000D03*
X96760000Y-72000000D03*
X96760000Y-74540000D03*
X96760000Y-77080000D03*
X96760000Y-79620000D03*
X112000000Y-79620000D03*
X112000000Y-77080000D03*
X112000000Y-74540000D03*
X112000000Y-72000000D03*
X112000000Y-69460000D03*
X112000000Y-66920000D03*
X112000000Y-64380000D03*
X112000000Y-61840000D03*
X121500000Y-108805000D03*
X126500000Y-108805000D03*
X65100000Y-63880000D03*
X65100000Y-66420000D03*
X65100000Y-68960000D03*
X65100000Y-71500000D03*
X65100000Y-74040000D03*
X65100000Y-76580000D03*
X65100000Y-79120000D03*
X65100000Y-81660000D03*
X65100000Y-84200000D03*
X65100000Y-86740000D03*
X65100000Y-89280000D03*
X65100000Y-91820000D03*
X65100000Y-94360000D03*
X65100000Y-96900000D03*
X65100000Y-99440000D03*
X65100000Y-101980000D03*
X65100000Y-104520000D03*
X65100000Y-107060000D03*
X65100000Y-109600000D03*
X90500000Y-109600000D03*
X90500000Y-107060000D03*
X90500000Y-104520000D03*
X90500000Y-101980000D03*
X90500000Y-99440000D03*
X90500000Y-96900000D03*
X90500000Y-94360000D03*
X90500000Y-91820000D03*
X90500000Y-89280000D03*
X90500000Y-86740000D03*
X90500000Y-84200000D03*
X90500000Y-81660000D03*
X90500000Y-79120000D03*
X90500000Y-76580000D03*
X90500000Y-74040000D03*
X90500000Y-71500000D03*
X90500000Y-68960000D03*
X90500000Y-66420000D03*
X90500000Y-63880000D03*
X133000000Y-53000000D03*
X98713500Y-91000000D03*
X98713500Y-93540000D03*
X98713500Y-96080000D03*
X98713500Y-98620000D03*
X98713500Y-101160000D03*
X98713500Y-103700000D03*
X98713500Y-106240000D03*
X98713500Y-108780000D03*
X121420000Y-88195000D03*
X123960000Y-88195000D03*
X126500000Y-88195000D03*
X61500000Y-115500000D03*
X133000000Y-116500000D03*
X117847300Y-96500000D03*
X121347300Y-96500000D03*
X61500000Y-53500000D03*
X122500000Y-63500000D03*
X122500000Y-58500000D03*
M02*
