%TF.GenerationSoftware,KiCad,Pcbnew,8.0.1*%
%TF.CreationDate,2024-04-26T22:18:18+02:00*%
%TF.ProjectId,Practica1,50726163-7469-4636-9131-2e6b69636164,rev?*%
%TF.SameCoordinates,Original*%
%TF.FileFunction,Soldermask,Bot*%
%TF.FilePolarity,Negative*%
%FSLAX46Y46*%
G04 Gerber Fmt 4.6, Leading zero omitted, Abs format (unit mm)*
G04 Created by KiCad (PCBNEW 8.0.1) date 2024-04-26 22:18:18*
%MOMM*%
%LPD*%
G01*
G04 APERTURE LIST*
G04 Aperture macros list*
%AMRoundRect*
0 Rectangle with rounded corners*
0 $1 Rounding radius*
0 $2 $3 $4 $5 $6 $7 $8 $9 X,Y pos of 4 corners*
0 Add a 4 corners polygon primitive as box body*
4,1,4,$2,$3,$4,$5,$6,$7,$8,$9,$2,$3,0*
0 Add four circle primitives for the rounded corners*
1,1,$1+$1,$2,$3*
1,1,$1+$1,$4,$5*
1,1,$1+$1,$6,$7*
1,1,$1+$1,$8,$9*
0 Add four rect primitives between the rounded corners*
20,1,$1+$1,$2,$3,$4,$5,0*
20,1,$1+$1,$4,$5,$6,$7,0*
20,1,$1+$1,$6,$7,$8,$9,0*
20,1,$1+$1,$8,$9,$2,$3,0*%
G04 Aperture macros list end*
%ADD10R,1.600000X1.600000*%
%ADD11C,1.600000*%
%ADD12R,2.600000X2.600000*%
%ADD13C,2.600000*%
%ADD14O,2.000000X1.200000*%
%ADD15RoundRect,0.102000X-0.765000X-0.765000X0.765000X-0.765000X0.765000X0.765000X-0.765000X0.765000X0*%
%ADD16C,1.734000*%
%ADD17C,3.200000*%
%ADD18R,1.905000X2.000000*%
%ADD19O,1.905000X2.000000*%
G04 APERTURE END LIST*
D10*
%TO.C,C4*%
X127044900Y-96500000D03*
D11*
X129044900Y-96500000D03*
%TD*%
D12*
%TO.C,J3*%
X122500000Y-75500000D03*
D13*
X122500000Y-70500000D03*
%TD*%
D14*
%TO.C,IC1*%
X96760000Y-61840000D03*
X96760000Y-64380000D03*
X96760000Y-66920000D03*
X96760000Y-69460000D03*
X96760000Y-72000000D03*
X96760000Y-74540000D03*
X96760000Y-77080000D03*
X96760000Y-79620000D03*
X112000000Y-79620000D03*
X112000000Y-77080000D03*
X112000000Y-74540000D03*
X112000000Y-72000000D03*
X112000000Y-69460000D03*
X112000000Y-66920000D03*
X112000000Y-64380000D03*
X112000000Y-61840000D03*
%TD*%
D12*
%TO.C,J1*%
X121500000Y-108805000D03*
D13*
X126500000Y-108805000D03*
%TD*%
D15*
%TO.C,U2*%
X65100000Y-63880000D03*
D16*
X65100000Y-66420000D03*
X65100000Y-68960000D03*
X65100000Y-71500000D03*
X65100000Y-74040000D03*
X65100000Y-76580000D03*
X65100000Y-79120000D03*
X65100000Y-81660000D03*
X65100000Y-84200000D03*
X65100000Y-86740000D03*
X65100000Y-89280000D03*
X65100000Y-91820000D03*
X65100000Y-94360000D03*
X65100000Y-96900000D03*
X65100000Y-99440000D03*
X65100000Y-101980000D03*
X65100000Y-104520000D03*
X65100000Y-107060000D03*
X65100000Y-109600000D03*
X90500000Y-109600000D03*
X90500000Y-107060000D03*
X90500000Y-104520000D03*
X90500000Y-101980000D03*
X90500000Y-99440000D03*
X90500000Y-96900000D03*
X90500000Y-94360000D03*
X90500000Y-91820000D03*
X90500000Y-89280000D03*
X90500000Y-86740000D03*
X90500000Y-84200000D03*
X90500000Y-81660000D03*
X90500000Y-79120000D03*
X90500000Y-76580000D03*
X90500000Y-74040000D03*
X90500000Y-71500000D03*
X90500000Y-68960000D03*
X90500000Y-66420000D03*
X90500000Y-63880000D03*
%TD*%
D17*
%TO.C,REF\u002A\u002A*%
X133000000Y-53000000D03*
%TD*%
D16*
%TO.C,U5*%
X98713500Y-91000000D03*
X98713500Y-93540000D03*
X98713500Y-96080000D03*
X98713500Y-98620000D03*
X98713500Y-101160000D03*
X98713500Y-103700000D03*
X98713500Y-106240000D03*
X98713500Y-108780000D03*
%TD*%
D18*
%TO.C,U4*%
X121420000Y-88195000D03*
D19*
X123960000Y-88195000D03*
X126500000Y-88195000D03*
%TD*%
D17*
%TO.C,REF\u002A\u002A*%
X61500000Y-115500000D03*
%TD*%
%TO.C,REF\u002A\u002A*%
X133000000Y-116500000D03*
%TD*%
D10*
%TO.C,C3*%
X117847300Y-96500000D03*
D11*
X121347300Y-96500000D03*
%TD*%
D17*
%TO.C,REF\u002A\u002A*%
X61500000Y-53500000D03*
%TD*%
D12*
%TO.C,J2*%
X122500000Y-63500000D03*
D13*
X122500000Y-58500000D03*
%TD*%
M02*
